<svg xmlns="http://www.w3.org/2000/svg" xmlns:xlink="http://www.w3.org/1999/xlink" version="1.1" xml:space="preserve" viewBox="0 0 1080 1080">
<desc>Created with Fabric.js 5.2.4</desc>
<defs>
</defs>
<rect x="0" y="0" width="100%" height="100%" fill="transparent"/>
<g transform="matrix(1 0 0 1 540 540)" id="cd728daa-b7ee-42ea-bdd8-68883adbd125">
<rect style="stroke: none; stroke-width: 1; stroke-dasharray: none; stroke-linecap: butt; stroke-dashoffset: 0; stroke-linejoin: miter; stroke-miterlimit: 4; fill: rgb(255,255,255); fill-rule: nonzero; opacity: 1; visibility: hidden;" vector-effect="non-scaling-stroke" x="-540" y="-540" rx="0" ry="0" width="1080" height="1080"/>
</g>
<g transform="matrix(1 0 0 1 540 540)" id="112cb172-8907-4030-8490-f2388b3be1a3">
</g>
<g transform="matrix(1 0 0 1 540 501.53)">
<path style="stroke: none; stroke-width: 1; stroke-dasharray: none; stroke-linecap: butt; stroke-dashoffset: 0; stroke-linejoin: miter; stroke-miterlimit: 4; fill: rgb(194,194,194); fill-rule: evenodd; opacity: 1;" vector-effect="non-scaling-stroke" transform=" translate(-189.05, -188.29)" d="M 184.701 29.478 C 184.701 29.683 184.03 29.851 183.209 29.851 C 182.388 29.851 181.716 30 181.716 30.182 C 181.716 30.363 180.961 30.626 180.037 30.764 C 179.114 30.903 178.358 31.133 178.358 31.275 C 178.358 31.418 177.813 31.767 177.146 32.051 C 176.479 32.336 175.261 32.857 174.44 33.209 C 173.619 33.561 172.402 34.082 171.735 34.366 C 171.068 34.651 170.522 35.011 170.522 35.166 C 170.522 35.321 170.338 35.448 170.112 35.448 C 169.348 35.448 162.95 38.447 162.749 38.899 C 162.68 39.053 162.369 39.179 162.056 39.179 C 161.743 39.179 160.456 39.661 159.195 40.249 C 157.934 40.838 156.357 41.55 155.69 41.833 C 155.023 42.115 154.478 42.473 154.478 42.628 C 154.478 42.784 154.293 42.91 154.068 42.91 C 153.842 42.91 153.128 43.144 152.482 43.43 C 151.086 44.047 150.081 44.391 149.758 44.361 C 149.629 44.349 149.421 44.488 149.295 44.67 C 149.03 45.054 144.93 47.015 144.393 47.015 C 144.193 47.015 144.03 47.168 144.03 47.355 C 144.03 47.542 143.358 47.809 142.537 47.948 C 141.716 48.086 141.045 48.353 141.045 48.54 C 141.045 48.727 140.793 48.881 140.485 48.881 C 140.177 48.881 139.925 49.03 139.925 49.212 C 139.925 49.395 139.338 49.654 138.619 49.789 C 137.901 49.924 137.313 50.194 137.313 50.39 C 137.313 50.586 137.062 50.746 136.754 50.746 C 136.446 50.746 136.194 50.893 136.194 51.072 C 136.194 51.251 135.522 51.505 134.701 51.636 C 133.881 51.767 133.209 52.04 133.209 52.243 C 133.209 52.446 132.873 52.612 132.463 52.612 C 132.052 52.612 131.716 52.767 131.716 52.955 C 131.716 53.144 131.213 53.41 130.597 53.545 C 129.981 53.68 129.478 53.926 129.478 54.091 C 129.478 54.376 128.076 54.965 127.549 54.901 C 127.411 54.884 126.16 55.454 124.768 56.167 C 123.376 56.879 122.019 57.463 121.753 57.463 C 121.487 57.463 121.269 57.623 121.269 57.819 C 121.269 58.015 120.681 58.285 119.963 58.42 C 119.244 58.555 118.657 58.814 118.657 58.997 C 118.657 59.179 118.321 59.328 117.91 59.328 C 117.5 59.328 117.164 59.496 117.164 59.701 C 117.164 59.907 116.896 60.075 116.569 60.075 C 116.006 60.075 113.836 61.129 113.433 61.598 C 113.33 61.717 112.365 62.128 111.287 62.511 C 110.21 62.894 109.328 63.323 109.328 63.465 C 109.328 63.607 108.741 63.833 108.022 63.968 C 107.304 64.103 106.716 64.373 106.716 64.569 C 106.716 64.765 106.463 64.925 106.154 64.925 C 105.66 64.925 104.374 65.508 100.689 67.402 C 100.144 67.681 99.42 67.91 99.081 67.91 C 98.741 67.91 98.556 68.06 98.669 68.243 C 98.782 68.425 98.288 68.685 97.571 68.819 C 96.855 68.954 96.269 69.183 96.269 69.329 C 96.269 69.593 95.805 69.812 92.445 71.132 C 91.471 71.515 90.674 71.947 90.673 72.091 C 90.672 72.236 90.084 72.464 89.366 72.599 C 88.647 72.734 88.06 72.993 88.06 73.176 C 88.06 73.358 87.842 73.507 87.576 73.507 C 87.309 73.507 85.961 74.086 84.58 74.793 C 83.199 75.501 81.994 76.103 81.901 76.132 C 81.809 76.161 81.394 76.274 80.979 76.382 C 80.564 76.491 80.224 76.728 80.224 76.909 C 80.224 77.09 79.973 77.239 79.667 77.239 C 78.889 77.239 76.119 78.473 76.119 78.819 C 76.119 78.976 75.851 79.104 75.524 79.104 C 74.865 79.104 72.646 80.249 72.45 80.69 C 72.382 80.844 72.014 80.97 71.633 80.97 C 71.252 80.97 69.969 81.474 68.783 82.09 C 67.596 82.705 66.411 83.209 66.148 83.209 C 65.886 83.209 65.672 83.377 65.672 83.582 C 65.672 83.787 65.336 83.955 64.925 83.955 C 64.515 83.955 64.179 84.105 64.179 84.288 C 64.179 84.471 63.717 84.732 63.153 84.868 C 61.625 85.238 60.075 85.962 60.075 86.307 C 60.075 86.474 59.918 86.515 59.727 86.397 C 59.536 86.278 59.274 86.353 59.146 86.561 C 59.017 86.77 58.585 86.94 58.187 86.94 C 57.789 86.94 57.463 87.073 57.463 87.236 C 57.463 87.399 56.539 87.846 55.41 88.23 C 54.282 88.613 53.358 89.068 53.358 89.24 C 53.358 89.412 53.12 89.552 52.829 89.552 C 52.206 89.552 49.869 90.733 49.689 91.138 C 49.621 91.292 49.31 91.418 48.999 91.418 C 48.687 91.418 47.019 92.09 45.291 92.91 C 43.563 93.731 41.985 94.403 41.784 94.403 C 41.583 94.403 41.418 94.571 41.418 94.776 C 41.418 94.981 41.202 95.149 40.939 95.149 C 39.794 95.149 33.988 100.664 33.181 102.519 C 32.891 103.186 32.517 103.731 32.35 103.731 C 32.182 103.731 32.142 103.888 32.26 104.079 C 32.378 104.27 32.304 104.532 32.096 104.66 C 31.887 104.789 31.716 105.463 31.716 106.157 C 31.716 106.851 31.549 107.522 31.343 107.649 C 30.882 107.934 30.845 111.446 31.3 111.727 C 31.482 111.839 31.744 112.689 31.883 113.616 C 32.2 115.732 38.002 121.92 40.672 122.99 C 40.979 123.114 42.088 123.616 43.134 124.107 C 44.181 124.598 45.23 125 45.466 125 C 45.702 125 45.896 125.128 45.896 125.285 C 45.896 125.632 48.665 126.866 49.443 126.866 C 49.749 126.866 50 127.015 50 127.197 C 50 127.38 50.588 127.639 51.306 127.774 C 52.024 127.909 52.612 128.14 52.612 128.287 C 52.612 128.574 55.355 129.851 55.973 129.851 C 56.177 129.851 56.343 129.985 56.343 130.149 C 56.343 130.313 56.973 130.671 57.743 130.945 C 60.258 131.84 61.94 132.633 61.94 132.924 C 61.94 133.081 62.119 133.209 62.337 133.209 C 62.556 133.209 63.605 133.606 64.669 134.09 C 65.734 134.575 67.024 135.102 67.537 135.26 C 68.05 135.419 68.554 135.652 68.657 135.778 C 69 136.2 71.322 137.313 71.859 137.313 C 72.15 137.313 72.388 137.463 72.388 137.645 C 72.388 137.827 73.017 138.095 73.786 138.239 C 74.556 138.383 75.269 138.612 75.372 138.747 C 75.722 139.205 77.911 140.299 78.478 140.299 C 78.788 140.299 79.098 140.424 79.167 140.578 C 79.337 140.962 81.987 142.164 82.662 142.164 C 82.963 142.164 83.209 142.332 83.209 142.537 C 83.209 142.743 83.545 142.91 83.955 142.91 C 84.366 142.91 84.701 143.078 84.701 143.284 C 84.701 143.489 84.911 143.657 85.168 143.658 C 85.424 143.659 86.642 144.162 87.873 144.776 C 89.104 145.39 90.392 145.893 90.734 145.894 C 91.076 145.895 91.412 146.03 91.48 146.193 C 91.658 146.62 97.945 149.627 98.658 149.627 C 98.985 149.627 99.254 149.781 99.254 149.97 C 99.254 150.159 99.799 150.432 100.466 150.577 C 101.133 150.722 101.763 150.954 101.866 151.092 C 102.123 151.44 104.684 152.612 105.187 152.612 C 105.413 152.612 105.597 152.78 105.597 152.985 C 105.597 153.19 105.923 153.358 106.321 153.358 C 106.72 153.358 107.141 153.513 107.258 153.703 C 107.375 153.892 107.973 154.157 108.586 154.292 C 109.2 154.427 109.702 154.649 109.703 154.787 C 109.704 154.925 110.501 155.358 111.475 155.75 C 112.449 156.143 114.757 157.173 116.604 158.039 C 118.451 158.906 120.802 159.978 121.828 160.42 C 122.854 160.863 124.49 161.638 125.464 162.143 C 126.437 162.647 127.514 163.06 127.858 163.06 C 128.202 163.06 128.37 163.173 128.232 163.311 C 128.094 163.449 128.947 163.893 130.128 164.299 C 131.31 164.704 132.36 165.146 132.463 165.28 C 132.726 165.624 135.29 166.791 135.784 166.791 C 136.01 166.791 136.194 166.925 136.194 167.089 C 136.194 167.253 136.824 167.611 137.593 167.885 C 140.03 168.753 141.791 169.57 141.791 169.834 C 141.791 169.975 142.293 170.2 142.906 170.335 C 143.519 170.47 144.117 170.735 144.234 170.924 C 144.351 171.114 144.688 171.269 144.982 171.269 C 145.743 171.269 148.507 172.508 148.507 172.849 C 148.507 173.006 148.722 173.134 148.984 173.134 C 149.246 173.134 150.432 173.638 151.618 174.254 C 152.805 174.869 154.102 175.373 154.5 175.373 C 154.898 175.373 155.224 175.501 155.224 175.658 C 155.224 175.958 157.947 177.239 158.585 177.239 C 158.788 177.239 158.955 177.393 158.955 177.582 C 158.955 177.771 159.457 178.036 160.07 178.171 C 160.684 178.305 161.281 178.571 161.398 178.76 C 161.515 178.949 161.937 179.104 162.335 179.104 C 162.734 179.104 163.06 179.272 163.06 179.478 C 163.06 179.683 163.396 179.851 163.806 179.851 C 164.216 179.851 164.552 180.019 164.552 180.224 C 164.552 180.429 164.729 180.597 164.946 180.597 C 165.348 180.597 168.323 181.827 169.491 182.476 C 169.848 182.674 170.393 182.836 170.704 182.836 C 171.015 182.836 171.269 182.988 171.269 183.174 C 171.269 183.36 172.108 183.628 173.134 183.769 C 174.16 183.91 175 184.177 175 184.363 C 175 184.549 175.422 184.701 175.938 184.701 C 176.454 184.701 177.167 184.867 177.524 185.07 C 177.88 185.272 180.271 185.607 182.836 185.814 C 185.401 186.02 188.402 186.292 189.504 186.417 C 190.624 186.545 191.858 186.476 192.302 186.262 C 192.739 186.051 195.025 185.776 197.381 185.651 C 199.738 185.526 201.828 185.261 202.027 185.063 C 202.225 184.864 202.942 184.701 203.619 184.701 C 204.297 184.701 204.851 184.556 204.851 184.377 C 204.851 184.199 205.451 183.955 206.185 183.836 C 207.759 183.581 209.701 182.772 209.701 182.372 C 209.701 182.216 209.968 182.09 210.294 182.09 C 210.62 182.09 211.975 181.586 213.305 180.97 C 214.635 180.354 215.88 179.851 216.071 179.851 C 216.262 179.851 216.418 179.683 216.418 179.478 C 216.418 179.272 216.656 179.104 216.947 179.104 C 217.57 179.104 219.907 177.924 220.087 177.519 C 220.155 177.365 220.491 177.235 220.833 177.23 C 221.175 177.226 222.463 176.726 223.694 176.119 C 224.925 175.513 226.143 175.013 226.399 175.008 C 226.656 175.004 226.866 174.832 226.866 174.627 C 226.866 174.422 227.201 174.254 227.612 174.254 C 228.022 174.254 228.358 174.099 228.358 173.91 C 228.358 173.721 228.862 173.456 229.478 173.321 C 230.093 173.186 230.597 172.92 230.597 172.732 C 230.597 172.543 230.933 172.388 231.343 172.388 C 231.754 172.388 232.09 172.239 232.09 172.056 C 232.09 171.874 232.677 171.615 233.396 171.48 C 234.114 171.345 234.701 171.093 234.701 170.92 C 234.701 170.747 235.277 170.497 235.98 170.366 C 236.684 170.234 237.313 170.005 237.38 169.858 C 237.544 169.493 241.501 167.537 242.076 167.537 C 242.33 167.537 242.537 167.369 242.537 167.164 C 242.537 166.959 242.796 166.791 243.112 166.791 C 243.429 166.791 244.646 166.306 245.818 165.714 C 246.989 165.122 248.493 164.409 249.16 164.131 C 249.827 163.852 250.373 163.504 250.373 163.359 C 250.373 163.213 250.961 162.983 251.679 162.849 C 252.397 162.714 252.985 162.495 252.985 162.363 C 252.985 162.231 253.531 161.89 254.198 161.605 C 254.865 161.321 256.082 160.8 256.903 160.448 C 257.724 160.096 258.941 159.575 259.608 159.29 C 260.275 159.006 260.821 158.646 260.821 158.491 C 260.821 158.336 260.979 158.209 261.172 158.209 C 261.365 158.209 262.97 157.537 264.739 156.716 C 266.508 155.896 268.113 155.224 268.306 155.224 C 268.499 155.224 268.657 155.056 268.657 154.851 C 268.657 154.646 268.925 154.478 269.252 154.478 C 269.911 154.478 272.13 153.333 272.326 152.892 C 272.394 152.738 272.705 152.612 273.016 152.612 C 273.638 152.612 276.196 151.494 276.493 151.092 C 276.595 150.954 277.225 150.722 277.892 150.577 C 278.559 150.432 279.104 150.196 279.104 150.052 C 279.104 149.909 279.944 149.465 280.97 149.067 C 281.996 148.669 282.836 148.212 282.836 148.052 C 282.836 147.892 283.02 147.761 283.246 147.761 C 283.729 147.761 285.276 147.094 289.394 145.109 C 291.052 144.31 292.605 143.657 292.846 143.657 C 293.086 143.657 293.284 143.489 293.284 143.284 C 293.284 143.078 293.535 142.91 293.843 142.91 C 294.151 142.91 294.403 142.743 294.403 142.537 C 294.403 142.332 294.697 142.163 295.056 142.162 C 295.415 142.161 296.19 141.909 296.778 141.602 C 297.366 141.296 298.079 141.045 298.364 141.045 C 298.648 141.045 298.881 140.914 298.881 140.754 C 298.881 140.594 299.72 140.137 300.746 139.739 C 301.772 139.341 302.612 138.884 302.612 138.724 C 302.612 138.564 302.789 138.433 303.006 138.433 C 303.394 138.433 304.275 138.055 309.635 135.586 C 311.138 134.895 312.524 134.328 312.714 134.328 C 312.904 134.328 313.06 134.16 313.06 133.955 C 313.06 133.75 313.244 133.582 313.47 133.582 C 313.961 133.582 316.526 132.417 316.791 132.073 C 316.894 131.94 317.471 131.71 318.074 131.562 C 318.677 131.415 319.601 130.99 320.126 130.619 C 320.652 130.247 321.628 129.825 322.295 129.681 C 322.962 129.536 323.507 129.264 323.507 129.075 C 323.507 128.886 323.759 128.731 324.067 128.731 C 324.375 128.731 324.627 128.571 324.627 128.375 C 324.627 128.179 325.215 127.909 325.933 127.774 C 326.651 127.639 327.239 127.38 327.239 127.197 C 327.239 127.015 327.565 126.866 327.963 126.866 C 328.361 126.866 328.783 126.711 328.9 126.521 C 329.017 126.332 329.615 126.067 330.228 125.932 C 330.841 125.797 331.343 125.54 331.343 125.36 C 331.343 125.181 331.931 124.924 332.649 124.789 C 333.368 124.654 333.955 124.395 333.955 124.212 C 333.955 124.03 334.207 123.881 334.515 123.881 C 334.823 123.881 335.075 123.713 335.075 123.507 C 335.075 123.302 335.268 123.134 335.504 123.134 C 335.893 123.134 337.876 122.28 341.418 120.587 C 343.561 119.562 345.522 117.125 345.522 115.486 C 345.522 115.178 345.69 114.925 345.896 114.925 C 346.101 114.925 346.269 114.623 346.269 114.254 C 346.269 113.884 346.447 113.404 346.665 113.186 C 347.453 112.397 347.569 104.792 346.818 103.151 C 345.906 101.16 343.616 98.134 343.02 98.134 C 342.755 98.134 342.537 97.997 342.537 97.83 C 342.537 97.662 341.866 97.148 341.045 96.687 C 340.224 96.225 339.552 95.691 339.552 95.499 C 339.552 95.306 339.216 95.149 338.806 95.149 C 338.396 95.149 338.06 94.981 338.06 94.776 C 338.06 94.571 337.808 94.403 337.5 94.403 C 337.192 94.403 336.94 94.235 336.94 94.03 C 336.94 93.825 336.7 93.657 336.407 93.657 C 336.113 93.657 334.785 93.153 333.454 92.537 C 332.124 91.922 330.853 91.418 330.63 91.418 C 330.407 91.418 330.224 91.291 330.224 91.136 C 330.224 90.981 329.678 90.621 329.011 90.337 C 325.938 89.026 324.174 88.219 320.678 86.525 C 318.608 85.522 316.635 84.701 316.293 84.701 C 315.951 84.701 315.672 84.534 315.672 84.328 C 315.672 84.123 315.336 83.955 314.925 83.955 C 314.515 83.955 314.179 83.787 314.179 83.582 C 314.179 83.377 313.969 83.205 313.713 83.201 C 313.456 83.196 312.239 82.696 311.007 82.09 C 309.776 81.483 308.475 80.983 308.116 80.979 C 307.757 80.974 307.463 80.839 307.463 80.679 C 307.463 80.519 306.623 80.062 305.597 79.664 C 304.571 79.266 303.731 78.809 303.731 78.649 C 303.731 78.489 303.396 78.358 302.985 78.358 C 302.575 78.358 302.239 78.198 302.239 78.002 C 302.239 77.806 301.651 77.536 300.933 77.401 C 300.215 77.266 299.627 77.007 299.627 76.824 C 299.627 76.642 299.291 76.493 298.881 76.493 C 298.47 76.493 298.134 76.325 298.134 76.119 C 298.134 75.914 297.957 75.746 297.741 75.746 C 297.338 75.746 294.363 74.516 293.195 73.868 C 292.839 73.669 292.293 73.507 291.983 73.507 C 291.672 73.507 291.418 73.353 291.418 73.164 C 291.418 72.975 290.914 72.71 290.299 72.575 C 289.683 72.439 289.179 72.174 289.179 71.985 C 289.179 71.796 288.843 71.642 288.433 71.642 C 288.022 71.642 287.687 71.481 287.687 71.286 C 287.687 71.09 287.099 70.819 286.381 70.684 C 285.662 70.55 285.075 70.29 285.075 70.108 C 285.075 69.925 284.781 69.771 284.422 69.764 C 284.063 69.758 283.443 69.506 283.044 69.205 C 282.646 68.903 282.016 68.657 281.645 68.657 C 281.274 68.657 280.97 68.489 280.97 68.284 C 280.97 68.078 280.801 67.91 280.595 67.91 C 280.389 67.91 279.35 67.491 278.287 66.978 C 277.223 66.465 276.132 66.045 275.863 66.045 C 275.594 66.045 275.373 65.877 275.373 65.672 C 275.373 65.466 275.163 65.293 274.907 65.286 C 274.65 65.279 273.769 64.949 272.948 64.552 C 272.127 64.156 271.245 63.826 270.989 63.819 C 270.732 63.812 270.522 63.638 270.522 63.433 C 270.522 63.228 270.196 63.06 269.798 63.06 C 269.4 63.06 268.978 62.905 268.861 62.715 C 268.744 62.526 268.146 62.261 267.533 62.126 C 266.92 61.991 266.418 61.726 266.418 61.538 C 266.418 61.349 266.082 61.194 265.672 61.194 C 265.261 61.194 264.925 61.039 264.925 60.851 C 264.925 60.662 264.422 60.396 263.806 60.261 C 263.19 60.126 262.687 59.861 262.687 59.672 C 262.687 59.483 262.351 59.328 261.94 59.328 C 261.53 59.328 261.194 59.16 261.194 58.955 C 261.194 58.75 261.068 58.61 260.914 58.643 C 260.514 58.731 258.431 58.137 258.209 57.872 C 257.816 57.403 255.641 56.343 255.073 56.343 C 254.746 56.343 254.478 56.177 254.478 55.975 C 254.478 55.772 253.806 55.498 252.985 55.367 C 252.164 55.236 251.493 54.982 251.493 54.803 C 251.493 54.624 251.241 54.478 250.933 54.478 C 250.625 54.478 250.373 54.323 250.373 54.134 C 250.373 53.945 249.827 53.672 249.16 53.528 C 248.493 53.383 247.864 53.16 247.761 53.031 C 247.451 52.644 244.789 51.493 244.204 51.493 C 243.903 51.493 243.657 51.325 243.657 51.119 C 243.657 50.914 243.321 50.746 242.91 50.746 C 242.5 50.746 242.164 50.592 242.164 50.403 C 242.164 50.214 241.66 49.949 241.045 49.813 C 240.429 49.678 239.925 49.413 239.925 49.224 C 239.925 49.035 239.59 48.881 239.179 48.881 C 238.769 48.881 238.433 48.726 238.433 48.537 C 238.433 48.348 237.901 48.077 237.252 47.934 C 236.603 47.792 235.318 47.275 234.398 46.785 C 233.478 46.296 232.498 45.896 232.221 45.896 C 231.943 45.896 231.716 45.769 231.716 45.613 C 231.716 45.458 231.171 45.1 230.504 44.817 C 228.031 43.769 226.622 43.145 224.387 42.108 C 223.126 41.523 221.909 41.045 221.682 41.045 C 221.455 41.045 221.269 40.877 221.269 40.672 C 221.269 40.466 220.933 40.299 220.522 40.299 C 220.112 40.299 219.776 40.149 219.776 39.967 C 219.776 39.785 219.188 39.525 218.47 39.39 C 217.752 39.256 217.164 38.985 217.164 38.789 C 217.164 38.593 216.912 38.433 216.604 38.433 C 216.297 38.433 216.045 38.265 216.045 38.06 C 216.045 37.854 215.778 37.687 215.452 37.687 C 215.126 37.687 213.825 37.212 212.56 36.631 C 211.296 36.051 209.715 35.338 209.049 35.048 C 208.382 34.757 207.836 34.392 207.836 34.237 C 207.836 34.082 207.626 33.954 207.369 33.953 C 207.113 33.952 206.434 33.706 205.861 33.407 C 205.288 33.108 204.239 32.755 203.529 32.622 C 202.819 32.489 202.239 32.23 202.239 32.048 C 202.239 31.866 201.913 31.716 201.515 31.716 C 201.116 31.716 200.694 31.56 200.576 31.369 C 200.458 31.179 199.441 30.907 198.315 30.767 C 197.19 30.626 196.269 30.362 196.269 30.181 C 196.269 29.999 195.597 29.851 194.776 29.851 C 193.955 29.851 193.284 29.683 193.284 29.478 C 193.284 29.25 191.604 29.104 188.993 29.104 C 186.381 29.104 184.701 29.25 184.701 29.478 M 71.175 239.809 C 70.816 239.903 70.522 240.136 70.522 240.326 C 70.522 240.516 70.187 240.672 69.776 240.672 C 69.366 240.672 69.03 240.825 69.03 241.012 C 69.03 241.199 68.358 241.466 67.537 241.604 C 66.716 241.743 66.045 242.01 66.045 242.197 C 66.045 242.384 65.793 242.537 65.485 242.537 C 65.177 242.537 64.925 242.705 64.925 242.91 C 64.925 243.116 64.657 243.284 64.33 243.284 C 63.754 243.284 61.574 244.351 61.194 244.819 C 61.091 244.945 60.588 245.166 60.075 245.309 C 58.082 245.865 54.487 247.501 54.482 247.854 C 54.48 248.008 54.179 248.134 53.814 248.134 C 53.45 248.134 52.814 248.371 52.402 248.659 C 51.989 248.948 51.322 249.242 50.919 249.312 C 50.516 249.383 50.103 249.541 50 249.664 C 49.708 250.013 44.905 252.239 44.443 252.239 C 44.216 252.239 44.03 252.366 44.03 252.521 C 44.03 252.888 42.298 253.649 40.762 253.956 C 40.097 254.089 39.552 254.345 39.552 254.524 C 39.552 254.704 39.3 254.851 38.993 254.851 C 38.685 254.851 38.433 255.019 38.433 255.224 C 38.433 255.429 38.19 255.597 37.893 255.597 C 37.077 255.597 31.716 261.069 31.716 261.902 C 31.716 262.299 31.507 262.694 31.25 262.78 C 30.631 262.986 30.607 270.42 31.221 271.679 C 31.462 272.171 31.749 272.998 31.86 273.515 C 31.97 274.032 32.403 274.823 32.821 275.272 C 33.24 275.721 33.582 276.192 33.582 276.319 C 33.582 276.446 34.044 277.035 34.608 277.629 C 35.173 278.222 35.836 278.923 36.083 279.186 C 36.33 279.449 36.749 279.869 37.016 280.12 C 37.8 280.859 38.42 281.478 39.239 282.339 C 39.661 282.784 40.444 283.258 40.977 283.392 C 42.222 283.704 46.044 285.548 46.206 285.914 C 46.275 286.068 46.557 286.194 46.833 286.194 C 47.11 286.194 48.424 286.698 49.754 287.313 C 51.085 287.929 52.45 288.433 52.788 288.433 C 53.126 288.433 53.298 288.601 53.172 288.806 C 53.045 289.011 53.245 289.184 53.616 289.191 C 53.987 289.197 54.617 289.449 55.015 289.751 C 55.414 290.052 56.053 290.299 56.437 290.299 C 56.82 290.299 57.03 290.466 56.903 290.672 C 56.776 290.877 57.008 291.045 57.419 291.045 C 57.829 291.045 58.257 291.194 58.369 291.376 C 58.482 291.558 59.163 291.817 59.884 291.952 C 60.604 292.087 61.194 292.319 61.194 292.466 C 61.194 292.753 63.937 294.03 64.555 294.03 C 64.759 294.03 64.925 294.198 64.925 294.403 C 64.925 294.608 65.173 294.776 65.475 294.776 C 66.164 294.776 70.292 296.695 70.46 297.093 C 70.529 297.255 70.78 297.394 71.02 297.401 C 71.259 297.408 72.127 297.738 72.948 298.134 C 73.769 298.531 74.644 298.861 74.893 298.868 C 75.143 298.875 76.099 299.3 77.018 299.813 C 77.937 300.326 78.95 300.746 79.27 300.746 C 79.589 300.746 79.851 300.875 79.851 301.031 C 79.851 301.378 82.62 302.612 83.398 302.612 C 83.705 302.612 83.955 302.74 83.955 302.897 C 83.955 303.147 86.633 304.478 87.137 304.478 C 87.242 304.478 87.993 304.897 88.806 305.41 C 89.619 305.924 90.623 306.343 91.037 306.343 C 91.452 306.343 91.791 306.511 91.791 306.716 C 91.791 306.922 92.127 307.09 92.537 307.09 C 92.948 307.09 93.284 307.257 93.284 307.463 C 93.284 307.668 93.41 307.803 93.563 307.762 C 93.717 307.722 94.632 308.058 95.595 308.509 C 96.559 308.96 97.524 309.328 97.741 309.328 C 97.957 309.328 98.134 309.496 98.134 309.701 C 98.134 309.907 98.554 310.075 99.067 310.075 C 99.58 310.075 100 310.229 100 310.418 C 100 310.607 100.504 310.872 101.119 311.007 C 101.735 311.143 102.239 311.408 102.239 311.597 C 102.239 311.786 102.477 311.94 102.768 311.94 C 103.059 311.94 103.773 312.174 104.354 312.46 C 104.935 312.746 106.291 313.418 107.367 313.953 C 108.443 314.488 109.576 314.925 109.885 314.925 C 110.195 314.925 110.448 315.093 110.448 315.299 C 110.448 315.504 110.7 315.672 111.007 315.672 C 111.315 315.672 111.567 315.84 111.567 316.045 C 111.567 316.25 111.834 316.418 112.16 316.418 C 112.486 316.418 113.841 316.922 115.171 317.537 C 116.501 318.153 117.746 318.657 117.936 318.657 C 118.127 318.657 118.284 318.806 118.284 318.988 C 118.284 319.171 118.871 319.43 119.59 319.565 C 120.308 319.7 120.896 319.929 120.896 320.075 C 120.896 320.355 122.314 321.018 123.881 321.472 C 124.394 321.621 124.897 321.854 125 321.991 C 125.26 322.338 127.822 323.507 128.321 323.507 C 128.547 323.507 128.731 323.675 128.731 323.881 C 128.731 324.086 128.964 324.254 129.248 324.254 C 129.533 324.254 130.246 324.505 130.834 324.811 C 131.422 325.118 132.183 325.37 132.525 325.371 C 132.867 325.372 133.203 325.499 133.271 325.653 C 133.467 326.094 135.686 327.239 136.345 327.239 C 136.672 327.239 136.94 327.379 136.94 327.551 C 136.94 327.723 137.864 328.178 138.993 328.561 C 140.121 328.945 141.045 329.392 141.045 329.555 C 141.045 329.718 141.201 329.851 141.392 329.851 C 141.583 329.851 142.827 330.354 144.157 330.97 C 145.488 331.586 146.843 332.09 147.169 332.09 C 147.495 332.09 147.761 332.257 147.761 332.463 C 147.761 332.668 148.013 332.836 148.321 332.836 C 148.629 332.836 148.881 332.985 148.881 333.167 C 148.881 333.35 149.468 333.609 150.187 333.744 C 150.905 333.879 151.493 334.149 151.493 334.345 C 151.493 334.541 151.828 334.701 152.239 334.701 C 152.649 334.701 152.985 334.855 152.985 335.042 C 152.985 335.229 153.657 335.496 154.479 335.635 C 155.301 335.773 155.879 336.04 155.763 336.227 C 155.648 336.414 155.857 336.573 156.228 336.579 C 156.599 336.586 157.229 336.837 157.627 337.139 C 158.026 337.44 158.665 337.687 159.049 337.687 C 159.432 337.687 159.642 337.854 159.515 338.06 C 159.388 338.265 159.562 338.433 159.902 338.433 C 160.241 338.433 160.965 338.662 161.51 338.942 C 165.194 340.835 166.481 341.418 166.975 341.418 C 167.284 341.418 167.537 341.578 167.537 341.774 C 167.537 341.97 168.125 342.241 168.843 342.375 C 169.562 342.51 170.149 342.77 170.149 342.952 C 170.149 343.134 170.375 343.284 170.652 343.284 C 171.12 343.284 172.838 343.99 174.342 344.8 C 174.698 344.992 175.244 345.149 175.555 345.149 C 175.865 345.149 176.119 345.31 176.119 345.505 C 176.119 345.701 176.749 345.975 177.519 346.114 C 178.288 346.253 179.086 346.491 179.291 346.643 C 180.802 347.766 197.388 347.764 197.388 346.641 C 197.388 346.475 198.228 346.223 199.254 346.082 C 200.28 345.941 201.119 345.673 201.119 345.487 C 201.119 345.301 201.539 345.149 202.052 345.149 C 202.565 345.149 202.985 344.989 202.985 344.793 C 202.985 344.597 203.573 344.327 204.291 344.192 C 205.009 344.057 205.597 343.798 205.597 343.615 C 205.597 343.433 205.933 343.284 206.343 343.284 C 206.754 343.284 207.09 343.134 207.09 342.952 C 207.09 342.77 207.677 342.51 208.396 342.375 C 209.114 342.241 209.701 341.97 209.701 341.774 C 209.701 341.578 209.868 341.418 210.072 341.418 C 210.709 341.418 213.433 340.137 213.433 339.837 C 213.433 339.681 213.687 339.552 213.998 339.552 C 214.308 339.552 214.854 339.39 215.21 339.192 C 216.378 338.543 219.353 337.313 219.756 337.313 C 219.972 337.313 220.149 337.187 220.149 337.031 C 220.149 336.876 220.695 336.533 221.362 336.269 C 222.029 336.005 223.05 335.544 223.631 335.245 C 224.212 334.946 224.926 334.701 225.217 334.701 C 225.508 334.701 225.746 334.534 225.746 334.328 C 225.746 334.123 225.939 333.955 226.175 333.955 C 226.412 333.955 227.461 333.552 228.508 333.059 C 233.191 330.854 235.477 329.851 235.822 329.851 C 236.027 329.851 236.194 329.683 236.194 329.478 C 236.194 329.272 236.404 329.104 236.66 329.103 C 236.917 329.102 237.928 328.695 238.908 328.198 C 239.887 327.701 241.188 327.185 241.799 327.05 C 242.41 326.916 242.91 326.652 242.91 326.463 C 242.91 326.274 243.162 326.119 243.47 326.119 C 243.778 326.119 244.03 325.97 244.03 325.788 C 244.03 325.605 244.618 325.346 245.336 325.211 C 246.054 325.076 246.642 324.806 246.642 324.61 C 246.642 324.414 246.894 324.254 247.201 324.254 C 247.509 324.254 247.761 324.086 247.761 323.881 C 247.761 323.675 248.149 323.507 248.623 323.507 C 249.097 323.507 249.81 323.261 250.209 322.96 C 250.607 322.658 251.227 322.406 251.586 322.4 C 251.945 322.393 252.239 322.22 252.239 322.015 C 252.239 321.81 252.406 321.642 252.609 321.642 C 253.247 321.642 255.97 320.361 255.97 320.061 C 255.97 319.904 256.237 319.776 256.563 319.776 C 256.889 319.776 258.244 319.272 259.574 318.657 C 260.904 318.041 262.149 317.537 262.339 317.537 C 262.53 317.537 262.687 317.369 262.687 317.164 C 262.687 316.959 262.955 316.791 263.283 316.791 C 263.929 316.791 266.487 315.683 266.791 315.272 C 266.894 315.133 267.523 314.901 268.19 314.756 C 268.857 314.611 269.403 314.338 269.403 314.149 C 269.403 313.961 269.655 313.806 269.963 313.806 C 270.271 313.806 270.524 313.68 270.526 313.526 C 270.527 313.372 271.535 312.933 272.764 312.549 C 273.994 312.166 275 311.722 275 311.564 C 275 311.405 275.462 311.163 276.026 311.027 C 277.464 310.68 279.104 309.94 279.104 309.64 C 279.104 309.501 279.65 309.269 280.317 309.125 C 280.984 308.98 281.614 308.744 281.716 308.601 C 281.961 308.261 286.364 306.18 288.153 305.559 C 288.923 305.292 289.552 304.977 289.552 304.858 C 289.552 304.739 290.392 304.316 291.418 303.918 C 292.444 303.52 293.284 303.063 293.284 302.903 C 293.284 302.743 293.468 302.612 293.694 302.612 C 293.919 302.612 294.675 302.36 295.373 302.052 C 296.071 301.744 297.213 301.241 297.911 300.933 C 298.609 300.625 299.364 300.373 299.59 300.373 C 299.815 300.373 300 300.205 300 300 C 300 299.795 300.336 299.627 300.746 299.627 C 301.157 299.627 301.493 299.467 301.493 299.271 C 301.493 299.075 302.08 298.804 302.799 298.669 C 303.517 298.535 304.104 298.275 304.104 298.093 C 304.104 297.91 304.373 297.761 304.701 297.761 C 305.324 297.761 307.885 296.666 308.209 296.261 C 308.463 295.944 309.822 295.39 310.168 295.463 C 310.322 295.496 310.448 295.354 310.448 295.149 C 310.448 294.944 310.702 294.776 311.013 294.776 C 311.323 294.776 311.869 294.627 312.225 294.444 C 312.582 294.262 313.545 293.8 314.366 293.418 C 315.187 293.036 315.942 292.619 316.045 292.491 C 316.147 292.363 316.777 292.14 317.444 291.995 C 318.111 291.85 318.657 291.617 318.657 291.476 C 318.657 291.152 321.462 289.925 322.204 289.925 C 322.51 289.925 322.761 289.797 322.761 289.64 C 322.761 289.341 325.485 288.06 326.122 288.06 C 326.326 288.06 326.493 287.91 326.493 287.727 C 326.493 287.544 326.954 287.28 327.519 287.14 C 328.083 287 330.23 286.058 332.289 285.047 C 334.348 284.036 336.303 283.209 336.634 283.209 C 336.965 283.209 337.631 282.792 338.114 282.283 C 338.597 281.773 339.125 281.353 339.287 281.35 C 339.65 281.342 344.038 276.925 344.685 275.917 C 344.943 275.515 345.267 274.935 345.404 274.627 C 345.542 274.319 345.751 273.983 345.868 273.881 C 347.08 272.823 347.093 264.179 345.883 264.179 C 345.717 264.179 345.476 263.698 345.347 263.11 C 345.218 262.522 344.785 261.69 344.384 261.26 C 343.984 260.83 343.657 260.338 343.657 260.166 C 343.657 259.994 342.658 258.937 341.437 257.818 C 338.307 254.949 338.2 254.869 336.652 254.248 C 334.757 253.487 329.708 250.992 329.478 250.702 C 329.375 250.573 328.703 250.341 327.985 250.187 C 327.267 250.032 326.595 249.793 326.493 249.654 C 326.235 249.306 323.675 248.134 323.171 248.134 C 322.946 248.134 322.761 247.985 322.761 247.802 C 322.761 247.477 320.986 246.832 320.429 246.954 C 320.275 246.987 320.149 246.847 320.149 246.642 C 320.149 246.437 319.813 246.269 319.403 246.269 C 318.993 246.269 318.657 246.108 318.657 245.912 C 318.657 245.717 318.069 245.446 317.351 245.311 C 316.632 245.176 316.043 244.959 316.04 244.828 C 316.038 244.697 315.325 244.277 314.455 243.896 C 313.585 243.514 312.582 243.052 312.225 242.869 C 311.869 242.687 311.323 242.537 311.013 242.537 C 310.702 242.537 310.448 242.388 310.448 242.205 C 310.448 242.022 309.996 241.759 309.444 241.62 C 308.893 241.482 307.969 241.032 307.392 240.621 C 306.815 240.211 306.343 240.004 306.343 240.161 C 306.343 240.319 306.142 240.246 305.896 240 C 305.286 239.391 304.027 239.437 303.15 240.1 C 302.751 240.401 302.132 240.653 301.772 240.66 C 301.413 240.666 301.119 240.821 301.119 241.003 C 301.119 241.186 300.532 241.445 299.813 241.58 C 299.095 241.715 298.507 241.985 298.507 242.181 C 298.507 242.377 298.172 242.537 297.761 242.537 C 297.351 242.537 297.015 242.692 297.015 242.881 C 297.015 243.07 296.511 243.335 295.896 243.47 C 295.28 243.605 294.776 243.871 294.776 244.059 C 294.776 244.248 294.543 244.403 294.259 244.403 C 293.975 244.403 293.261 244.654 292.673 244.96 C 292.085 245.267 291.311 245.519 290.951 245.52 C 290.592 245.521 290.299 245.677 290.299 245.866 C 290.299 246.055 289.795 246.32 289.179 246.455 C 288.563 246.59 288.06 246.856 288.06 247.045 C 288.06 247.233 287.724 247.388 287.313 247.388 C 286.903 247.388 286.567 247.556 286.567 247.761 C 286.567 247.966 286.321 248.134 286.02 248.134 C 285.345 248.134 282.695 249.337 282.525 249.72 C 282.456 249.874 282.188 250 281.927 250 C 281.667 250 280.701 250.4 279.781 250.89 C 278.861 251.379 277.576 251.896 276.927 252.039 C 276.278 252.181 275.746 252.453 275.746 252.642 C 275.746 252.831 275.41 252.985 275 252.985 C 274.59 252.985 274.254 253.14 274.254 253.329 C 274.254 253.517 273.75 253.783 273.134 253.918 C 272.519 254.053 272.014 254.276 272.012 254.414 C 272.009 254.683 270.208 255.597 269.681 255.597 C 269.506 255.597 268.574 255.966 267.61 256.417 C 266.647 256.868 265.732 257.203 265.578 257.163 C 265.424 257.123 265.299 257.257 265.299 257.463 C 265.299 257.668 264.963 257.836 264.552 257.836 C 264.142 257.836 263.806 257.996 263.806 258.192 C 263.806 258.388 263.218 258.659 262.5 258.793 C 261.782 258.928 261.194 259.188 261.194 259.37 C 261.194 259.552 260.858 259.701 260.448 259.701 C 260.037 259.701 259.701 259.851 259.701 260.033 C 259.701 260.215 259.114 260.475 258.396 260.61 C 257.677 260.744 257.09 261.015 257.09 261.211 C 257.09 261.407 256.838 261.567 256.53 261.567 C 256.222 261.567 255.97 261.727 255.97 261.923 C 255.97 262.119 255.381 262.39 254.66 262.525 C 253.94 262.661 253.258 262.92 253.145 263.102 C 253.033 263.284 252.615 263.433 252.217 263.433 C 251.818 263.433 251.493 263.587 251.493 263.776 C 251.493 263.965 250.989 264.23 250.373 264.366 C 249.757 264.501 249.254 264.766 249.254 264.955 C 249.254 265.144 248.918 265.299 248.507 265.299 C 248.097 265.299 247.761 265.466 247.761 265.672 C 247.761 265.877 247.51 266.045 247.202 266.045 C 246.895 266.045 245.578 266.549 244.275 267.164 C 242.971 267.78 241.712 268.284 241.475 268.284 C 241.238 268.284 241.045 268.451 241.045 268.657 C 241.045 268.862 240.859 269.03 240.632 269.03 C 240.405 269.03 239.105 269.562 237.743 270.211 C 236.381 270.861 235.056 271.393 234.798 271.393 C 234.54 271.393 234.328 271.533 234.328 271.704 C 234.328 271.875 234.076 272.015 233.769 272.015 C 233.461 272.015 233.209 272.169 233.209 272.358 C 233.209 272.547 232.707 272.812 232.094 272.947 C 231.481 273.082 230.883 273.347 230.766 273.536 C 230.649 273.726 230.227 273.881 229.829 273.881 C 229.43 273.881 229.104 274.03 229.104 274.212 C 229.104 274.395 228.517 274.654 227.799 274.789 C 227.08 274.924 226.493 275.194 226.493 275.39 C 226.493 275.586 226.241 275.746 225.933 275.746 C 225.625 275.746 225.373 275.895 225.373 276.078 C 225.373 276.26 224.785 276.52 224.067 276.654 C 223.349 276.789 222.761 277.06 222.761 277.256 C 222.761 277.452 222.439 277.612 222.045 277.612 C 221.361 277.612 219.049 278.662 218.657 279.151 C 218.554 279.279 217.924 279.502 217.257 279.647 C 216.59 279.792 216.045 280.065 216.045 280.254 C 216.045 280.442 215.793 280.597 215.485 280.597 C 215.177 280.597 214.925 280.765 214.925 280.97 C 214.925 281.175 214.595 281.343 214.192 281.343 C 213.444 281.343 210.789 282.446 210.444 282.9 C 210.339 283.037 209.752 283.275 209.138 283.428 C 208.524 283.58 207.507 283.993 206.878 284.345 C 205.817 284.938 203.641 285.575 200.933 286.086 C 200.317 286.202 199.694 286.484 199.547 286.712 C 199.146 287.337 179.676 287.288 179.049 286.66 C 178.792 286.404 178.238 286.192 177.817 286.188 C 177.396 286.185 176.381 285.941 175.56 285.645 C 174.739 285.349 173.521 285.1 172.854 285.091 C 172.188 285.082 171.642 284.907 171.642 284.701 C 171.642 284.496 171.306 284.328 170.896 284.328 C 170.485 284.328 170.149 284.16 170.149 283.955 C 170.149 283.75 170.023 283.61 169.869 283.643 C 169.338 283.76 167.344 283.137 165.382 282.242 C 164.299 281.748 163.165 281.343 162.863 281.343 C 162.561 281.343 162.313 281.175 162.313 280.97 C 162.313 280.765 162.062 280.597 161.754 280.597 C 161.446 280.597 161.194 280.442 161.194 280.254 C 161.194 280.065 160.651 279.791 159.987 279.645 C 159.323 279.499 158.408 279.136 157.954 278.839 C 157.5 278.541 156.91 278.245 156.643 278.18 C 155.249 277.841 154.478 277.491 154.478 277.195 C 154.478 277.014 154.268 276.862 154.011 276.857 C 153.755 276.853 152.537 276.353 151.306 275.746 C 150.075 275.14 148.773 274.64 148.414 274.635 C 148.055 274.631 147.761 274.499 147.761 274.342 C 147.761 274.042 145.038 272.761 144.4 272.761 C 144.197 272.761 144.029 272.635 144.028 272.481 C 144.028 272.327 143.23 271.888 142.256 271.505 C 138.878 270.178 138.433 269.966 138.433 269.685 C 138.433 269.53 138.223 269.399 137.966 269.395 C 137.71 269.39 136.493 268.89 135.261 268.284 C 134.03 267.677 132.729 267.177 132.369 267.173 C 132.01 267.168 131.716 266.996 131.716 266.791 C 131.716 266.586 131.55 266.418 131.346 266.418 C 130.709 266.418 127.985 265.137 127.985 264.837 C 127.985 264.681 127.687 264.552 127.322 264.552 C 126.957 264.552 125.688 264.049 124.501 263.433 C 123.314 262.817 122.102 262.313 121.806 262.313 C 121.51 262.313 121.269 262.146 121.269 261.94 C 121.269 261.735 121.017 261.567 120.709 261.567 C 120.401 261.567 120.149 261.381 120.149 261.154 C 120.149 260.927 119.903 260.836 119.602 260.951 C 119.3 261.067 118.955 261.001 118.833 260.805 C 118.712 260.608 118.287 260.448 117.888 260.448 C 117.49 260.448 117.164 260.28 117.164 260.075 C 117.164 259.869 116.828 259.701 116.418 259.701 C 116.007 259.701 115.672 259.534 115.672 259.328 C 115.672 259.123 115.486 258.955 115.259 258.955 C 115.031 258.955 113.814 258.477 112.553 257.892 C 108.307 255.922 107.538 255.597 107.126 255.597 C 106.901 255.597 106.716 255.429 106.716 255.224 C 106.716 255.019 106.381 254.851 105.97 254.851 C 105.56 254.851 105.224 254.696 105.224 254.507 C 105.224 254.318 104.72 254.053 104.104 253.918 C 103.489 253.783 102.985 253.517 102.985 253.329 C 102.985 253.14 102.659 252.985 102.261 252.985 C 101.862 252.985 101.445 252.836 101.332 252.654 C 101.22 252.472 100.538 252.213 99.818 252.078 C 99.097 251.942 98.507 251.713 98.507 251.567 C 98.507 251.421 97.962 251.069 97.295 250.785 C 95.79 250.144 92.409 248.642 90.672 247.842 C 89.953 247.511 89.263 247.091 89.137 246.909 C 89.012 246.727 88.844 246.604 88.764 246.636 C 88.685 246.668 88.116 246.499 87.5 246.259 C 86.884 246.02 85.961 245.664 85.448 245.469 C 83.396 244.686 82.463 244.207 82.463 243.939 C 82.463 243.784 82.253 243.653 81.996 243.648 C 81.74 243.644 80.522 243.144 79.291 242.537 C 78.06 241.931 76.758 241.431 76.399 241.426 C 76.04 241.422 75.746 241.25 75.746 241.045 C 75.746 240.84 75.494 240.672 75.187 240.672 C 74.879 240.672 74.627 240.494 74.627 240.276 C 74.627 240.059 74.471 239.978 74.28 240.096 C 74.088 240.214 73.827 240.14 73.698 239.931 C 73.461 239.548 72.375 239.496 71.175 239.809" stroke-linecap="round"/>
</g>
<g transform="matrix(1 0 0 1 539.86 475.1)">
<path style="stroke: none; stroke-width: 1; stroke-dasharray: none; stroke-linecap: butt; stroke-dashoffset: 0; stroke-linejoin: miter; stroke-miterlimit: 4; fill: rgb(52,76,108); fill-rule: evenodd; opacity: 1;" vector-effect="non-scaling-stroke" transform=" translate(-188.91, -161.86)" d="M 251.493 54.851 C 251.493 55.056 251.87 55.221 252.332 55.218 C 253.011 55.214 253.065 55.143 252.612 54.851 C 251.889 54.383 251.493 54.383 251.493 54.851 M 71.642 161.567 C 71.642 161.772 71.39 161.94 71.082 161.94 C 70.774 161.94 70.522 162.087 70.522 162.267 C 70.522 162.446 69.978 162.702 69.313 162.835 C 67.777 163.142 66.045 163.903 66.045 164.27 C 66.045 164.425 65.878 164.552 65.674 164.552 C 65.042 164.552 62.313 165.832 62.313 166.128 C 62.313 166.283 61.642 166.516 60.821 166.648 C 60 166.779 59.328 167.033 59.328 167.212 C 59.328 167.391 59.076 167.537 58.769 167.537 C 58.461 167.537 58.209 167.687 58.209 167.869 C 58.209 168.051 57.621 168.311 56.903 168.446 C 56.185 168.58 55.597 168.851 55.597 169.047 C 55.597 169.243 55.345 169.403 55.037 169.403 C 54.729 169.403 54.478 169.549 54.478 169.728 C 54.478 169.907 53.806 170.161 52.985 170.293 C 52.164 170.424 51.493 170.678 51.493 170.858 C 51.493 171.038 50.905 171.296 50.187 171.431 C 49.468 171.565 48.881 171.836 48.881 172.032 C 48.881 172.228 48.629 172.388 48.321 172.388 C 48.013 172.388 47.761 172.556 47.761 172.761 C 47.761 172.966 47.467 173.135 47.108 173.137 C 46.749 173.138 45.974 173.39 45.386 173.696 C 44.799 174.003 44.085 174.254 43.801 174.254 C 43.516 174.254 43.284 174.408 43.284 174.597 C 43.284 174.786 42.78 175.051 42.164 175.187 C 41.549 175.322 41.045 175.587 41.045 175.776 C 41.045 175.965 40.709 176.119 40.299 176.119 C 39.888 176.119 39.552 176.269 39.552 176.452 C 39.552 176.635 39.1 176.898 38.548 177.037 C 37.996 177.175 37.282 177.589 36.962 177.957 C 36.642 178.324 36.003 178.744 35.541 178.89 C 35.079 179.035 34.701 179.41 34.701 179.721 C 34.701 180.033 34.102 180.818 33.37 181.467 C 31.191 183.396 30.781 184.673 30.799 189.482 C 30.809 191.947 30.975 193.81 31.2 193.96 C 31.628 194.246 32.241 195.555 32.149 195.989 C 32.116 196.143 32.257 196.269 32.463 196.269 C 32.668 196.269 32.836 196.604 32.836 197.015 C 32.836 197.425 33.004 197.761 33.209 197.761 C 33.414 197.761 33.582 197.962 33.582 198.207 C 33.582 198.864 39.781 204.851 40.462 204.851 C 40.782 204.851 41.045 205.019 41.045 205.224 C 41.045 205.429 41.371 205.597 41.769 205.597 C 42.167 205.597 42.589 205.752 42.706 205.941 C 42.823 206.131 43.421 206.396 44.034 206.531 C 44.647 206.665 45.149 206.891 45.149 207.031 C 45.149 207.309 47.908 208.582 48.51 208.582 C 48.714 208.582 48.881 208.75 48.881 208.955 C 48.881 209.16 49.3 209.328 49.813 209.328 C 50.326 209.328 50.746 209.496 50.746 209.701 C 50.746 209.907 50.913 210.075 51.117 210.075 C 51.754 210.075 54.478 211.356 54.478 211.655 C 54.478 211.812 54.688 211.941 54.944 211.943 C 55.201 211.944 55.879 212.189 56.452 212.488 C 57.025 212.787 58.075 213.141 58.784 213.274 C 59.494 213.407 60.075 213.665 60.075 213.847 C 60.075 214.03 60.326 214.179 60.634 214.179 C 60.942 214.179 61.194 214.347 61.194 214.552 C 61.194 214.757 61.379 214.925 61.604 214.925 C 62.099 214.925 64.663 216.093 64.925 216.438 C 65.028 216.573 65.742 216.799 66.511 216.941 C 67.281 217.082 67.91 217.358 67.91 217.554 C 67.91 217.75 68.162 217.91 68.47 217.91 C 68.778 217.91 69.03 218.06 69.03 218.242 C 69.03 218.424 69.618 218.684 70.336 218.819 C 71.054 218.953 71.642 219.183 71.642 219.329 C 71.642 219.64 73.259 220.376 74.72 220.729 C 75.285 220.865 75.746 221.126 75.746 221.309 C 75.746 221.492 76.082 221.642 76.493 221.642 C 76.903 221.642 77.239 221.796 77.239 221.985 C 77.239 222.174 77.743 222.439 78.358 222.575 C 78.974 222.71 79.478 222.954 79.478 223.117 C 79.478 223.281 80.022 223.523 80.687 223.656 C 82.172 223.953 83.955 224.72 83.955 225.061 C 83.955 225.2 84.459 225.424 85.075 225.56 C 85.69 225.695 86.194 225.96 86.194 226.149 C 86.194 226.338 86.53 226.493 86.94 226.493 C 87.351 226.493 87.687 226.658 87.687 226.861 C 87.687 227.064 88.358 227.337 89.179 227.469 C 90 227.6 90.672 227.854 90.672 228.033 C 90.672 228.212 90.924 228.358 91.231 228.358 C 91.539 228.358 91.791 228.519 91.791 228.714 C 91.791 228.91 92.379 229.181 93.097 229.316 C 93.815 229.45 94.403 229.71 94.403 229.892 C 94.403 230.075 94.655 230.224 94.963 230.224 C 95.271 230.224 95.522 230.384 95.522 230.58 C 95.522 230.776 96.112 231.047 96.832 231.182 C 97.553 231.317 98.235 231.577 98.347 231.759 C 98.459 231.941 98.877 232.09 99.276 232.09 C 99.674 232.09 100 232.244 100 232.433 C 100 232.622 100.504 232.887 101.119 233.022 C 101.735 233.158 102.239 233.423 102.239 233.612 C 102.239 233.801 102.575 233.955 102.985 233.955 C 103.396 233.955 103.731 234.123 103.731 234.328 C 103.731 234.534 103.941 234.703 104.198 234.704 C 104.454 234.705 105.115 234.941 105.665 235.228 C 106.216 235.516 107.181 235.864 107.811 236.002 C 108.44 236.14 108.955 236.408 108.955 236.597 C 108.955 236.786 109.291 236.94 109.701 236.94 C 110.112 236.94 110.448 237.095 110.448 237.284 C 110.448 237.473 110.951 237.738 111.567 237.873 C 112.183 238.008 112.687 238.274 112.687 238.462 C 112.687 238.651 112.919 238.806 113.204 238.806 C 113.488 238.806 114.202 239.057 114.789 239.363 C 115.377 239.67 116.152 239.922 116.511 239.923 C 116.87 239.924 117.164 240.093 117.164 240.299 C 117.164 240.504 117.416 240.672 117.724 240.672 C 118.032 240.672 118.284 240.832 118.284 241.028 C 118.284 241.224 118.871 241.494 119.59 241.629 C 120.308 241.764 120.896 241.99 120.896 242.132 C 120.896 242.274 121.777 242.703 122.854 243.086 C 123.932 243.469 124.897 243.888 125 244.019 C 125.269 244.36 127.836 245.522 128.321 245.522 C 128.547 245.522 128.731 245.688 128.731 245.891 C 128.731 246.094 129.403 246.367 130.224 246.499 C 131.045 246.63 131.716 246.884 131.716 247.063 C 131.716 247.242 132.052 247.388 132.463 247.388 C 132.873 247.388 133.209 247.543 133.209 247.732 C 133.209 247.92 133.713 248.186 134.328 248.321 C 134.944 248.456 135.448 248.682 135.448 248.822 C 135.448 249.189 138.299 250.373 139.182 250.373 C 139.591 250.373 139.925 250.541 139.925 250.746 C 139.925 250.951 140.177 251.119 140.485 251.119 C 140.793 251.119 141.045 251.28 141.045 251.476 C 141.045 251.672 141.632 251.942 142.351 252.077 C 143.069 252.212 143.657 252.471 143.657 252.653 C 143.657 252.836 143.909 252.985 144.216 252.985 C 144.524 252.985 144.776 253.145 144.776 253.341 C 144.776 253.537 145.406 253.813 146.175 253.955 C 146.945 254.096 147.659 254.323 147.761 254.458 C 148.023 254.802 150.587 255.97 151.083 255.97 C 151.308 255.97 151.493 256.13 151.493 256.326 C 151.493 256.522 152.08 256.793 152.799 256.928 C 153.517 257.062 154.104 257.322 154.104 257.504 C 154.104 257.687 154.44 257.836 154.851 257.836 C 155.261 257.836 155.597 257.985 155.597 258.167 C 155.597 258.35 156.185 258.609 156.903 258.744 C 157.621 258.879 158.209 259.149 158.209 259.345 C 158.209 259.541 158.461 259.701 158.769 259.701 C 159.076 259.701 159.328 259.851 159.328 260.033 C 159.328 260.215 159.916 260.475 160.634 260.61 C 161.353 260.744 161.94 261.015 161.94 261.211 C 161.94 261.407 162.173 261.567 162.457 261.567 C 162.742 261.567 163.455 261.818 164.043 262.125 C 164.631 262.431 165.416 262.683 165.787 262.684 C 166.158 262.686 166.358 262.854 166.231 263.06 C 166.105 263.265 166.346 263.433 166.769 263.433 C 167.192 263.433 167.537 263.601 167.537 263.806 C 167.537 264.011 167.716 264.179 167.934 264.179 C 168.153 264.179 169.24 264.595 170.35 265.102 C 171.46 265.61 172.792 266.132 173.311 266.262 C 173.829 266.392 174.254 266.643 174.254 266.819 C 174.254 266.995 175.093 267.25 176.119 267.386 C 177.146 267.522 177.985 267.78 177.985 267.959 C 177.985 268.137 178.455 268.284 179.03 268.284 C 179.604 268.284 180.285 268.493 180.541 268.75 C 180.884 269.093 183.027 269.216 188.619 269.216 C 194.211 269.216 196.355 269.093 196.698 268.75 C 196.954 268.493 197.634 268.284 198.209 268.284 C 198.784 268.284 199.254 268.131 199.254 267.945 C 199.254 267.759 200.093 267.492 201.119 267.351 C 202.146 267.21 202.985 266.961 202.985 266.798 C 202.985 266.634 203.573 266.391 204.291 266.256 C 205.009 266.121 205.597 265.851 205.597 265.655 C 205.597 265.459 205.849 265.299 206.157 265.299 C 206.465 265.299 206.716 265.138 206.716 264.942 C 206.716 264.746 207.306 264.475 208.027 264.34 C 208.747 264.205 209.429 263.946 209.541 263.764 C 209.654 263.582 210.071 263.433 210.47 263.433 C 210.868 263.433 211.194 263.278 211.194 263.089 C 211.194 262.9 211.698 262.635 212.313 262.5 C 212.929 262.365 213.433 262.1 213.433 261.911 C 213.433 261.722 213.769 261.567 214.179 261.567 C 214.59 261.567 214.925 261.417 214.925 261.234 C 214.925 261.052 215.387 260.79 215.951 260.654 C 217.413 260.301 219.03 259.566 219.03 259.254 C 219.03 259.108 219.618 258.879 220.336 258.744 C 221.054 258.609 221.642 258.35 221.642 258.167 C 221.642 257.985 221.978 257.836 222.388 257.836 C 222.799 257.836 223.134 257.687 223.134 257.504 C 223.134 257.322 223.722 257.062 224.44 256.928 C 225.159 256.793 225.746 256.522 225.746 256.326 C 225.746 256.13 225.913 255.97 226.117 255.97 C 226.719 255.97 229.478 254.697 229.478 254.419 C 229.478 254.279 229.978 254.054 230.589 253.92 C 231.2 253.785 232.501 253.269 233.481 252.772 C 234.46 252.275 235.471 251.868 235.728 251.867 C 235.984 251.866 236.194 251.698 236.194 251.493 C 236.194 251.287 236.614 251.119 237.127 251.119 C 237.64 251.119 238.06 250.951 238.06 250.746 C 238.06 250.541 238.226 250.373 238.43 250.373 C 239.067 250.373 241.791 249.092 241.791 248.793 C 241.791 248.636 241.976 248.507 242.201 248.507 C 242.696 248.507 245.26 247.34 245.522 246.995 C 245.625 246.86 246.339 246.634 247.108 246.492 C 247.878 246.351 248.507 246.075 248.507 245.879 C 248.507 245.683 248.674 245.522 248.878 245.522 C 249.48 245.522 252.239 244.249 252.239 243.971 C 252.239 243.831 252.741 243.606 253.354 243.471 C 253.967 243.336 254.565 243.071 254.682 242.882 C 254.799 242.692 255.221 242.537 255.619 242.537 C 256.017 242.537 256.343 242.388 256.343 242.206 C 256.343 242.023 256.931 241.764 257.649 241.629 C 258.368 241.494 258.955 241.224 258.955 241.028 C 258.955 240.832 259.207 240.672 259.515 240.672 C 259.823 240.672 260.075 240.522 260.075 240.34 C 260.075 240.158 260.662 239.898 261.381 239.763 C 262.099 239.629 262.687 239.358 262.687 239.162 C 262.687 238.966 263.106 238.806 263.619 238.806 C 264.132 238.806 264.552 238.651 264.552 238.462 C 264.552 238.274 265.056 238.008 265.672 237.873 C 266.287 237.738 266.791 237.473 266.791 237.284 C 266.791 237.095 267.127 236.94 267.537 236.94 C 267.948 236.94 268.284 236.786 268.284 236.597 C 268.284 236.408 268.787 236.143 269.403 236.007 C 270.019 235.872 270.522 235.607 270.522 235.418 C 270.522 235.229 270.853 235.075 271.256 235.075 C 272.004 235.075 274.659 233.972 275.004 233.518 C 275.108 233.381 275.654 233.153 276.216 233.012 C 276.779 232.87 277.239 232.605 277.239 232.422 C 277.239 232.239 277.575 232.09 277.985 232.09 C 278.396 232.09 278.731 231.956 278.731 231.794 C 278.731 231.631 279.655 231.184 280.784 230.8 C 281.912 230.417 282.836 229.981 282.836 229.832 C 282.836 229.683 283.424 229.45 284.142 229.316 C 284.86 229.181 285.448 228.91 285.448 228.714 C 285.448 228.519 285.7 228.358 286.007 228.358 C 286.315 228.358 286.567 228.192 286.567 227.989 C 286.567 227.787 287.239 227.513 288.06 227.382 C 288.881 227.251 289.552 226.997 289.552 226.818 C 289.552 226.639 289.888 226.493 290.299 226.493 C 290.709 226.493 291.045 226.338 291.045 226.149 C 291.045 225.96 291.549 225.695 292.164 225.56 C 292.78 225.424 293.284 225.159 293.284 224.97 C 293.284 224.781 293.619 224.627 294.03 224.627 C 294.44 224.627 294.776 224.472 294.776 224.283 C 294.776 224.094 295.291 223.827 295.921 223.689 C 296.55 223.55 297.516 223.202 298.066 222.915 C 298.617 222.628 299.277 222.392 299.534 222.39 C 299.79 222.389 300 222.22 300 222.015 C 300 221.81 300.336 221.642 300.746 221.642 C 301.157 221.642 301.493 221.487 301.493 221.298 C 301.493 221.109 301.996 220.844 302.612 220.709 C 303.228 220.574 303.731 220.309 303.731 220.12 C 303.731 219.931 304.067 219.776 304.478 219.776 C 304.888 219.776 305.224 219.608 305.224 219.403 C 305.224 219.198 305.475 219.03 305.781 219.03 C 306.538 219.03 309.328 217.8 309.328 217.466 C 309.328 217.319 309.916 217.088 310.634 216.953 C 311.353 216.818 311.94 216.559 311.94 216.376 C 311.94 216.194 312.192 216.045 312.5 216.045 C 312.808 216.045 313.06 215.884 313.06 215.689 C 313.06 215.493 313.689 215.217 314.459 215.075 C 315.229 214.934 315.942 214.707 316.045 214.572 C 316.307 214.227 318.871 213.06 319.366 213.06 C 319.592 213.06 319.776 212.892 319.776 212.687 C 319.776 212.481 319.961 212.313 320.186 212.313 C 320.574 212.313 321.032 212.132 324.31 210.679 C 325.059 210.346 325.857 210.075 326.083 210.075 C 326.308 210.075 326.493 209.907 326.493 209.701 C 326.493 209.496 326.828 209.328 327.239 209.328 C 327.649 209.328 327.985 209.179 327.985 208.996 C 327.985 208.813 328.447 208.551 329.011 208.415 C 330.472 208.062 332.09 207.327 332.09 207.015 C 332.09 206.87 332.677 206.64 333.396 206.505 C 334.114 206.37 334.701 206.111 334.701 205.929 C 334.701 205.746 334.953 205.597 335.261 205.597 C 335.569 205.597 335.821 205.429 335.821 205.224 C 335.821 205.019 336.229 204.851 336.727 204.851 C 337.629 204.851 338.806 203.991 338.806 203.332 C 338.806 203.141 339.054 202.985 339.356 202.985 C 339.996 202.985 344.403 198.784 344.403 198.173 C 344.403 197.947 344.568 197.761 344.769 197.761 C 344.97 197.761 345.24 197.341 345.369 196.828 C 345.498 196.315 345.753 195.896 345.936 195.896 C 346.119 195.896 346.269 195.486 346.269 194.985 C 346.269 194.484 346.437 193.97 346.642 193.843 C 346.847 193.716 347.015 192.373 347.015 190.858 C 347.015 189.343 346.847 188 346.642 187.873 C 346.437 187.746 346.269 187.373 346.269 187.044 C 346.269 186.222 345.076 183.582 344.704 183.582 C 344.539 183.582 344.403 183.33 344.403 183.022 C 344.403 182.715 344.246 182.463 344.055 182.463 C 343.864 182.463 343.603 182.135 343.476 181.736 C 343.349 181.336 342.927 180.907 342.537 180.784 C 342.148 180.66 341.728 180.24 341.604 179.851 C 341.481 179.461 341.061 179.042 340.672 178.918 C 340.282 178.794 339.86 178.366 339.733 177.966 C 339.606 177.566 339.273 177.239 338.994 177.239 C 338.715 177.239 338.264 177.023 337.993 176.758 C 337.411 176.191 334.954 175 334.365 175 C 334.14 175 333.955 174.832 333.955 174.627 C 333.955 174.422 333.723 174.254 333.438 174.254 C 333.154 174.254 332.44 174.003 331.852 173.696 C 331.265 173.39 330.504 173.138 330.162 173.137 C 329.82 173.135 329.484 173.007 329.415 172.851 C 329.199 172.359 325.422 170.565 324.064 170.311 C 323.348 170.176 322.761 169.917 322.761 169.735 C 322.761 169.552 322.509 169.403 322.201 169.403 C 321.894 169.403 321.642 169.243 321.642 169.047 C 321.642 168.851 321.054 168.58 320.336 168.446 C 319.618 168.311 319.03 168.051 319.03 167.869 C 319.03 167.687 318.778 167.537 318.47 167.537 C 318.162 167.537 317.91 167.391 317.91 167.212 C 317.91 167.033 317.239 166.779 316.418 166.648 C 315.597 166.516 314.925 166.243 314.925 166.04 C 314.925 165.838 314.674 165.672 314.366 165.672 C 314.058 165.672 313.806 165.522 313.806 165.34 C 313.806 165.158 313.218 164.898 312.5 164.763 C 311.782 164.629 311.194 164.385 311.194 164.223 C 311.194 164.06 310.271 163.613 309.142 163.23 C 308.013 162.846 307.09 162.399 307.09 162.236 C 307.09 162.073 306.754 161.94 306.343 161.94 C 305.933 161.94 305.597 161.772 305.597 161.567 C 305.597 160.857 303.347 161.452 302.612 162.356 C 302.509 162.483 302.006 162.708 301.493 162.856 C 299.975 163.296 298.507 163.97 298.507 164.229 C 298.507 164.361 297.92 164.579 297.201 164.714 C 296.483 164.849 295.896 165.119 295.896 165.315 C 295.896 165.511 295.644 165.672 295.336 165.672 C 295.028 165.672 294.776 165.819 294.776 165.998 C 294.776 166.178 294.232 166.434 293.566 166.567 C 292.031 166.874 290.299 167.634 290.299 168.002 C 290.299 168.157 290.132 168.284 289.928 168.284 C 289.296 168.284 286.567 169.563 286.567 169.86 C 286.567 170.014 285.896 170.248 285.075 170.379 C 284.254 170.51 283.582 170.764 283.582 170.943 C 283.582 171.122 283.415 171.269 283.212 171.269 C 282.609 171.269 279.851 172.542 279.851 172.82 C 279.851 172.96 279.349 173.185 278.736 173.32 C 278.122 173.455 277.525 173.72 277.408 173.909 C 277.291 174.099 276.869 174.254 276.471 174.254 C 276.072 174.254 275.746 174.403 275.746 174.585 C 275.746 174.768 275.159 175.027 274.44 175.162 C 273.722 175.297 273.134 175.567 273.134 175.763 C 273.134 175.959 272.882 176.119 272.575 176.119 C 272.267 176.119 272.015 176.269 272.015 176.451 C 272.015 176.633 271.427 176.893 270.709 177.028 C 269.991 177.162 269.403 177.433 269.403 177.629 C 269.403 177.825 268.983 177.985 268.47 177.985 C 267.957 177.985 267.537 178.14 267.537 178.329 C 267.537 178.517 267.034 178.783 266.418 178.918 C 265.802 179.053 265.299 179.318 265.299 179.507 C 265.299 179.696 264.963 179.851 264.552 179.851 C 264.142 179.851 263.806 180.005 263.806 180.194 C 263.806 180.383 263.302 180.648 262.687 180.784 C 262.071 180.919 261.567 181.184 261.567 181.373 C 261.567 181.562 261.237 181.716 260.834 181.716 C 260.086 181.716 257.431 182.819 257.086 183.273 C 256.981 183.41 256.435 183.638 255.873 183.78 C 255.311 183.921 254.851 184.186 254.851 184.369 C 254.851 184.552 254.515 184.701 254.104 184.701 C 253.694 184.701 253.358 184.848 253.358 185.027 C 253.358 185.206 252.687 185.46 251.866 185.591 C 251.045 185.722 250.373 185.996 250.373 186.198 C 250.373 186.401 250.121 186.567 249.813 186.567 C 249.506 186.567 249.254 186.716 249.254 186.899 C 249.254 187.081 248.666 187.341 247.948 187.475 C 247.229 187.61 246.642 187.881 246.642 188.077 C 246.642 188.273 246.39 188.433 246.082 188.433 C 245.774 188.433 245.522 188.579 245.522 188.758 C 245.522 188.937 244.851 189.191 244.03 189.322 C 243.209 189.454 242.537 189.727 242.537 189.93 C 242.537 190.133 242.201 190.299 241.791 190.299 C 241.381 190.299 241.045 190.453 241.045 190.642 C 241.045 190.831 240.541 191.096 239.925 191.231 C 239.31 191.367 238.806 191.632 238.806 191.821 C 238.806 192.01 238.512 192.165 238.153 192.166 C 237.794 192.168 237.019 192.42 236.431 192.726 C 235.843 193.033 235.13 193.284 234.845 193.284 C 234.561 193.284 234.328 193.438 234.328 193.627 C 234.328 193.816 233.825 194.081 233.209 194.216 C 232.593 194.352 232.09 194.617 232.09 194.806 C 232.09 194.995 231.754 195.149 231.343 195.149 C 230.933 195.149 230.597 195.299 230.597 195.482 C 230.597 195.665 230.135 195.926 229.571 196.063 C 228.11 196.415 226.493 197.151 226.493 197.462 C 226.493 197.608 225.905 197.838 225.187 197.972 C 224.468 198.107 223.881 198.367 223.881 198.549 C 223.881 198.731 223.629 198.881 223.321 198.881 C 223.013 198.881 222.761 199.047 222.761 199.249 C 222.761 199.452 222.09 199.725 221.269 199.857 C 220.448 199.988 219.776 200.242 219.776 200.421 C 219.776 200.6 219.44 200.746 219.03 200.746 C 218.619 200.746 218.284 200.901 218.284 201.09 C 218.284 201.279 217.78 201.544 217.164 201.679 C 216.549 201.814 216.045 202.08 216.045 202.268 C 216.045 202.457 215.86 202.612 215.635 202.612 C 215.409 202.612 214.654 202.864 213.956 203.172 C 211.44 204.281 210.237 204.773 208.862 205.256 C 208.092 205.526 207.463 205.865 207.463 206.01 C 207.463 206.155 206.623 206.389 205.597 206.53 C 204.571 206.671 203.731 206.939 203.731 207.125 C 203.731 207.311 203.158 207.463 202.456 207.463 C 201.755 207.463 201.126 207.629 201.057 207.833 C 200.989 208.037 199.632 208.313 198.041 208.447 C 196.451 208.582 195.149 208.835 195.149 209.01 C 195.149 209.185 192.631 209.328 189.552 209.328 C 186.474 209.328 183.955 209.182 183.955 209.003 C 183.955 208.825 182.444 208.56 180.597 208.416 C 178.75 208.271 177.239 207.998 177.239 207.808 C 177.239 207.618 176.651 207.463 175.933 207.463 C 175.215 207.463 174.627 207.314 174.627 207.133 C 174.627 206.951 173.703 206.687 172.575 206.546 C 171.446 206.405 170.522 206.134 170.522 205.943 C 170.522 205.753 170.103 205.597 169.59 205.597 C 169.076 205.597 168.657 205.429 168.657 205.224 C 168.657 205.019 168.304 204.851 167.874 204.851 C 167.103 204.851 165.322 204.173 163.375 203.138 C 162.831 202.849 162.117 202.612 161.789 202.612 C 161.462 202.612 161.194 202.457 161.194 202.268 C 161.194 202.08 160.69 201.814 160.075 201.679 C 159.459 201.544 158.955 201.279 158.955 201.09 C 158.955 200.901 158.619 200.746 158.209 200.746 C 157.799 200.746 157.463 200.6 157.463 200.421 C 157.463 200.242 156.791 199.988 155.97 199.857 C 155.149 199.725 154.478 199.452 154.478 199.249 C 154.478 199.047 154.226 198.881 153.918 198.881 C 153.61 198.881 153.358 198.72 153.358 198.524 C 153.358 198.328 152.771 198.058 152.052 197.923 C 151.334 197.788 150.746 197.57 150.746 197.438 C 150.746 197.147 149.083 196.404 147.668 196.063 C 147.104 195.926 146.642 195.665 146.642 195.482 C 146.642 195.299 146.306 195.149 145.896 195.149 C 145.485 195.149 145.149 194.995 145.149 194.806 C 145.149 194.617 144.646 194.352 144.03 194.216 C 143.414 194.081 142.91 193.816 142.91 193.627 C 142.91 193.438 142.585 193.284 142.186 193.284 C 141.788 193.284 141.351 193.104 141.216 192.885 C 141.08 192.666 140.734 192.577 140.447 192.687 C 140.16 192.797 139.925 192.724 139.925 192.526 C 139.925 192.327 139.59 192.164 139.179 192.164 C 138.769 192.164 138.433 192.01 138.433 191.821 C 138.433 191.632 137.929 191.367 137.313 191.231 C 136.698 191.096 136.194 190.831 136.194 190.642 C 136.194 190.453 135.858 190.299 135.448 190.299 C 135.037 190.299 134.701 190.133 134.701 189.93 C 134.701 189.727 134.03 189.454 133.209 189.322 C 132.388 189.191 131.716 188.937 131.716 188.758 C 131.716 188.579 131.465 188.433 131.157 188.433 C 130.849 188.433 130.597 188.273 130.597 188.077 C 130.597 187.881 130.009 187.61 129.291 187.475 C 128.573 187.341 127.985 187.081 127.985 186.899 C 127.985 186.716 127.733 186.567 127.425 186.567 C 127.118 186.567 126.866 186.407 126.866 186.211 C 126.866 186.015 126.236 185.739 125.466 185.597 C 124.697 185.456 123.983 185.234 123.881 185.104 C 123.778 184.974 122.938 184.541 122.015 184.142 C 121.091 183.743 120.252 183.328 120.149 183.219 C 119.73 182.777 117.088 181.716 116.405 181.716 C 116.002 181.716 115.672 181.562 115.672 181.373 C 115.672 181.184 115.168 180.919 114.552 180.784 C 113.937 180.648 113.433 180.423 113.433 180.282 C 113.433 180.004 110.674 178.731 110.072 178.731 C 109.868 178.731 109.701 178.563 109.701 178.358 C 109.701 178.153 109.282 177.985 108.769 177.985 C 108.256 177.985 107.836 177.825 107.836 177.629 C 107.836 177.433 107.248 177.162 106.53 177.028 C 105.812 176.893 105.224 176.633 105.224 176.451 C 105.224 176.269 104.972 176.119 104.664 176.119 C 104.356 176.119 104.104 175.959 104.104 175.763 C 104.104 175.567 103.517 175.297 102.799 175.162 C 102.08 175.027 101.493 174.768 101.493 174.585 C 101.493 174.403 101.167 174.254 100.768 174.254 C 100.37 174.254 99.948 174.099 99.831 173.909 C 99.714 173.72 99.117 173.455 98.503 173.32 C 97.89 173.185 97.388 172.96 97.388 172.82 C 97.388 172.542 94.63 171.269 94.027 171.269 C 93.823 171.269 93.657 171.122 93.657 170.943 C 93.657 170.764 92.985 170.51 92.164 170.379 C 91.343 170.248 90.672 169.975 90.672 169.772 C 90.672 169.569 90.42 169.403 90.112 169.403 C 89.804 169.403 89.552 169.254 89.552 169.071 C 89.552 168.889 88.965 168.63 88.246 168.495 C 87.528 168.36 86.94 168.13 86.94 167.985 C 86.94 167.632 85.179 166.868 83.673 166.567 C 83.007 166.434 82.463 166.178 82.463 165.998 C 82.463 165.819 82.211 165.672 81.903 165.672 C 81.595 165.672 81.343 165.504 81.343 165.299 C 81.343 165.093 81.133 164.925 80.877 164.924 C 80.62 164.923 79.609 164.516 78.63 164.019 C 77.65 163.522 76.349 163.006 75.738 162.871 C 75.127 162.737 74.626 162.515 74.624 162.377 C 74.62 162.065 72.782 161.194 72.127 161.194 C 71.86 161.194 71.642 161.362 71.642 161.567" stroke-linecap="round"/>
</g>
<g transform="matrix(NaN NaN NaN NaN 0 0)">
<g style="">
</g>
</g>
</svg>