<svg xmlns="http://www.w3.org/2000/svg" xmlns:xlink="http://www.w3.org/1999/xlink" version="1.1" xml:space="preserve" viewBox="0 0 1080 1080">
<desc>Created with Fabric.js 5.2.4</desc>
<defs>
</defs>
<rect x="0" y="0" width="100%" height="100%" fill="transparent"/>
<g transform="matrix(1 0 0 1 540 540)" id="cd728daa-b7ee-42ea-bdd8-68883adbd125">
<rect style="stroke: none; stroke-width: 1; stroke-dasharray: none; stroke-linecap: butt; stroke-dashoffset: 0; stroke-linejoin: miter; stroke-miterlimit: 4; fill: rgb(255,255,255); fill-rule: nonzero; opacity: 1; visibility: hidden;" vector-effect="non-scaling-stroke" x="-540" y="-540" rx="0" ry="0" width="1080" height="1080"/>
</g>
<g transform="matrix(1 0 0 1 540 540)" id="112cb172-8907-4030-8490-f2388b3be1a3">
</g>
<g transform="matrix(NaN NaN NaN NaN 0 0)">
<g style="">
</g>
</g>
<g transform="matrix(1 0 0 1 540.05 497.65)" id="path0">
<path style="stroke: none; stroke-width: 1; stroke-dasharray: none; stroke-linecap: butt; stroke-dashoffset: 0; stroke-linejoin: miter; stroke-miterlimit: 4; fill: rgb(194,194,194); fill-rule: evenodd; opacity: 1;" vector-effect="non-scaling-stroke" transform=" translate(-202.21, -158.57)" d="M 197.614 28.694 C 197.614 28.876 196.899 29.026 196.024 29.026 C 195.149 29.026 194.433 29.189 194.433 29.389 C 194.433 29.588 193.718 29.872 192.843 30.02 C 191.968 30.168 191.252 30.452 191.252 30.651 C 191.252 30.851 190.982 31.014 190.651 31.014 C 190.32 31.014 189.738 31.184 189.358 31.391 C 187.742 32.275 183.35 34.195 182.945 34.195 C 182.703 34.195 182.505 34.374 182.505 34.592 C 182.505 34.811 182.147 34.99 181.71 34.99 C 181.272 34.99 180.915 35.15 180.915 35.345 C 180.915 35.54 180.422 35.818 179.821 35.963 C 178.232 36.347 176.541 37.125 176.541 37.473 C 176.541 37.638 176.262 37.773 175.921 37.773 C 175.581 37.773 174.501 38.221 173.522 38.767 C 172.542 39.314 171.479 39.761 171.159 39.761 C 170.839 39.761 170.577 39.932 170.577 40.141 C 170.577 40.35 169.95 40.638 169.185 40.782 C 168.419 40.925 167.793 41.202 167.793 41.396 C 167.793 41.59 167.525 41.75 167.197 41.75 C 166.869 41.75 166.6 41.909 166.6 42.103 C 166.6 42.297 165.974 42.574 165.209 42.717 C 164.443 42.861 163.817 43.149 163.817 43.358 C 163.817 43.567 163.576 43.738 163.282 43.738 C 162.987 43.738 162.227 43.984 161.592 44.284 C 160.957 44.585 159.856 45.076 159.145 45.376 C 158.434 45.675 157.853 46.035 157.853 46.176 C 157.853 46.317 157.227 46.55 156.461 46.693 C 155.696 46.837 155.07 47.125 155.07 47.334 C 155.07 47.543 154.807 47.714 154.485 47.714 C 154.164 47.714 153.314 48.043 152.597 48.444 C 151.879 48.846 151.044 49.091 150.74 48.989 C 150.404 48.876 150.296 48.98 150.465 49.253 C 150.637 49.531 150.431 49.702 149.924 49.702 C 149.474 49.702 149.105 49.881 149.105 50.099 C 149.105 50.318 148.928 50.497 148.71 50.497 C 148.031 50.497 145.129 51.862 145.129 52.181 C 145.129 52.348 144.83 52.485 144.465 52.485 C 144.099 52.485 142.713 53.001 141.383 53.631 C 140.054 54.261 138.385 55.021 137.674 55.319 C 136.963 55.616 136.382 55.995 136.382 56.161 C 136.382 56.326 136.042 56.461 135.626 56.461 C 135.21 56.461 133.471 57.177 131.76 58.052 C 130.05 58.926 128.422 59.642 128.142 59.642 C 127.863 59.642 127.634 59.821 127.634 60.04 C 127.634 60.258 127.276 60.437 126.839 60.437 C 126.402 60.437 126.044 60.616 126.044 60.835 C 126.044 61.054 125.777 61.233 125.45 61.233 C 124.621 61.233 121.67 62.548 121.67 62.917 C 121.67 63.084 121.464 63.221 121.213 63.221 C 120.781 63.221 117.666 64.568 115.177 65.831 C 114.557 66.145 113.812 66.402 113.52 66.402 C 113.228 66.402 112.929 66.536 112.856 66.7 C 112.73 66.985 111.327 67.695 108.748 68.78 C 108.091 69.056 107.08 69.528 106.499 69.83 C 105.919 70.131 105.158 70.378 104.809 70.378 C 104.46 70.378 104.175 70.542 104.175 70.744 C 104.175 70.945 103.638 71.228 102.982 71.372 C 102.326 71.516 101.789 71.798 101.789 72 C 101.789 72.201 101.518 72.366 101.187 72.366 C 100.856 72.366 100.275 72.525 99.895 72.72 C 99.515 72.914 98.446 73.407 97.519 73.813 C 96.593 74.22 95.832 74.679 95.83 74.833 C 95.827 74.987 95.199 75.231 94.433 75.374 C 93.668 75.518 93.042 75.794 93.042 75.989 C 93.042 76.183 92.686 76.342 92.251 76.342 C 91.816 76.342 91.095 76.655 90.648 77.038 C 90.201 77.42 89.707 77.748 89.55 77.766 C 88.678 77.865 87.078 78.453 87.078 78.674 C 87.078 78.815 86.496 79.177 85.785 79.478 C 85.075 79.779 83.419 80.515 82.107 81.113 C 80.795 81.712 79.14 82.447 78.429 82.748 C 77.719 83.049 77.137 83.411 77.137 83.552 C 77.137 83.693 76.511 83.926 75.746 84.069 C 74.98 84.213 74.354 84.501 74.354 84.71 C 74.354 84.919 74.106 85.089 73.803 85.089 C 73.5 85.089 72.739 85.357 72.113 85.683 C 71.487 86.01 70.661 86.279 70.278 86.28 C 69.896 86.281 69.583 86.461 69.583 86.68 C 69.583 86.899 69.314 87.078 68.986 87.078 C 68.658 87.078 68.39 87.227 68.39 87.409 C 68.39 87.591 67.33 88.078 66.036 88.492 C 64.741 88.906 63.767 89.383 63.872 89.552 C 63.977 89.722 63.766 89.861 63.404 89.861 C 62.702 89.861 59.975 91.032 59.642 91.476 C 59.533 91.622 58.996 91.88 58.449 92.049 C 57.903 92.218 56.527 92.779 55.393 93.295 C 54.259 93.812 53.141 94.235 52.908 94.235 C 52.675 94.235 52.485 94.37 52.485 94.535 C 52.485 94.7 51.904 95.082 51.193 95.384 C 50.482 95.685 48.421 96.623 46.613 97.469 C 44.804 98.314 43.149 99.006 42.935 99.006 C 42.72 99.006 42.545 99.185 42.545 99.404 C 42.545 99.622 42.187 99.801 41.75 99.801 C 41.312 99.801 40.954 99.977 40.954 100.191 C 40.954 100.406 40.508 100.693 39.963 100.83 C 39.418 100.967 39.07 101.239 39.191 101.434 C 39.312 101.629 39.253 101.789 39.06 101.789 C 38.539 101.789 34.242 106.078 34.502 106.338 C 34.625 106.46 34.516 106.561 34.261 106.561 C 34.006 106.561 33.797 106.829 33.797 107.157 C 33.797 107.485 33.618 107.753 33.4 107.753 C 33.181 107.753 33.002 108.122 33.002 108.572 C 33.002 109.022 32.83 109.285 32.62 109.155 C 32.406 109.022 32.121 109.802 31.971 110.929 C 31.824 112.035 31.549 113.036 31.359 113.154 C 30.457 113.711 31.086 118.039 32.551 121.349 C 34.087 124.818 42.437 131.61 45.166 131.61 C 45.474 131.61 45.726 131.747 45.726 131.914 C 45.726 132.233 48.628 133.598 49.307 133.598 C 49.524 133.598 49.702 133.777 49.702 133.996 C 49.702 134.215 50.139 134.394 50.672 134.394 C 51.206 134.394 51.745 134.559 51.87 134.761 C 51.995 134.963 52.631 135.245 53.285 135.389 C 53.938 135.532 54.473 135.814 54.473 136.016 C 54.473 136.217 54.742 136.382 55.07 136.382 C 55.398 136.382 55.666 136.541 55.666 136.735 C 55.666 136.929 56.292 137.206 57.058 137.35 C 57.823 137.493 58.449 137.781 58.449 137.99 C 58.449 138.199 58.687 138.37 58.978 138.37 C 59.269 138.37 60.388 138.816 61.463 139.362 C 62.539 139.908 63.643 140.355 63.917 140.356 C 64.19 140.357 64.414 140.516 64.414 140.709 C 64.414 140.902 64.816 141.191 65.308 141.351 C 65.8 141.512 66.292 141.673 66.402 141.711 C 66.892 141.88 69.888 143.244 70.907 143.762 C 71.526 144.077 72.272 144.334 72.564 144.334 C 72.856 144.334 73.154 144.468 73.227 144.632 C 73.354 144.917 74.756 145.627 77.336 146.712 C 77.992 146.988 79.004 147.461 79.584 147.762 C 80.165 148.064 80.925 148.31 81.274 148.31 C 81.623 148.31 81.909 148.445 81.909 148.611 C 81.909 148.776 82.49 149.156 83.201 149.455 C 83.912 149.755 85.013 150.246 85.648 150.547 C 86.283 150.847 87.043 151.093 87.337 151.093 C 87.632 151.093 87.873 151.258 87.873 151.459 C 87.873 151.661 88.41 151.943 89.066 152.087 C 89.722 152.232 90.258 152.514 90.258 152.715 C 90.258 152.917 90.616 153.082 91.054 153.082 C 91.491 153.082 91.849 153.26 91.849 153.479 C 91.849 153.698 92.046 153.877 92.286 153.877 C 92.526 153.877 93.331 154.145 94.075 154.473 C 94.819 154.801 96.036 155.338 96.78 155.666 C 97.524 155.994 98.329 156.262 98.569 156.262 C 98.809 156.262 99.006 156.398 99.006 156.563 C 99.006 156.728 99.587 157.108 100.298 157.408 C 101.009 157.707 102.11 158.198 102.745 158.499 C 103.38 158.8 104.14 159.046 104.435 159.046 C 104.729 159.046 104.97 159.225 104.97 159.443 C 104.97 159.662 105.136 159.841 105.339 159.841 C 105.541 159.841 107.018 160.443 108.619 161.18 C 110.221 161.916 111.978 162.656 112.525 162.824 C 113.072 162.992 113.608 163.248 113.718 163.394 C 113.994 163.764 116.725 165.01 117.257 165.01 C 117.497 165.01 117.694 165.189 117.694 165.408 C 117.694 165.626 118.017 165.805 118.413 165.805 C 118.809 165.805 119.48 166.068 119.904 166.389 C 120.329 166.71 121.079 166.978 121.571 166.985 C 122.063 166.992 122.465 167.135 122.465 167.302 C 122.465 167.621 125.367 168.986 126.046 168.986 C 126.264 168.986 126.441 169.123 126.441 169.29 C 126.441 169.659 129.393 170.974 130.221 170.974 C 130.548 170.974 130.815 171.153 130.815 171.372 C 130.815 171.59 131.128 171.775 131.511 171.782 C 131.894 171.789 132.554 172.057 132.979 172.378 C 133.403 172.7 134.074 172.962 134.47 172.962 C 134.865 172.962 135.189 173.099 135.189 173.266 C 135.189 173.635 138.14 174.95 138.969 174.95 C 139.295 174.95 139.563 175.129 139.563 175.348 C 139.563 175.567 139.92 175.746 140.358 175.746 C 140.795 175.746 141.153 175.924 141.153 176.143 C 141.153 176.362 141.35 176.541 141.59 176.541 C 142.122 176.541 144.853 177.787 145.129 178.156 C 145.239 178.302 145.775 178.56 146.322 178.729 C 146.869 178.898 148.3 179.495 149.503 180.056 C 150.706 180.616 151.779 181.09 151.889 181.108 C 152.194 181.16 157.42 183.623 159.54 184.715 C 160.577 185.249 161.695 185.686 162.025 185.686 C 162.355 185.686 162.624 185.836 162.624 186.019 C 162.624 186.202 163.608 186.686 164.811 187.095 C 166.014 187.504 166.998 187.981 166.998 188.154 C 166.998 188.327 167.222 188.47 167.495 188.472 C 167.768 188.473 169.423 189.188 171.173 190.06 C 172.922 190.932 174.667 191.646 175.05 191.648 C 175.432 191.649 175.746 191.785 175.746 191.951 C 175.746 192.116 176.327 192.497 177.038 192.798 C 177.749 193.099 179.429 193.859 180.773 194.486 C 182.116 195.113 183.592 195.626 184.053 195.626 C 184.514 195.626 184.891 195.805 184.891 196.024 C 184.891 196.243 185.392 196.421 186.004 196.421 C 186.616 196.421 187.308 196.612 187.542 196.846 C 187.775 197.079 189.332 197.373 191.001 197.5 C 192.67 197.626 194.036 197.864 194.036 198.03 C 194.036 198.195 195.691 198.444 197.714 198.583 C 199.737 198.722 202.331 198.902 203.479 198.983 C 204.627 199.064 205.567 198.968 205.567 198.77 C 205.567 198.572 207.077 198.41 208.923 198.41 C 210.769 198.41 212.373 198.257 212.488 198.071 C 212.603 197.885 214.082 197.616 215.774 197.473 C 217.466 197.33 219.029 197.035 219.246 196.817 C 219.464 196.6 220.033 196.421 220.511 196.421 C 220.989 196.421 221.893 196.154 222.519 195.827 C 223.146 195.501 223.971 195.232 224.354 195.231 C 224.737 195.23 225.05 195.093 225.05 194.928 C 225.05 194.763 225.631 194.381 226.342 194.08 C 227.053 193.779 228.708 193.044 230.02 192.445 C 231.332 191.847 232.987 191.111 233.698 190.81 C 234.409 190.509 234.99 190.142 234.99 189.994 C 234.99 189.846 235.525 189.608 236.178 189.464 C 236.832 189.321 237.469 189.038 237.593 188.836 C 237.718 188.634 238.168 188.469 238.592 188.469 C 239.017 188.469 239.364 188.29 239.364 188.072 C 239.364 187.853 239.591 187.674 239.868 187.674 C 240.146 187.674 241.798 186.958 243.539 186.083 C 245.28 185.209 246.932 184.493 247.209 184.493 C 247.487 184.493 247.714 184.328 247.714 184.127 C 247.714 183.926 248.248 183.644 248.902 183.5 C 249.556 183.356 250.192 183.074 250.317 182.872 C 250.442 182.67 250.891 182.505 251.316 182.505 C 251.74 182.505 252.087 182.347 252.087 182.154 C 252.087 181.859 253.086 181.38 254.142 181.167 C 254.288 181.137 254.541 180.979 254.705 180.815 C 254.869 180.651 255.316 180.517 255.699 180.517 C 256.082 180.517 256.455 180.383 256.528 180.219 C 256.72 179.787 259.21 178.529 259.873 178.529 C 260.183 178.529 260.437 178.35 260.437 178.131 C 260.437 177.913 260.795 177.734 261.233 177.734 C 261.67 177.734 262.028 177.575 262.028 177.38 C 262.028 177.186 262.654 176.909 263.419 176.766 C 264.185 176.622 264.811 176.334 264.811 176.125 C 264.811 175.916 265.169 175.746 265.606 175.746 C 266.044 175.746 266.402 175.581 266.402 175.38 C 266.402 175.178 266.938 174.896 267.594 174.751 C 268.25 174.607 268.787 174.325 268.787 174.123 C 268.787 173.922 269.145 173.757 269.583 173.757 C 270.02 173.757 270.378 173.616 270.378 173.442 C 270.378 173.269 271.362 172.792 272.565 172.384 C 273.767 171.975 274.751 171.49 274.751 171.307 C 274.751 171.124 275.004 170.974 275.313 170.974 C 275.622 170.974 277.635 170.096 279.786 169.023 C 281.938 167.951 284.547 166.743 285.585 166.34 C 286.623 165.936 287.473 165.472 287.474 165.308 C 287.474 165.144 287.672 165.01 287.912 165.01 C 288.448 165.01 291.177 163.762 291.451 163.391 C 291.561 163.243 292.232 162.996 292.942 162.841 C 293.653 162.687 294.235 162.396 294.235 162.195 C 294.235 161.994 294.487 161.829 294.795 161.829 C 295.104 161.829 297.116 160.936 299.268 159.844 C 301.42 158.753 303.405 157.858 303.678 157.856 C 303.951 157.854 304.175 157.674 304.175 157.455 C 304.175 157.237 304.533 157.058 304.97 157.058 C 305.408 157.058 305.765 156.916 305.765 156.742 C 305.765 156.569 306.75 156.093 307.952 155.684 C 309.155 155.275 310.139 154.799 310.139 154.625 C 310.139 154.452 310.765 154.193 311.531 154.049 C 312.296 153.906 312.922 153.629 312.922 153.435 C 312.922 153.241 313.191 153.082 313.519 153.082 C 313.847 153.082 314.115 152.922 314.115 152.728 C 314.115 152.534 314.742 152.257 315.507 152.114 C 316.272 151.97 316.899 151.682 316.899 151.473 C 316.899 151.264 317.256 151.093 317.694 151.093 C 318.131 151.093 318.489 150.915 318.489 150.696 C 318.489 150.477 318.751 150.298 319.072 150.298 C 319.791 150.298 322.615 149.017 322.797 148.608 C 322.869 148.444 323.092 148.31 323.291 148.31 C 323.945 148.31 326.839 146.936 326.839 146.626 C 326.839 146.459 327.14 146.322 327.508 146.322 C 327.875 146.322 330.157 145.364 332.577 144.194 C 334.998 143.023 337.56 141.816 338.27 141.512 C 338.981 141.208 339.563 140.832 339.563 140.676 C 339.563 140.521 340.189 140.276 340.954 140.133 C 341.72 139.989 342.346 139.741 342.346 139.582 C 342.346 139.423 343.062 139.056 343.936 138.767 C 344.811 138.479 345.527 138.112 345.527 137.953 C 345.527 137.793 346.153 137.546 346.918 137.402 C 347.684 137.258 348.31 136.97 348.31 136.761 C 348.31 136.553 348.579 136.382 348.907 136.382 C 349.235 136.382 349.503 136.223 349.503 136.028 C 349.503 135.834 350.129 135.557 350.895 135.414 C 351.66 135.27 352.286 134.982 352.286 134.773 C 352.286 134.564 352.521 134.394 352.808 134.394 C 353.095 134.394 354.258 133.946 355.391 133.4 C 356.524 132.853 357.631 132.406 357.851 132.406 C 358.071 132.406 358.25 132.227 358.25 132.008 C 358.25 131.789 358.504 131.61 358.815 131.61 C 359.478 131.61 361.968 130.353 362.16 129.92 C 362.233 129.756 362.591 129.618 362.956 129.613 C 363.32 129.608 364.692 129.076 366.004 128.429 C 367.316 127.783 368.532 127.25 368.706 127.245 C 369.648 127.219 371.042 125.112 372.592 121.372 C 372.795 120.88 373.186 120.003 373.459 119.423 C 374.705 116.782 373.996 108.257 372.366 106.276 C 372.147 106.01 371.745 105.526 371.471 105.2 C 371.198 104.873 370.974 104.496 370.974 104.362 C 370.974 103.919 369.958 103.092 369.067 102.809 C 368.585 102.656 368.191 102.364 368.191 102.16 C 368.191 101.956 367.999 101.789 367.765 101.789 C 367.531 101.789 367.089 101.566 366.785 101.292 C 365.469 100.112 365.019 99.801 364.629 99.801 C 364.401 99.801 364.215 99.622 364.215 99.404 C 364.215 99.185 364.032 99.006 363.809 99.006 C 363.586 99.006 361.89 98.29 360.04 97.416 C 358.19 96.541 356.404 95.825 356.072 95.825 C 355.739 95.825 355.467 95.69 355.467 95.524 C 355.467 95.359 354.886 94.976 354.175 94.673 C 350.147 92.955 349.605 92.706 341.373 88.805 C 340.292 88.292 339.173 87.873 338.888 87.873 C 338.603 87.873 338.37 87.736 338.37 87.569 C 338.37 87.2 335.418 85.885 334.59 85.885 C 334.263 85.885 333.996 85.749 333.996 85.584 C 333.996 85.237 332.305 84.458 330.716 84.075 C 330.114 83.929 329.622 83.651 329.622 83.456 C 329.622 83.261 329.264 83.101 328.827 83.101 C 328.39 83.101 328.032 82.937 328.032 82.735 C 328.032 82.534 327.495 82.251 326.839 82.107 C 326.183 81.963 325.646 81.681 325.646 81.479 C 325.646 81.278 325.398 81.113 325.095 81.113 C 324.792 81.113 324.032 80.846 323.405 80.519 C 322.779 80.193 321.953 79.924 321.571 79.923 C 321.188 79.922 320.875 79.742 320.875 79.523 C 320.875 79.304 320.606 79.125 320.278 79.125 C 319.95 79.125 319.682 78.946 319.682 78.728 C 319.682 78.509 319.411 78.33 319.08 78.33 C 318.749 78.33 318.168 78.163 317.788 77.96 C 315.91 76.953 311.811 75.149 311.4 75.149 C 311.144 75.149 310.934 75.012 310.934 74.845 C 310.934 74.476 307.983 73.161 307.154 73.161 C 306.828 73.161 306.561 72.982 306.561 72.763 C 306.561 72.545 306.237 72.366 305.841 72.366 C 305.446 72.366 304.775 72.103 304.35 71.782 C 303.926 71.461 303.265 71.193 302.883 71.186 C 302.5 71.179 302.187 70.994 302.187 70.775 C 302.187 70.557 301.918 70.378 301.59 70.378 C 301.262 70.378 300.994 70.199 300.994 69.98 C 300.994 69.761 300.681 69.581 300.298 69.58 C 299.916 69.579 299.09 69.31 298.463 68.984 C 297.837 68.657 297.077 68.39 296.774 68.39 C 296.471 68.39 296.223 68.219 296.223 68.01 C 296.223 67.801 295.596 67.513 294.831 67.369 C 294.066 67.226 293.437 66.994 293.435 66.854 C 293.432 66.715 292.672 66.268 291.745 65.861 C 290.818 65.454 289.749 64.962 289.369 64.767 C 288.989 64.573 288.408 64.414 288.077 64.414 C 287.746 64.414 287.475 64.235 287.475 64.016 C 287.475 63.797 287.251 63.614 286.978 63.609 C 286.705 63.604 285.408 63.072 284.095 62.425 C 282.783 61.779 281.486 61.246 281.213 61.242 C 280.939 61.237 280.716 61.054 280.716 60.835 C 280.716 60.616 280.464 60.437 280.157 60.437 C 279.85 60.437 278.061 59.646 276.181 58.679 C 274.301 57.712 272.763 57.032 272.763 57.168 C 272.763 57.304 272.549 57.201 272.286 56.938 C 272.024 56.676 271.487 56.461 271.093 56.461 C 270.7 56.461 270.378 56.282 270.378 56.064 C 270.378 55.845 270.02 55.666 269.583 55.666 C 269.145 55.666 268.787 55.487 268.787 55.268 C 268.787 55.05 268.593 54.871 268.355 54.871 C 268.117 54.871 266.762 54.334 265.345 53.678 C 263.927 53.022 262.512 52.485 262.199 52.485 C 261.886 52.485 261.63 52.348 261.63 52.181 C 261.63 51.862 258.728 50.497 258.049 50.497 C 257.832 50.497 257.654 50.318 257.654 50.099 C 257.654 49.881 257.341 49.696 256.958 49.689 C 256.576 49.682 255.915 49.414 255.491 49.093 C 255.066 48.772 254.306 48.509 253.801 48.509 C 253.296 48.509 252.883 48.372 252.883 48.205 C 252.883 47.886 249.98 46.521 249.301 46.521 C 249.084 46.521 248.907 46.384 248.907 46.217 C 248.907 45.907 247.114 45.063 244.433 44.108 C 243.613 43.817 242.942 43.443 242.942 43.278 C 242.942 43.113 242.316 42.861 241.551 42.717 C 240.785 42.574 240.159 42.341 240.159 42.2 C 240.159 42.059 239.578 41.699 238.867 41.399 C 238.156 41.1 237.055 40.609 236.42 40.308 C 235.785 40.008 235.025 39.761 234.73 39.761 C 234.436 39.761 234.195 39.626 234.195 39.461 C 234.195 39.296 233.613 38.917 232.903 38.619 C 232.192 38.321 230.537 37.583 229.225 36.978 C 227.913 36.374 226.257 35.635 225.547 35.337 C 224.836 35.04 224.254 34.669 224.254 34.513 C 224.254 34.358 223.628 34.113 222.863 33.97 C 222.097 33.826 221.471 33.586 221.471 33.435 C 221.471 33.285 220.8 32.926 219.98 32.638 C 218.33 32.059 216.038 31.118 215.093 30.632 C 214.757 30.458 213.549 30.188 212.41 30.031 C 211.271 29.875 210.239 29.584 210.116 29.386 C 209.994 29.188 209.288 29.026 208.549 29.026 C 207.809 29.026 207.086 28.836 206.943 28.603 C 206.632 28.1 197.614 28.187 197.614 28.694 M 75.149 172.123 C 75.149 172.317 74.536 172.591 73.786 172.732 C 73.037 172.872 72.363 173.169 72.289 173.39 C 72.216 173.612 71.768 173.822 71.294 173.858 C 70.82 173.893 70.52 174.064 70.628 174.238 C 70.735 174.411 70.499 174.554 70.103 174.555 C 69.438 174.557 68.664 174.888 66.6 176.053 C 66.163 176.3 65.179 176.761 64.414 177.078 C 63.648 177.394 62.44 177.894 61.73 178.188 C 61.019 178.482 60.437 178.858 60.437 179.024 C 60.437 179.189 60.26 179.324 60.042 179.324 C 59.364 179.324 56.461 180.689 56.461 181.008 C 56.461 181.175 56.148 181.313 55.765 181.315 C 55.383 181.316 54.557 181.584 53.931 181.911 C 53.304 182.238 52.544 182.505 52.241 182.505 C 51.938 182.505 51.69 182.684 51.69 182.903 C 51.69 183.121 51.493 183.3 51.253 183.3 C 50.721 183.3 47.99 184.547 47.714 184.916 C 47.604 185.062 47.068 185.307 46.521 185.462 C 40.984 187.027 33.233 192.616 31.623 196.205 C 30.603 198.48 29.94 203.459 30.573 204.092 C 30.816 204.335 31.014 205.123 31.014 205.845 C 31.014 206.567 31.153 207.157 31.324 207.157 C 31.495 207.157 31.981 208.052 32.406 209.145 C 32.83 210.239 33.317 211.133 33.487 211.133 C 33.658 211.133 33.797 211.367 33.797 211.654 C 33.797 212.754 40.558 219.085 41.732 219.085 C 42.179 219.085 42.545 219.264 42.545 219.483 C 42.545 219.702 42.813 219.881 43.141 219.881 C 43.469 219.881 43.738 220.07 43.738 220.302 C 43.738 220.533 43.904 220.62 44.108 220.494 C 44.311 220.368 44.59 220.447 44.728 220.669 C 44.865 220.892 45.325 221.074 45.749 221.074 C 46.174 221.074 46.521 221.232 46.521 221.425 C 46.521 221.618 46.923 221.907 47.416 222.067 C 47.908 222.227 48.4 222.398 48.509 222.446 C 48.618 222.494 49.066 222.671 49.503 222.838 C 51.314 223.531 56.284 226.069 56.555 226.439 C 56.724 226.671 56.849 226.681 56.853 226.461 C 56.856 226.253 57.074 226.298 57.336 226.561 C 57.598 226.823 58.225 227.038 58.728 227.038 C 59.231 227.038 59.642 227.173 59.642 227.338 C 59.642 227.504 60.224 227.882 60.934 228.179 C 61.645 228.476 63.3 229.218 64.612 229.827 C 65.924 230.437 68 231.401 69.225 231.969 C 70.449 232.537 71.657 233.002 71.908 233.002 C 72.16 233.002 72.366 233.139 72.366 233.306 C 72.366 233.621 75.265 234.99 75.933 234.99 C 76.142 234.99 77.115 235.437 78.094 235.984 C 79.073 236.531 80.138 236.978 80.461 236.978 C 80.783 236.978 81.107 237.119 81.18 237.291 C 81.372 237.746 85.649 239.761 86.421 239.761 C 86.782 239.761 87.078 239.896 87.079 240.06 C 87.08 240.224 87.93 240.703 88.968 241.124 C 90.006 241.545 90.944 241.992 91.054 242.118 C 91.465 242.59 94.292 243.738 95.043 243.738 C 95.473 243.738 95.827 243.872 95.83 244.036 C 95.832 244.2 96.593 244.668 97.519 245.075 C 98.446 245.483 100.053 246.243 101.091 246.765 C 102.128 247.287 103.246 247.714 103.576 247.714 C 103.905 247.714 104.175 247.893 104.175 248.111 C 104.175 248.33 104.533 248.509 104.97 248.509 C 105.408 248.509 105.765 248.688 105.765 248.907 C 105.765 249.125 105.989 249.308 106.262 249.313 C 106.536 249.318 107.833 249.851 109.145 250.497 C 110.457 251.143 111.844 251.676 112.227 251.681 C 112.609 251.686 112.922 251.869 112.922 252.087 C 112.922 252.306 113.28 252.485 113.718 252.485 C 114.155 252.485 114.513 252.664 114.513 252.883 C 114.513 253.101 114.691 253.28 114.908 253.28 C 115.55 253.28 118.489 254.637 118.489 254.933 C 118.489 255.083 119.022 255.322 119.673 255.465 C 120.324 255.608 121.711 256.159 122.755 256.688 C 123.798 257.218 124.861 257.651 125.116 257.652 C 125.371 257.653 125.639 257.797 125.712 257.971 C 125.875 258.361 129.155 259.907 130.572 260.263 C 131.143 260.406 131.61 260.683 131.61 260.878 C 131.61 261.073 131.814 261.233 132.063 261.233 C 132.312 261.233 134.008 261.948 135.832 262.823 C 137.657 263.698 139.421 264.414 139.753 264.414 C 140.086 264.414 140.358 264.592 140.358 264.811 C 140.358 265.03 140.716 265.209 141.153 265.209 C 141.59 265.209 141.948 265.388 141.948 265.606 C 141.948 265.825 142.172 266.008 142.445 266.013 C 142.719 266.018 144.016 266.551 145.328 267.197 C 146.64 267.843 148.012 268.376 148.376 268.381 C 148.741 268.386 149.099 268.524 149.172 268.688 C 149.38 269.158 151.745 270.378 152.447 270.378 C 152.796 270.378 153.082 270.514 153.082 270.682 C 153.082 271.096 156.08 272.366 157.06 272.366 C 157.496 272.366 157.853 272.545 157.853 272.763 C 157.853 272.982 158.121 273.161 158.449 273.161 C 158.777 273.161 159.046 273.326 159.046 273.527 C 159.046 273.728 159.627 274.019 160.338 274.173 C 161.049 274.328 161.72 274.565 161.829 274.702 C 162.284 275.271 164.597 276.342 165.369 276.342 C 165.828 276.342 166.203 276.521 166.203 276.74 C 166.203 276.958 166.561 277.137 166.998 277.137 C 167.435 277.137 167.793 277.277 167.793 277.447 C 167.793 277.618 168.688 278.105 169.781 278.529 C 170.875 278.953 171.769 279.44 171.769 279.61 C 171.769 279.781 172.083 279.922 172.465 279.923 C 172.848 279.924 173.674 280.193 174.3 280.519 C 174.926 280.846 175.672 281.113 175.957 281.113 C 176.241 281.113 176.534 281.248 176.607 281.412 C 176.799 281.844 179.289 283.101 179.953 283.101 C 180.263 283.101 180.517 283.28 180.517 283.499 C 180.517 283.718 180.779 283.897 181.1 283.897 C 181.819 283.897 184.643 285.178 184.824 285.586 C 184.897 285.75 185.289 285.885 185.696 285.885 C 186.102 285.885 186.538 286.053 186.666 286.259 C 186.793 286.465 187.698 286.754 188.677 286.901 C 189.656 287.048 190.457 287.326 190.457 287.52 C 190.457 287.714 191.073 287.873 191.825 287.873 C 192.578 287.873 193.282 288.016 193.39 288.191 C 193.89 289 209.244 289.126 210.042 288.328 C 210.292 288.078 211.177 287.873 212.008 287.873 C 212.839 287.873 213.519 287.717 213.519 287.527 C 213.519 287.337 214.1 287.087 214.811 286.971 C 215.522 286.856 217.121 286.296 218.364 285.727 C 219.608 285.157 220.815 284.692 221.048 284.692 C 221.281 284.692 221.471 284.513 221.471 284.294 C 221.471 284.076 221.829 283.897 222.266 283.897 C 222.704 283.897 223.062 283.718 223.062 283.499 C 223.062 283.28 223.324 283.101 223.645 283.101 C 224.363 283.101 227.188 281.82 227.369 281.412 C 227.442 281.248 227.834 281.113 228.24 281.113 C 228.647 281.113 229.091 280.931 229.229 280.709 C 229.366 280.487 229.645 280.408 229.849 280.534 C 230.052 280.66 230.219 280.615 230.219 280.435 C 230.219 280.12 233.074 278.728 233.721 278.728 C 234.295 278.728 236.177 277.739 236.18 277.435 C 236.182 277.271 236.541 277.137 236.978 277.137 C 237.416 277.137 237.773 276.995 237.773 276.822 C 237.773 276.649 238.757 276.172 239.96 275.763 C 241.163 275.354 242.147 274.87 242.147 274.687 C 242.147 274.504 242.433 274.354 242.782 274.354 C 243.399 274.354 245.724 273.213 246.123 272.714 C 246.233 272.577 246.904 272.34 247.614 272.185 C 248.325 272.031 248.907 271.74 248.907 271.539 C 248.907 271.338 249.354 271.173 249.901 271.173 C 250.447 271.173 250.895 270.994 250.895 270.775 C 250.895 270.557 251.1 270.378 251.352 270.378 C 251.782 270.378 253.601 269.595 258.25 267.407 C 259.344 266.893 260.954 266.152 261.829 265.762 C 262.704 265.371 263.509 264.938 263.618 264.799 C 263.728 264.66 264.756 264.213 265.905 263.805 C 267.053 263.397 267.992 262.92 267.992 262.745 C 267.992 262.569 268.32 262.425 268.721 262.425 C 269.122 262.425 269.584 262.291 269.748 262.127 C 269.912 261.963 270.166 261.805 270.311 261.776 C 271.368 261.562 272.366 261.083 272.366 260.789 C 272.366 260.595 272.634 260.437 272.962 260.437 C 273.29 260.437 273.559 260.264 273.559 260.052 C 273.559 259.84 273.809 259.763 274.115 259.881 C 274.421 259.998 274.789 259.903 274.934 259.669 C 275.078 259.436 275.543 259.245 275.968 259.245 C 276.392 259.245 276.74 259.109 276.74 258.944 C 276.74 258.779 277.232 258.433 277.833 258.175 C 278.434 257.917 279.687 257.384 280.616 256.99 C 281.546 256.596 282.306 256.137 282.306 255.97 C 282.306 255.803 282.619 255.665 283.002 255.664 C 283.385 255.662 284.21 255.394 284.837 255.067 C 285.463 254.74 286.224 254.473 286.527 254.473 C 286.83 254.473 287.078 254.308 287.078 254.107 C 287.078 253.906 287.614 253.623 288.27 253.479 C 288.926 253.335 289.463 253.052 289.463 252.851 C 289.463 252.65 289.821 252.485 290.258 252.485 C 290.696 252.485 291.054 252.343 291.054 252.17 C 291.054 251.996 292.038 251.52 293.241 251.111 C 294.443 250.702 295.427 250.218 295.427 250.035 C 295.427 249.852 295.686 249.702 296.002 249.702 C 296.319 249.702 297.961 248.986 299.651 248.111 C 301.341 247.237 303.051 246.521 303.45 246.521 C 303.849 246.521 304.175 246.35 304.175 246.141 C 304.175 245.932 304.801 245.644 305.567 245.501 C 306.332 245.357 306.958 245.081 306.958 244.886 C 306.958 244.692 307.227 244.533 307.555 244.533 C 307.883 244.533 308.151 244.354 308.151 244.135 C 308.151 243.917 308.416 243.738 308.74 243.738 C 309.064 243.738 310.835 243.022 312.676 242.147 C 314.517 241.272 316.221 240.557 316.461 240.557 C 316.702 240.557 316.899 240.398 316.899 240.203 C 316.899 240.009 317.525 239.732 318.29 239.589 C 319.056 239.445 319.682 239.157 319.682 238.948 C 319.682 238.739 319.967 238.569 320.316 238.569 C 320.665 238.569 321.426 238.233 322.006 237.823 C 322.587 237.413 323.643 236.951 324.354 236.797 C 325.065 236.643 325.646 236.353 325.646 236.151 C 325.646 235.95 325.915 235.785 326.243 235.785 C 326.571 235.785 326.839 235.626 326.839 235.432 C 326.839 235.238 327.465 234.961 328.231 234.817 C 328.996 234.674 329.622 234.386 329.622 234.177 C 329.622 233.968 329.98 233.797 330.417 233.797 C 330.855 233.797 331.213 233.634 331.213 233.435 C 331.213 233.235 331.928 232.951 332.803 232.803 C 333.678 232.655 334.394 232.371 334.394 232.172 C 334.394 231.972 334.662 231.809 334.99 231.809 C 335.318 231.809 335.586 231.63 335.586 231.412 C 335.586 231.193 335.856 231.014 336.186 231.014 C 336.515 231.014 337.634 230.588 338.671 230.068 C 340.918 228.94 345.214 226.945 347.018 226.191 C 347.729 225.894 348.31 225.516 348.31 225.35 C 348.31 225.185 348.623 225.049 349.006 225.047 C 349.389 225.046 350.214 224.778 350.841 224.451 C 351.467 224.124 352.228 223.857 352.531 223.857 C 352.834 223.857 353.082 223.678 353.082 223.459 C 353.082 223.241 353.272 223.062 353.504 223.062 C 353.736 223.062 354.854 222.632 355.989 222.107 C 357.123 221.582 358.499 221.021 359.046 220.86 C 359.592 220.7 360.129 220.449 360.239 220.302 C 360.348 220.155 361.243 219.656 362.227 219.193 C 364.412 218.164 365.729 217.153 368.579 214.314 C 371.219 211.685 371.73 210.898 373.304 207.039 C 373.863 205.668 373.904 200.933 373.36 200.596 C 373.141 200.461 372.962 199.914 372.962 199.38 C 372.962 198.846 372.783 198.41 372.565 198.41 C 372.346 198.41 372.166 198.096 372.165 197.714 C 372.162 196.186 366.201 189.264 364.889 189.264 C 364.623 189.264 364.183 188.907 363.909 188.469 C 363.636 188.032 363.191 187.67 362.919 187.665 C 362.648 187.66 361.352 187.127 360.04 186.481 C 358.728 185.835 357.341 185.302 356.958 185.297 C 356.576 185.292 356.262 185.153 356.262 184.988 C 356.262 184.822 355.681 184.441 354.97 184.14 C 354.259 183.839 352.579 183.08 351.235 182.452 C 349.892 181.825 348.505 181.312 348.154 181.312 C 347.802 181.312 347.515 181.133 347.515 180.915 C 347.515 180.696 347.247 180.517 346.918 180.517 C 346.59 180.517 346.322 180.346 346.322 180.137 C 346.322 179.929 345.696 179.64 344.93 179.497 C 344.165 179.353 343.539 179.077 343.539 178.882 C 343.539 178.688 343.382 178.529 343.19 178.529 C 342.998 178.529 342.148 178.227 341.301 177.857 C 340.454 177.488 339.672 177.159 339.563 177.127 C 338.95 176.947 337.746 176.368 337.575 176.172 C 337.08 175.605 335.517 174.946 335.173 175.159 C 334.963 175.289 334.791 175.205 334.791 174.974 C 334.791 174.742 334.523 174.553 334.195 174.553 C 333.867 174.553 333.598 174.412 333.598 174.24 C 333.598 174.068 333.212 173.898 332.74 173.862 C 332.267 173.826 331.775 173.632 331.646 173.43 C 331.517 173.228 330.83 172.936 330.119 172.782 C 329.409 172.628 328.827 172.337 328.827 172.135 C 328.827 171.934 328.38 171.769 327.833 171.769 C 327.286 171.769 326.839 171.934 326.839 172.135 C 326.839 172.337 326.302 172.619 325.646 172.763 C 324.99 172.908 324.453 173.19 324.453 173.391 C 324.453 173.593 323.995 173.757 323.436 173.757 C 322.859 173.757 322.525 173.93 322.664 174.155 C 322.799 174.374 322.524 174.553 322.053 174.553 C 321.178 174.553 318.795 175.704 318.555 176.243 C 318.482 176.407 318.184 176.541 317.892 176.541 C 317.6 176.541 316.471 176.988 315.382 177.535 C 314.294 178.082 313.206 178.529 312.964 178.529 C 312.723 178.529 312.525 178.688 312.525 178.882 C 312.525 179.077 311.899 179.353 311.133 179.497 C 310.368 179.64 309.742 179.885 309.742 180.04 C 309.742 180.196 309.16 180.568 308.449 180.867 C 307.739 181.166 306.638 181.657 306.003 181.958 C 305.368 182.259 304.607 182.505 304.313 182.505 C 304.018 182.505 303.777 182.676 303.777 182.885 C 303.777 183.093 303.151 183.382 302.386 183.525 C 301.62 183.669 300.994 183.945 300.994 184.14 C 300.994 184.334 300.726 184.493 300.398 184.493 C 300.07 184.493 299.801 184.658 299.801 184.859 C 299.801 185.06 299.22 185.344 298.509 185.489 C 296.893 185.819 295.03 186.592 295.03 186.933 C 295.03 187.206 293.048 187.849 292.545 187.739 C 292.381 187.703 292.247 187.853 292.247 188.072 C 292.247 188.29 291.978 188.469 291.65 188.469 C 291.322 188.469 291.054 188.64 291.054 188.849 C 291.054 189.058 290.427 189.346 289.662 189.489 C 288.897 189.633 288.27 189.91 288.27 190.104 C 288.27 190.298 288.007 190.457 287.686 190.457 C 287.365 190.457 286.469 190.813 285.695 191.247 C 284.921 191.682 284.204 192.055 284.102 192.077 C 282.892 192.336 282.306 192.596 282.306 192.871 C 282.306 193.055 281.68 193.322 280.915 193.466 C 280.149 193.609 279.523 193.886 279.523 194.08 C 279.523 194.274 279.165 194.433 278.728 194.433 C 278.29 194.433 277.932 194.612 277.932 194.831 C 277.932 195.05 277.61 195.229 277.217 195.229 C 276.823 195.229 276.286 195.443 276.024 195.706 C 275.761 195.968 275.544 196.013 275.541 195.805 C 275.537 195.587 275.411 195.598 275.242 195.829 C 274.907 196.29 269.518 198.905 264.911 200.843 C 264.2 201.142 263.618 201.522 263.618 201.688 C 263.618 201.853 263.305 201.992 262.922 201.997 C 262.54 202.002 261.153 202.535 259.841 203.181 C 258.529 203.827 257.232 204.36 256.958 204.365 C 256.685 204.37 256.461 204.553 256.461 204.771 C 256.461 204.99 256.103 205.169 255.666 205.169 C 255.229 205.169 254.871 205.326 254.871 205.517 C 254.871 205.841 252.651 206.533 251.988 206.415 C 251.824 206.386 251.69 206.541 251.69 206.759 C 251.69 206.978 251.421 207.157 251.093 207.157 C 250.765 207.157 250.497 207.336 250.497 207.555 C 250.497 207.773 250.212 207.952 249.863 207.952 C 249.161 207.952 246.796 209.172 246.587 209.642 C 246.514 209.806 246.156 209.941 245.792 209.943 C 245.427 209.944 244.617 210.213 243.99 210.539 C 243.364 210.866 242.604 211.133 242.3 211.133 C 241.997 211.133 241.75 211.292 241.75 211.487 C 241.75 211.681 241.123 211.957 240.358 212.101 C 239.592 212.245 238.966 212.533 238.966 212.742 C 238.966 212.95 238.698 213.121 238.37 213.121 C 238.042 213.121 237.773 213.279 237.773 213.473 C 237.773 213.666 237.371 213.916 236.879 214.029 C 235.693 214.3 233.252 215.249 233.002 215.536 C 232.755 215.819 231.451 216.312 231.27 216.192 C 231.196 216.143 230.885 216.308 230.578 216.558 C 228.955 217.88 225.163 219.417 224.155 219.161 C 223.991 219.12 223.857 219.264 223.857 219.483 C 223.857 219.702 223.499 219.881 223.062 219.881 C 222.624 219.881 222.266 220.044 222.266 220.243 C 222.266 220.443 221.513 220.733 220.592 220.889 C 219.671 221.045 218.642 221.307 218.306 221.472 C 216.831 222.194 214.53 222.726 211.938 222.943 C 210.402 223.072 209.145 223.33 209.145 223.517 C 209.145 223.982 197.479 223.949 196.341 223.481 C 195.838 223.275 194.04 222.991 192.344 222.851 C 190.645 222.71 189.361 222.432 189.484 222.232 C 189.608 222.032 189.083 221.869 188.317 221.869 C 187.552 221.869 186.828 221.711 186.709 221.518 C 186.589 221.325 185.505 221.043 184.299 220.893 C 183.094 220.742 182.107 220.453 182.107 220.25 C 182.107 220.047 181.66 219.881 181.113 219.881 C 180.567 219.881 180.119 219.702 180.119 219.483 C 180.119 219.264 179.765 219.085 179.332 219.085 C 178.492 219.085 175.282 217.919 174.95 217.493 C 174.785 217.281 173.805 216.792 172.962 216.501 C 172.179 216.231 171.14 215.726 170.974 215.536 C 170.724 215.249 168.283 214.3 167.097 214.029 C 166.605 213.916 166.203 213.666 166.203 213.473 C 166.203 213.279 165.934 213.121 165.606 213.121 C 165.278 213.121 165.01 212.962 165.01 212.768 C 165.01 212.574 164.384 212.297 163.618 212.153 C 162.853 212.01 162.227 211.722 162.227 211.513 C 162.227 211.304 161.973 211.133 161.662 211.133 C 161.352 211.133 160.592 210.873 159.973 210.554 C 159.353 210.235 158.265 209.744 157.555 209.463 C 156.844 209.181 156.262 208.824 156.262 208.668 C 156.262 208.513 155.636 208.268 154.871 208.125 C 154.105 207.981 153.479 207.705 153.479 207.51 C 153.479 207.316 153.211 207.157 152.883 207.157 C 152.555 207.157 152.286 206.948 152.286 206.693 C 152.286 206.438 152.19 206.325 152.073 206.443 C 151.956 206.56 151.195 206.404 150.383 206.097 C 149.571 205.79 148.593 205.434 148.211 205.307 C 147.828 205.18 147.515 204.926 147.515 204.743 C 147.515 204.56 146.889 204.292 146.123 204.149 C 145.358 204.005 144.732 203.772 144.732 203.631 C 144.732 203.322 142.959 202.53 141.451 202.166 C 140.85 202.021 140.358 201.742 140.358 201.547 C 140.358 201.352 140 201.193 139.563 201.193 C 139.125 201.193 138.767 201.014 138.767 200.795 C 138.767 200.577 138.59 200.398 138.373 200.398 C 137.694 200.398 134.791 199.033 134.791 198.713 C 134.791 198.546 134.528 198.41 134.206 198.41 C 133.544 198.41 129.134 196.416 128.823 195.976 C 128.712 195.818 128.085 195.56 127.431 195.401 C 126.778 195.242 125.795 194.803 125.249 194.425 C 124.702 194.047 123.673 193.611 122.962 193.457 C 122.251 193.303 121.67 193.013 121.67 192.811 C 121.67 192.61 121.502 192.445 121.296 192.445 C 121.09 192.445 119.38 191.73 117.495 190.855 C 115.61 189.98 113.81 189.264 113.495 189.264 C 113.18 189.264 112.922 189.085 112.922 188.867 C 112.922 188.648 112.654 188.469 112.326 188.469 C 111.998 188.469 111.73 188.31 111.73 188.116 C 111.73 187.921 111.103 187.645 110.338 187.501 C 109.573 187.358 108.946 187.069 108.946 186.861 C 108.946 186.652 108.698 186.481 108.395 186.481 C 108.092 186.481 107.332 186.214 106.705 185.887 C 106.079 185.56 105.253 185.292 104.871 185.291 C 104.488 185.289 104.175 185.152 104.175 184.984 C 104.175 184.665 101.273 183.3 100.594 183.3 C 100.377 183.3 100.199 183.121 100.199 182.903 C 100.199 182.684 99.751 182.505 99.205 182.505 C 98.658 182.505 98.211 182.334 98.211 182.125 C 98.211 181.917 97.584 181.628 96.819 181.485 C 96.054 181.341 95.427 181.065 95.427 180.87 C 95.427 180.676 95.159 180.517 94.831 180.517 C 94.503 180.517 94.235 180.346 94.235 180.137 C 94.235 179.929 93.608 179.64 92.843 179.497 C 92.078 179.353 91.451 179.077 91.451 178.882 C 91.451 178.688 91.189 178.529 90.869 178.529 C 90.549 178.529 89.485 178.082 88.506 177.535 C 87.527 176.988 86.447 176.541 86.106 176.541 C 85.766 176.541 85.487 176.404 85.487 176.237 C 85.487 175.862 82.53 174.553 81.684 174.553 C 81.344 174.553 81.177 174.374 81.312 174.155 C 81.452 173.93 81.117 173.757 80.54 173.757 C 79.981 173.757 79.523 173.593 79.523 173.391 C 79.523 173.19 78.988 172.908 78.335 172.764 C 77.681 172.621 77.044 172.338 76.919 172.136 C 76.629 171.667 75.149 171.655 75.149 172.123" stroke-linecap="round"/>
</g>
<g transform="matrix(1 0 0 1 539.89 654.1)" id="path1">
<path style="stroke: none; stroke-width: 1; stroke-dasharray: none; stroke-linecap: butt; stroke-dashoffset: 0; stroke-linejoin: miter; stroke-miterlimit: 4; fill: rgb(52,76,108); fill-rule: evenodd; opacity: 1;" vector-effect="non-scaling-stroke" transform=" translate(-202.04, -315.01)" d="M 75.149 256.859 C 75.149 257.078 74.825 257.256 74.43 257.256 C 74.034 257.256 73.363 257.519 72.939 257.84 C 72.514 258.161 71.764 258.43 71.272 258.437 C 70.78 258.444 70.378 258.628 70.378 258.847 C 70.378 259.066 70.109 259.245 69.781 259.245 C 69.453 259.245 69.185 259.404 69.185 259.598 C 69.185 259.792 68.559 260.069 67.793 260.212 C 67.028 260.356 66.402 260.602 66.402 260.759 C 66.402 261.067 63.477 262.425 62.815 262.425 C 62.376 262.425 60.753 263.273 60.437 263.668 C 60.328 263.804 59.657 264.042 58.946 264.196 C 58.236 264.351 57.654 264.641 57.654 264.843 C 57.654 265.044 57.386 265.209 57.058 265.209 C 56.73 265.209 56.461 265.388 56.461 265.606 C 56.461 265.825 56.148 266.005 55.765 266.006 C 55.383 266.008 54.557 266.276 53.931 266.603 C 53.304 266.93 52.544 267.197 52.241 267.197 C 51.938 267.197 51.69 267.368 51.69 267.576 C 51.69 267.785 51.064 268.073 50.298 268.217 C 49.533 268.361 48.907 268.637 48.907 268.832 C 48.907 269.026 48.638 269.185 48.31 269.185 C 47.982 269.185 47.714 269.356 47.714 269.564 C 47.714 269.773 47.087 270.062 46.322 270.205 C 45.557 270.349 44.93 270.625 44.93 270.82 C 44.93 271.014 44.483 271.173 43.936 271.173 C 43.39 271.173 42.942 271.352 42.942 271.571 C 42.942 271.789 42.765 271.968 42.547 271.968 C 41.868 271.968 38.966 273.333 38.966 273.652 C 38.966 273.82 38.706 273.956 38.389 273.956 C 37.77 273.956 33.797 277.734 33.797 278.322 C 33.797 278.516 33.473 278.777 33.077 278.903 C 32.28 279.155 31.014 281.693 31.014 283.036 C 31.014 283.509 30.835 283.897 30.616 283.897 C 30.392 283.897 30.219 285.023 30.219 286.481 C 30.219 287.939 30.392 289.066 30.616 289.066 C 30.835 289.066 31.014 289.692 31.014 290.457 C 31.014 291.223 31.17 291.849 31.361 291.849 C 31.551 291.849 31.815 292.522 31.947 293.344 C 32.08 294.177 32.542 295.096 32.991 295.42 C 33.435 295.739 33.797 296.223 33.797 296.496 C 33.797 297.237 40.362 303.777 41.106 303.777 C 41.46 303.777 41.75 303.913 41.75 304.078 C 41.75 304.469 43.595 305.28 45.232 305.607 C 45.941 305.749 46.521 306.021 46.521 306.213 C 46.521 306.404 46.789 306.561 47.117 306.561 C 47.445 306.561 47.714 306.731 47.714 306.94 C 47.714 307.149 48.34 307.437 49.105 307.581 C 49.871 307.724 50.497 307.957 50.497 308.098 C 50.497 308.408 52.27 309.199 53.777 309.564 C 54.379 309.709 54.871 309.987 54.871 310.182 C 54.871 310.377 55.229 310.537 55.666 310.537 C 56.103 310.537 56.461 310.701 56.461 310.903 C 56.461 311.104 56.998 311.387 57.654 311.531 C 58.31 311.675 58.847 311.958 58.847 312.159 C 58.847 312.36 59.205 312.525 59.642 312.525 C 60.08 312.525 60.437 312.681 60.437 312.872 C 60.437 313.062 61.153 313.333 62.028 313.473 C 62.903 313.613 63.618 313.862 63.618 314.026 C 63.618 314.342 66.526 315.706 67.2 315.706 C 67.417 315.706 67.594 315.885 67.594 316.103 C 67.594 316.322 67.952 316.501 68.39 316.501 C 68.827 316.501 69.185 316.657 69.185 316.848 C 69.185 317.039 69.901 317.309 70.775 317.449 C 71.65 317.589 72.366 317.88 72.366 318.096 C 72.366 318.312 72.634 318.489 72.962 318.489 C 73.29 318.489 73.559 318.668 73.559 318.887 C 73.559 319.105 73.917 319.284 74.354 319.284 C 74.791 319.284 75.149 319.463 75.149 319.682 C 75.149 319.901 75.346 320.08 75.586 320.08 C 75.826 320.08 76.632 320.348 77.375 320.676 C 78.119 321.004 79.336 321.541 80.08 321.869 C 80.824 322.197 81.629 322.465 81.869 322.465 C 82.11 322.465 82.306 322.602 82.306 322.769 C 82.306 323.088 85.208 324.453 85.887 324.453 C 86.105 324.453 86.282 324.632 86.282 324.851 C 86.282 325.07 86.73 325.249 87.276 325.249 C 87.823 325.249 88.27 325.408 88.27 325.602 C 88.27 325.796 88.897 326.073 89.662 326.216 C 90.427 326.36 91.054 326.648 91.054 326.857 C 91.054 327.066 91.322 327.237 91.65 327.237 C 91.978 327.237 92.247 327.396 92.247 327.59 C 92.247 327.784 92.873 328.061 93.638 328.204 C 94.404 328.348 95.03 328.636 95.03 328.845 C 95.03 329.054 95.477 329.225 96.024 329.225 C 96.571 329.225 97.018 329.395 97.018 329.604 C 97.018 329.813 97.644 330.101 98.41 330.245 C 99.175 330.389 99.801 330.665 99.801 330.859 C 99.801 331.054 100.07 331.213 100.398 331.213 C 100.726 331.213 100.994 331.384 100.994 331.592 C 100.994 331.801 101.62 332.089 102.386 332.233 C 103.151 332.377 103.777 332.653 103.777 332.847 C 103.777 333.042 104.225 333.201 104.771 333.201 C 105.318 333.201 105.765 333.366 105.765 333.567 C 105.765 333.768 106.302 334.051 106.958 334.195 C 107.614 334.339 108.151 334.622 108.151 334.823 C 108.151 335.024 108.509 335.189 108.946 335.189 C 109.384 335.189 109.742 335.36 109.742 335.568 C 109.742 335.777 110.368 336.066 111.133 336.209 C 111.899 336.353 112.525 336.629 112.525 336.824 C 112.525 337.018 112.972 337.177 113.519 337.177 C 114.066 337.177 114.513 337.356 114.513 337.575 C 114.513 337.793 114.781 337.972 115.109 337.972 C 115.437 337.972 115.706 338.137 115.706 338.338 C 115.706 338.54 116.287 338.83 116.998 338.985 C 117.709 339.139 118.38 339.377 118.489 339.513 C 118.945 340.082 121.257 341.153 122.03 341.153 C 122.488 341.153 122.863 341.332 122.863 341.551 C 122.863 341.769 123.221 341.948 123.658 341.948 C 124.095 341.948 124.453 342.113 124.453 342.314 C 124.453 342.516 124.99 342.798 125.646 342.942 C 126.302 343.086 126.839 343.369 126.839 343.57 C 126.839 343.772 127.197 343.936 127.634 343.936 C 128.072 343.936 128.429 344.107 128.429 344.316 C 128.429 344.525 129.058 344.813 129.825 344.957 C 130.593 345.102 131.32 345.378 131.439 345.572 C 131.559 345.766 132.005 345.924 132.429 345.924 C 132.854 345.924 133.201 346.089 133.201 346.29 C 133.201 346.492 133.738 346.774 134.394 346.918 C 135.05 347.063 135.586 347.345 135.586 347.547 C 135.586 347.748 135.944 347.913 136.382 347.913 C 136.819 347.913 137.177 348.072 137.177 348.267 C 137.177 348.462 137.669 348.74 138.27 348.886 C 139.778 349.25 141.551 350.042 141.551 350.351 C 141.551 350.492 142.177 350.725 142.942 350.868 C 143.708 351.012 144.334 351.258 144.334 351.415 C 144.334 351.771 147.307 353.082 148.114 353.082 C 148.441 353.082 148.708 353.26 148.708 353.479 C 148.708 353.698 149.066 353.877 149.503 353.877 C 149.94 353.877 150.298 354.048 150.298 354.256 C 150.298 354.465 150.924 354.753 151.69 354.897 C 152.455 355.041 153.082 355.317 153.082 355.511 C 153.082 355.706 153.35 355.865 153.678 355.865 C 154.006 355.865 154.274 356.044 154.274 356.262 C 154.274 356.481 154.587 356.661 154.97 356.662 C 155.353 356.664 156.179 356.932 156.805 357.259 C 157.431 357.586 158.192 357.853 158.495 357.853 C 158.798 357.853 159.046 357.99 159.046 358.157 C 159.046 358.467 161.94 359.841 162.594 359.841 C 162.793 359.841 163.015 359.975 163.088 360.139 C 163.294 360.603 166.14 361.829 167.012 361.829 C 167.441 361.829 167.793 362.008 167.793 362.227 C 167.793 362.445 168.062 362.624 168.39 362.624 C 168.718 362.624 168.986 362.789 168.986 362.99 C 168.986 363.192 169.568 363.482 170.278 363.637 C 170.989 363.791 171.66 364.038 171.769 364.186 C 172.021 364.527 174.753 365.805 175.229 365.805 C 175.818 365.805 177.727 366.778 177.73 367.079 C 177.732 367.234 178.36 367.477 179.125 367.621 C 179.891 367.764 180.517 368.041 180.517 368.235 C 180.517 368.429 180.785 368.588 181.113 368.588 C 181.441 368.588 181.71 368.752 181.71 368.951 C 181.71 369.151 182.425 369.435 183.3 369.583 C 184.175 369.73 184.891 370.014 184.891 370.214 C 184.891 370.413 185.249 370.577 185.686 370.577 C 186.123 370.577 186.481 370.74 186.481 370.939 C 186.481 371.139 187.197 371.423 188.072 371.571 C 188.946 371.718 189.662 372.002 189.662 372.202 C 189.662 372.401 190.094 372.565 190.623 372.565 C 191.151 372.565 191.658 372.788 191.749 373.062 C 191.876 373.441 194.204 373.559 201.59 373.559 C 208.977 373.559 211.305 373.441 211.431 373.062 C 211.522 372.788 212.029 372.565 212.558 372.565 C 213.086 372.565 213.519 372.402 213.519 372.204 C 213.519 372.006 214.414 371.721 215.507 371.571 C 216.6 371.42 217.495 371.135 217.495 370.937 C 217.495 370.739 217.853 370.577 218.29 370.577 C 218.728 370.577 219.085 370.42 219.085 370.23 C 219.085 370.039 219.801 369.769 220.676 369.629 C 221.551 369.489 222.266 369.24 222.266 369.075 C 222.266 368.759 225.174 367.396 225.848 367.396 C 226.065 367.396 226.243 367.217 226.243 366.998 C 226.243 366.779 226.6 366.6 227.038 366.6 C 227.475 366.6 227.833 366.437 227.833 366.238 C 227.833 366.038 228.549 365.754 229.423 365.606 C 230.298 365.459 231.014 365.174 231.014 364.975 C 231.014 364.776 231.282 364.612 231.61 364.612 C 231.938 364.612 232.207 364.453 232.207 364.259 C 232.207 364.065 232.833 363.788 233.598 363.645 C 234.364 363.501 234.99 363.213 234.99 363.004 C 234.99 362.795 235.258 362.624 235.586 362.624 C 235.915 362.624 236.184 362.49 236.186 362.326 C 236.188 362.162 237.262 361.694 238.572 361.285 C 239.882 360.877 240.954 360.393 240.954 360.21 C 240.954 360.027 241.581 359.76 242.346 359.616 C 243.111 359.472 243.738 359.196 243.738 359.001 C 243.738 358.807 244.006 358.648 244.334 358.648 C 244.662 358.648 244.93 358.469 244.93 358.25 C 244.93 358.032 245.378 357.853 245.924 357.853 C 246.471 357.853 246.918 357.682 246.918 357.473 C 246.918 357.265 247.545 356.976 248.31 356.833 C 249.076 356.689 249.702 356.413 249.702 356.218 C 249.702 356.024 249.97 355.865 250.298 355.865 C 250.626 355.865 250.895 355.706 250.895 355.511 C 250.895 355.317 251.521 355.041 252.286 354.897 C 253.052 354.753 253.678 354.465 253.678 354.256 C 253.678 354.048 253.946 353.877 254.274 353.877 C 254.602 353.877 254.871 353.72 254.871 353.529 C 254.871 353.337 255.451 353.065 256.16 352.923 C 257.766 352.602 259.642 351.788 259.642 351.412 C 259.642 351.257 260.268 351.012 261.034 350.868 C 261.799 350.725 262.425 350.448 262.425 350.254 C 262.425 350.06 262.694 349.901 263.022 349.901 C 263.35 349.901 263.618 349.73 263.618 349.521 C 263.618 349.312 264.247 349.024 265.014 348.88 C 265.782 348.735 266.508 348.459 266.628 348.265 C 266.748 348.071 267.193 347.913 267.618 347.913 C 268.042 347.913 268.39 347.734 268.39 347.515 C 268.39 347.296 268.567 347.117 268.785 347.117 C 269.442 347.117 272.366 345.757 272.366 345.451 C 272.366 345.294 272.994 345.047 273.762 344.903 C 274.53 344.759 275.256 344.483 275.376 344.289 C 275.496 344.095 275.941 343.936 276.365 343.936 C 276.79 343.936 277.137 343.772 277.137 343.57 C 277.137 343.369 277.674 343.086 278.33 342.942 C 278.986 342.798 279.523 342.516 279.523 342.314 C 279.523 342.113 279.881 341.948 280.318 341.948 C 280.755 341.948 281.113 341.806 281.113 341.633 C 281.113 341.46 282.097 340.983 283.3 340.574 C 284.503 340.166 285.487 339.701 285.487 339.542 C 285.487 339.383 286.113 339.136 286.879 338.992 C 287.644 338.849 288.27 338.561 288.27 338.352 C 288.27 338.143 288.628 337.972 289.066 337.972 C 289.503 337.972 289.861 337.793 289.861 337.575 C 289.861 337.356 290.219 337.177 290.656 337.177 C 291.093 337.177 291.451 337.018 291.451 336.824 C 291.451 336.629 292.078 336.353 292.843 336.209 C 293.608 336.066 294.235 335.777 294.235 335.568 C 294.235 335.36 294.592 335.189 295.03 335.189 C 295.467 335.189 295.825 335.029 295.825 334.834 C 295.825 334.639 296.317 334.361 296.918 334.216 C 298.426 333.851 300.199 333.06 300.199 332.75 C 300.199 332.609 300.825 332.377 301.59 332.233 C 302.356 332.089 302.982 331.801 302.982 331.592 C 302.982 331.384 303.25 331.213 303.579 331.213 C 303.907 331.213 304.175 331.054 304.175 330.859 C 304.175 330.665 304.801 330.389 305.567 330.245 C 306.332 330.101 306.958 329.813 306.958 329.604 C 306.958 329.395 307.227 329.225 307.555 329.225 C 307.883 329.225 308.151 329.046 308.151 328.827 C 308.151 328.608 308.527 328.429 308.986 328.429 C 309.828 328.429 312.555 327.308 312.922 326.81 C 313.032 326.662 313.703 326.415 314.414 326.261 C 315.124 326.107 315.706 325.816 315.706 325.615 C 315.706 325.413 315.974 325.249 316.302 325.249 C 316.63 325.249 316.899 325.07 316.899 324.851 C 316.899 324.632 317.255 324.453 317.691 324.453 C 318.671 324.453 321.67 323.184 321.67 322.769 C 321.67 322.602 321.894 322.464 322.167 322.464 C 322.44 322.463 323.518 322.029 324.561 321.499 C 325.605 320.97 326.992 320.419 327.643 320.276 C 328.294 320.133 328.827 319.852 328.827 319.65 C 328.827 319.449 329.185 319.284 329.622 319.284 C 330.06 319.284 330.417 319.105 330.417 318.887 C 330.417 318.668 330.686 318.489 331.014 318.489 C 331.342 318.489 331.61 318.318 331.61 318.109 C 331.61 317.901 332.239 317.612 333.006 317.468 C 333.774 317.324 334.5 317.047 334.62 316.854 C 334.74 316.66 335.185 316.501 335.61 316.501 C 336.034 316.501 336.382 316.322 336.382 316.103 C 336.382 315.885 336.559 315.706 336.777 315.706 C 337.435 315.706 340.358 314.346 340.358 314.04 C 340.358 313.882 340.984 313.636 341.75 313.493 C 342.515 313.349 343.141 313.073 343.141 312.878 C 343.141 312.684 343.488 312.525 343.913 312.525 C 344.337 312.525 344.787 312.36 344.912 312.158 C 345.036 311.956 345.673 311.673 346.327 311.53 C 346.98 311.386 347.515 311.104 347.515 310.903 C 347.515 310.701 347.873 310.537 348.31 310.537 C 348.748 310.537 349.105 310.372 349.105 310.171 C 349.105 309.969 349.642 309.687 350.298 309.543 C 350.954 309.399 351.491 309.116 351.491 308.915 C 351.491 308.713 351.938 308.549 352.485 308.549 C 353.032 308.549 353.479 308.39 353.479 308.195 C 353.479 308.001 354.105 307.724 354.871 307.581 C 355.636 307.437 356.262 307.149 356.262 306.94 C 356.262 306.731 356.62 306.561 357.058 306.561 C 357.495 306.561 357.853 306.396 357.853 306.195 C 357.853 305.993 358.39 305.711 359.046 305.567 C 359.702 305.423 360.239 305.14 360.239 304.939 C 360.239 304.737 360.586 304.573 361.01 304.573 C 361.435 304.573 361.893 304.394 362.028 304.175 C 362.163 303.956 362.612 303.777 363.026 303.777 C 363.439 303.777 363.921 303.537 364.096 303.244 C 364.27 302.95 364.95 302.368 365.606 301.951 C 366.262 301.534 367.56 300.388 368.489 299.404 C 369.418 298.419 370.517 297.256 370.931 296.819 C 371.344 296.382 371.815 295.577 371.978 295.03 C 372.141 294.483 372.384 293.946 372.519 293.837 C 373.669 292.902 374.42 285.089 373.36 285.089 C 373.141 285.089 372.962 284.642 372.962 284.095 C 372.962 283.549 372.798 283.101 372.596 283.101 C 372.395 283.101 372.112 282.565 371.968 281.909 C 371.824 281.252 371.541 280.716 371.34 280.716 C 371.139 280.716 370.974 280.479 370.974 280.19 C 370.974 279.463 365.674 273.956 364.974 273.956 C 364.662 273.956 364.184 273.6 363.912 273.166 C 363.616 272.691 362.783 272.273 361.829 272.121 C 360.954 271.981 360.239 271.71 360.239 271.52 C 360.239 271.329 359.97 271.173 359.642 271.173 C 359.314 271.173 359.046 271.008 359.046 270.807 C 359.046 270.606 358.464 270.315 357.753 270.161 C 357.043 270.006 356.372 269.759 356.262 269.611 C 355.895 269.114 353.168 267.992 352.326 267.992 C 351.867 267.992 351.491 267.813 351.491 267.594 C 351.491 267.376 351.223 267.197 350.895 267.197 C 350.567 267.197 350.298 267.026 350.298 266.817 C 350.298 266.608 349.672 266.32 348.907 266.177 C 348.141 266.033 347.515 265.756 347.515 265.562 C 347.515 265.368 347.247 265.209 346.918 265.209 C 346.59 265.209 346.322 265.032 346.322 264.816 C 346.322 264.6 345.606 264.308 344.732 264.169 C 343.857 264.029 343.141 263.758 343.141 263.567 C 343.141 263.377 342.783 263.221 342.346 263.221 C 341.909 263.221 341.551 263.056 341.551 262.855 C 341.551 262.653 341.014 262.371 340.358 262.227 C 339.702 262.083 339.165 261.8 339.165 261.599 C 339.165 261.397 338.807 261.233 338.37 261.233 C 337.932 261.233 337.575 261.056 337.575 260.84 C 337.575 260.624 336.859 260.332 335.984 260.192 C 335.109 260.053 334.394 259.782 334.394 259.591 C 334.394 259.401 334.051 259.245 333.632 259.245 C 333.212 259.245 332.81 259.11 332.737 258.946 C 332.528 258.477 330.163 257.256 329.462 257.256 C 329.113 257.256 328.827 257.078 328.827 256.859 C 328.827 256.64 328.38 256.461 327.833 256.461 C 327.286 256.461 326.839 256.603 326.839 256.777 C 326.839 256.95 325.855 257.426 324.652 257.835 C 323.449 258.244 322.465 258.728 322.465 258.911 C 322.465 259.095 322.107 259.245 321.67 259.245 C 321.233 259.245 320.875 259.409 320.875 259.611 C 320.875 259.812 320.338 260.094 319.682 260.239 C 319.026 260.383 318.489 260.665 318.489 260.867 C 318.489 261.068 318.142 261.233 317.717 261.233 C 317.293 261.233 316.847 261.391 316.728 261.585 C 316.608 261.779 315.882 262.056 315.114 262.2 C 314.346 262.344 313.718 262.632 313.718 262.841 C 313.718 263.05 313.449 263.221 313.121 263.221 C 312.793 263.221 312.525 263.38 312.525 263.574 C 312.525 263.768 311.899 264.045 311.133 264.188 C 310.368 264.332 309.742 264.62 309.742 264.829 C 309.742 265.038 309.384 265.209 308.946 265.209 C 308.509 265.209 308.151 265.372 308.151 265.571 C 308.151 265.771 307.435 266.055 306.561 266.203 C 305.686 266.351 304.97 266.635 304.97 266.834 C 304.97 267.034 304.702 267.197 304.374 267.197 C 304.046 267.197 303.777 267.356 303.777 267.55 C 303.777 267.745 303.151 268.021 302.386 268.165 C 301.62 268.308 300.993 268.552 300.991 268.706 C 300.988 268.996 299.088 269.98 298.532 269.98 C 297.933 269.98 295.03 271.361 295.03 271.646 C 295.03 271.804 294.404 272.05 293.638 272.193 C 292.873 272.337 292.247 272.57 292.247 272.711 C 292.247 273.02 290.474 273.812 288.966 274.176 C 288.365 274.321 287.873 274.6 287.873 274.795 C 287.873 274.99 287.515 275.149 287.078 275.149 C 286.64 275.149 286.282 275.307 286.282 275.5 C 286.282 275.694 285.88 275.983 285.388 276.143 C 284.896 276.303 284.404 276.482 284.294 276.541 C 284.185 276.6 283.693 276.779 283.201 276.939 C 282.709 277.099 282.306 277.388 282.306 277.581 C 282.306 277.774 281.859 277.932 281.312 277.932 C 280.765 277.932 280.318 278.103 280.318 278.312 C 280.318 278.521 279.692 278.809 278.926 278.953 C 278.161 279.096 277.535 279.373 277.535 279.567 C 277.535 279.761 277.266 279.92 276.938 279.92 C 276.61 279.92 276.342 280.091 276.342 280.3 C 276.342 280.509 275.714 280.798 274.946 280.942 C 274.178 281.086 273.452 281.362 273.332 281.556 C 273.212 281.75 272.767 281.909 272.342 281.909 C 271.918 281.909 271.571 282.073 271.571 282.275 C 271.571 282.476 271.034 282.758 270.378 282.903 C 269.722 283.047 269.185 283.329 269.185 283.531 C 269.185 283.732 268.827 283.897 268.39 283.897 C 267.952 283.897 267.594 284.061 267.594 284.263 C 267.594 284.464 267.062 284.746 266.41 284.889 C 265.759 285.032 264.372 285.582 263.329 286.111 C 262.285 286.641 261.208 287.075 260.934 287.076 C 260.661 287.077 260.437 287.256 260.437 287.475 C 260.437 287.694 260.08 287.873 259.642 287.873 C 259.205 287.873 258.847 288.015 258.847 288.188 C 258.847 288.361 257.863 288.838 256.66 289.247 C 255.457 289.655 254.473 290.12 254.473 290.279 C 254.473 290.438 253.847 290.685 253.082 290.829 C 252.316 290.972 251.69 291.261 251.69 291.469 C 251.69 291.678 251.421 291.849 251.093 291.849 C 250.765 291.849 250.497 292.028 250.497 292.247 C 250.497 292.465 250.184 292.645 249.801 292.647 C 249.418 292.648 248.593 292.916 247.966 293.243 C 247.34 293.57 246.58 293.837 246.277 293.837 C 245.974 293.837 245.726 294.016 245.726 294.235 C 245.726 294.453 245.529 294.632 245.289 294.632 C 244.811 294.632 242.07 295.848 241.75 296.202 C 241.494 296.484 239.035 297.435 237.873 297.701 C 237.381 297.814 236.978 298.064 236.978 298.257 C 236.978 298.45 236.71 298.608 236.382 298.608 C 236.054 298.608 235.785 298.767 235.785 298.962 C 235.785 299.156 235.159 299.433 234.394 299.576 C 233.628 299.72 233.002 300.008 233.002 300.217 C 233.002 300.426 232.734 300.596 232.406 300.596 C 232.078 300.596 231.809 300.775 231.809 300.994 C 231.809 301.213 231.453 301.392 231.017 301.392 C 230.059 301.392 227.038 302.657 227.038 303.058 C 227.038 303.215 226.41 303.462 225.642 303.606 C 224.874 303.75 224.148 304.026 224.028 304.22 C 223.908 304.414 223.463 304.573 223.038 304.573 C 222.614 304.573 222.266 304.737 222.266 304.938 C 222.266 305.268 220.369 305.851 217.396 306.436 C 216.794 306.554 216.302 306.797 216.302 306.976 C 216.302 307.155 214.867 307.426 213.113 307.579 C 211.358 307.732 209.827 308.013 209.709 308.203 C 209.432 308.652 195.626 308.656 195.626 308.208 C 195.626 308.021 194.15 307.745 192.346 307.596 C 190.542 307.446 189.006 307.152 188.933 306.942 C 188.86 306.732 188.289 306.561 187.664 306.561 C 187.039 306.561 186.432 306.405 186.315 306.215 C 186.197 306.025 185.374 305.754 184.484 305.611 C 183.595 305.469 182.518 305.177 182.09 304.963 C 181.662 304.748 180.976 304.406 180.566 304.202 C 180.155 303.998 179.171 303.71 178.379 303.561 C 177.587 303.413 176.938 303.132 176.938 302.938 C 176.938 302.744 176.491 302.584 175.944 302.584 C 175.398 302.584 174.95 302.414 174.95 302.205 C 174.95 301.996 174.324 301.708 173.559 301.564 C 172.793 301.421 172.167 301.144 172.167 300.95 C 172.167 300.755 171.899 300.596 171.571 300.596 C 171.243 300.596 170.974 300.426 170.974 300.217 C 170.974 300.008 170.348 299.72 169.583 299.576 C 168.817 299.433 168.191 299.156 168.191 298.962 C 168.191 298.767 167.758 298.608 167.23 298.608 C 166.701 298.608 166.209 298.474 166.137 298.31 C 165.928 297.84 163.563 296.62 162.861 296.62 C 162.512 296.62 162.227 296.484 162.227 296.316 C 162.227 295.947 159.275 294.632 158.447 294.632 C 158.12 294.632 157.853 294.453 157.853 294.235 C 157.853 294.016 157.495 293.837 157.058 293.837 C 156.62 293.837 156.262 293.666 156.262 293.457 C 156.262 293.249 155.636 292.96 154.871 292.817 C 154.105 292.673 153.479 292.397 153.479 292.202 C 153.479 292.008 153.211 291.849 152.883 291.849 C 152.555 291.849 152.286 291.672 152.286 291.456 C 152.286 291.24 151.571 290.949 150.696 290.809 C 149.821 290.669 149.105 290.398 149.105 290.208 C 149.105 290.017 148.748 289.861 148.31 289.861 C 147.873 289.861 147.515 289.696 147.515 289.495 C 147.515 289.294 146.978 289.011 146.322 288.867 C 145.666 288.723 145.129 288.44 145.129 288.239 C 145.129 288.037 144.771 287.873 144.334 287.873 C 143.897 287.873 143.539 287.702 143.539 287.493 C 143.539 287.284 142.868 286.99 142.048 286.839 C 141.228 286.689 140.467 286.448 140.358 286.304 C 140.079 285.936 137.346 284.692 136.819 284.692 C 136.578 284.692 136.382 284.555 136.382 284.388 C 136.382 283.973 133.383 282.704 132.403 282.704 C 131.967 282.704 131.61 282.525 131.61 282.306 C 131.61 282.087 131.342 281.909 131.014 281.909 C 130.686 281.909 130.417 281.75 130.417 281.555 C 130.417 281.361 129.791 281.084 129.026 280.941 C 128.26 280.797 127.634 280.509 127.634 280.3 C 127.634 280.091 127.366 279.92 127.038 279.92 C 126.71 279.92 126.441 279.753 126.441 279.547 C 126.441 279.342 125.636 279.053 124.652 278.906 C 123.668 278.758 122.863 278.479 122.863 278.285 C 122.863 278.091 122.594 277.932 122.266 277.932 C 121.938 277.932 121.67 277.796 121.67 277.629 C 121.67 277.309 118.768 275.944 118.089 275.944 C 117.872 275.944 117.694 275.765 117.694 275.547 C 117.694 275.328 117.446 275.149 117.143 275.149 C 116.84 275.149 116.079 274.882 115.453 274.555 C 114.827 274.228 114.001 273.96 113.618 273.959 C 113.236 273.957 112.922 273.777 112.922 273.559 C 112.922 273.34 112.654 273.161 112.326 273.161 C 111.998 273.161 111.73 273.002 111.73 272.808 C 111.73 272.613 111.103 272.337 110.338 272.193 C 109.573 272.05 108.946 271.805 108.946 271.65 C 108.946 271.274 107.07 270.46 105.464 270.139 C 104.755 269.997 104.175 269.724 104.175 269.533 C 104.175 269.341 103.907 269.185 103.579 269.185 C 103.25 269.185 102.982 269.014 102.982 268.805 C 102.982 268.597 102.356 268.308 101.59 268.165 C 100.825 268.021 100.199 267.788 100.199 267.647 C 100.199 267.338 98.426 266.546 96.918 266.182 C 96.317 266.037 95.825 265.758 95.825 265.563 C 95.825 265.368 95.467 265.209 95.03 265.209 C 94.592 265.209 94.235 265.03 94.235 264.811 C 94.235 264.592 94.038 264.414 93.798 264.414 C 93.27 264.414 90.538 263.169 90.258 262.802 C 90.149 262.658 89.389 262.417 88.569 262.266 C 87.749 262.115 87.078 261.821 87.078 261.612 C 87.078 261.403 86.72 261.233 86.282 261.233 C 85.845 261.233 85.487 261.068 85.487 260.867 C 85.487 260.665 84.95 260.383 84.294 260.239 C 83.638 260.094 83.101 259.812 83.101 259.611 C 83.101 259.409 82.744 259.245 82.306 259.245 C 81.869 259.245 81.511 259.066 81.511 258.847 C 81.511 258.628 81.168 258.449 80.748 258.449 C 79.931 258.449 77.423 257.254 77.203 256.759 C 77.004 256.311 75.149 256.401 75.149 256.859" stroke-linecap="round"/>
</g>
<g transform="matrix(NaN NaN NaN NaN 0 0)">
<g style="">
</g>
</g>
</svg>