<svg xmlns="http://www.w3.org/2000/svg" xmlns:xlink="http://www.w3.org/1999/xlink" version="1.1" xml:space="preserve" viewBox="307 347 430 365">
<desc>Created with Fabric.js 5.2.4</desc>
<defs>
</defs>
<g transform="matrix(1 0 0 1 540 540)" id="112cb172-8907-4030-8490-f2388b3be1a3">
</g>
<g transform="matrix(1 0 0 1 540 540)" id="cd728daa-b7ee-42ea-bdd8-68883adbd125">
<rect style="stroke: none; stroke-width: 1; stroke-dasharray: none; stroke-linecap: butt; stroke-dashoffset: 0; stroke-linejoin: miter; stroke-miterlimit: 4; fill: rgb(255,255,255); fill-rule: nonzero; opacity: 1; visibility: hidden;" vector-effect="non-scaling-stroke" x="-540" y="-540" rx="0" ry="0" width="1080" height="1080"/>
</g>
<g transform="matrix(1 0 0 1 539.86 609.3)">
<path style="stroke: none; stroke-width: 1; stroke-dasharray: none; stroke-linecap: butt; stroke-dashoffset: 0; stroke-linejoin: miter; stroke-miterlimit: 4; fill: rgb(194,194,194); fill-rule: evenodd; opacity: 1;" vector-effect="non-scaling-stroke" transform=" translate(-196.22, -263.85)" d="M 72.958 166.52 C 72.493 166.75 72.113 167.068 72.113 167.225 C 72.113 167.383 71.775 167.512 71.362 167.512 C 70.948 167.512 70.61 167.681 70.61 167.887 C 70.61 168.094 70.339 168.263 70.007 168.263 C 69.675 168.263 68.28 168.806 66.908 169.47 C 65.536 170.134 64.329 170.706 64.225 170.741 C 64.122 170.776 63.657 170.929 63.192 171.08 C 62.728 171.231 62.347 171.505 62.347 171.687 C 62.347 171.869 61.925 172.019 61.408 172.019 C 60.892 172.019 60.469 172.188 60.469 172.394 C 60.469 172.601 60.305 172.77 60.104 172.77 C 59.559 172.77 55.418 174.761 55.278 175.09 C 55.211 175.247 54.575 175.484 53.865 175.618 C 53.155 175.751 52.481 176.01 52.368 176.193 C 52.255 176.376 51.834 176.526 51.433 176.526 C 51.032 176.526 50.704 176.695 50.704 176.901 C 50.704 177.108 50.435 177.277 50.105 177.277 C 49.442 177.277 47.208 178.429 47.011 178.873 C 46.942 179.028 46.562 179.155 46.166 179.155 C 45.77 179.155 45.446 179.324 45.446 179.531 C 45.446 179.737 45.107 179.906 44.692 179.906 C 44.277 179.906 43.137 180.319 42.157 180.824 C 41.177 181.329 39.765 182.014 39.018 182.345 C 38.271 182.677 37.306 183.278 36.874 183.681 C 36.442 184.084 35.912 184.413 35.696 184.413 C 35.481 184.413 35.305 184.552 35.305 184.722 C 35.305 184.892 34.373 185.986 33.234 187.153 C 31.517 188.912 31.122 189.568 30.928 190.986 C 30.799 191.927 30.548 192.786 30.37 192.896 C 29.915 193.177 29.964 197.559 30.423 197.559 C 30.629 197.559 30.798 198.065 30.798 198.683 C 30.798 199.899 31.921 202.817 32.389 202.817 C 32.547 202.817 32.676 203.097 32.676 203.439 C 32.676 204.607 39.307 211.841 40.364 211.825 C 40.577 211.822 41.934 212.399 43.38 213.107 C 48.153 215.443 50.208 216.338 50.804 216.338 C 51.128 216.338 51.449 216.465 51.518 216.62 C 51.716 217.065 55.435 218.967 56.107 218.967 C 56.441 218.967 56.714 219.136 56.714 219.343 C 56.714 219.549 57.042 219.718 57.443 219.718 C 57.844 219.718 58.268 219.874 58.386 220.065 C 58.504 220.256 59.105 220.523 59.723 220.658 C 60.34 220.794 60.845 221.06 60.845 221.25 C 60.845 221.441 61.183 221.596 61.596 221.596 C 62.009 221.596 62.347 221.765 62.347 221.972 C 62.347 222.178 62.603 222.347 62.916 222.347 C 63.229 222.347 63.778 222.506 64.137 222.699 C 64.495 222.892 65.803 223.518 67.042 224.09 C 68.282 224.661 69.382 225.25 69.487 225.399 C 69.593 225.547 70.184 225.792 70.802 225.944 C 71.42 226.095 72.009 226.32 72.113 226.443 C 72.488 226.89 75.161 227.981 75.881 227.981 C 76.287 227.981 76.62 228.15 76.62 228.357 C 76.62 228.563 76.873 228.732 77.183 228.732 C 77.493 228.732 77.746 228.862 77.746 229.019 C 77.746 229.383 80.55 230.61 81.38 230.61 C 81.723 230.61 81.891 230.723 81.753 230.86 C 81.616 230.998 82.391 231.419 83.475 231.796 C 85.496 232.499 87.178 233.265 87.512 233.634 C 87.875 234.036 90.449 235.117 91.043 235.117 C 91.373 235.117 91.643 235.286 91.643 235.493 C 91.643 235.7 91.971 235.869 92.372 235.869 C 92.773 235.869 93.198 236.025 93.315 236.215 C 93.433 236.406 94.035 236.673 94.652 236.808 C 95.27 236.944 95.775 237.211 95.775 237.401 C 95.775 237.591 96.113 237.746 96.526 237.746 C 96.939 237.746 97.277 237.915 97.277 238.122 C 97.277 238.329 97.583 238.498 97.956 238.498 C 98.33 238.498 98.964 238.746 99.365 239.049 C 99.766 239.352 100.46 239.606 100.908 239.612 C 101.355 239.619 101.778 239.751 101.847 239.906 C 102.044 240.35 104.278 241.502 104.941 241.502 C 105.27 241.502 105.54 241.671 105.54 241.878 C 105.54 242.085 105.906 242.254 106.354 242.254 C 106.801 242.254 107.055 242.366 106.918 242.503 C 106.78 242.641 107.53 243.057 108.584 243.428 C 111.306 244.387 112.676 245.024 112.676 245.333 C 112.676 245.48 113.268 245.711 113.991 245.846 C 114.714 245.982 115.305 246.243 115.305 246.427 C 115.305 246.61 115.53 246.761 115.805 246.761 C 116.08 246.761 117.136 247.182 118.152 247.698 C 119.169 248.214 120.211 248.636 120.469 248.637 C 120.728 248.638 120.939 248.808 120.939 249.014 C 120.939 249.221 121.277 249.39 121.69 249.39 C 122.103 249.39 122.441 249.519 122.441 249.677 C 122.441 249.975 125.179 251.268 125.811 251.268 C 126.009 251.268 126.927 251.69 127.852 252.207 C 128.777 252.723 129.797 253.146 130.119 253.146 C 130.441 253.146 130.704 253.273 130.704 253.429 C 130.704 253.708 131.266 253.987 134.272 255.199 C 137.067 256.326 137.84 256.708 137.84 256.963 C 137.84 257.103 138.39 257.336 139.061 257.482 C 139.732 257.628 140.366 257.861 140.469 258.001 C 140.699 258.311 142.789 259.269 144.695 259.938 C 145.469 260.21 146.103 260.568 146.103 260.733 C 146.103 260.898 146.441 261.033 146.854 261.033 C 147.268 261.033 147.606 261.194 147.606 261.391 C 147.606 261.589 148.197 261.861 148.92 261.997 C 149.643 262.132 150.235 262.352 150.235 262.485 C 150.235 262.618 150.784 262.95 151.455 263.221 C 152.127 263.493 153.125 263.957 153.673 264.252 C 154.221 264.547 154.94 264.789 155.269 264.789 C 155.599 264.789 155.869 264.958 155.869 265.164 C 155.869 265.371 156.207 265.54 156.62 265.54 C 157.033 265.54 157.371 265.709 157.371 265.915 C 157.371 266.122 157.557 266.291 157.784 266.291 C 158.27 266.291 160.23 267.125 162.72 268.39 C 163.7 268.888 164.742 269.296 165.036 269.296 C 165.331 269.296 165.628 269.427 165.696 269.588 C 165.844 269.933 170.232 271.925 170.845 271.925 C 171.077 271.925 171.268 272.094 171.268 272.3 C 171.268 272.507 171.606 272.676 172.019 272.676 C 172.432 272.676 172.77 272.832 172.77 273.022 C 172.77 273.212 173.319 273.487 173.991 273.632 C 174.662 273.778 175.296 274.003 175.399 274.132 C 175.755 274.576 177.268 275.305 177.835 275.305 C 178.148 275.305 178.404 275.474 178.404 275.681 C 178.404 275.887 178.531 276.029 178.685 275.995 C 179.246 275.872 181.033 276.522 181.033 276.848 C 181.033 277.032 181.445 277.183 181.95 277.183 C 182.454 277.183 182.965 277.342 183.085 277.537 C 183.205 277.732 184.103 277.994 185.079 278.12 C 186.056 278.245 187.148 278.509 187.507 278.705 C 187.865 278.901 188.827 279.061 189.644 279.061 C 190.461 279.061 191.234 279.23 191.362 279.437 C 191.493 279.65 193.361 279.812 195.681 279.812 C 198 279.812 199.868 279.65 200 279.437 C 200.128 279.23 201.152 279.061 202.276 279.061 C 203.4 279.061 204.319 278.916 204.319 278.739 C 204.319 278.562 205.376 278.307 206.667 278.172 C 207.958 278.037 209.07 277.76 209.139 277.555 C 209.208 277.35 209.583 277.183 209.973 277.183 C 210.363 277.183 211.262 276.857 211.971 276.459 C 212.681 276.06 213.362 275.835 213.485 275.958 C 213.608 276.081 213.709 275.984 213.709 275.743 C 213.709 275.502 214.047 275.305 214.46 275.305 C 214.873 275.305 215.211 275.136 215.211 274.93 C 215.211 274.723 215.465 274.554 215.775 274.554 C 216.085 274.554 216.338 274.385 216.338 274.178 C 216.338 273.972 216.67 273.803 217.076 273.803 C 217.888 273.803 220.585 272.648 220.779 272.218 C 220.845 272.07 221.479 271.84 222.187 271.707 C 222.895 271.574 223.474 271.315 223.474 271.132 C 223.474 270.948 223.812 270.798 224.225 270.798 C 224.638 270.798 224.977 270.629 224.977 270.423 C 224.977 270.216 225.315 270.047 225.728 270.047 C 226.141 270.047 226.479 269.897 226.479 269.713 C 226.479 269.53 227.058 269.271 227.766 269.138 C 228.474 269.005 229.108 268.775 229.175 268.627 C 229.322 268.3 232.423 266.667 232.897 266.667 C 233.512 266.667 236.244 265.368 236.244 265.076 C 236.244 264.918 236.55 264.789 236.924 264.789 C 237.297 264.789 237.931 264.541 238.332 264.237 C 238.733 263.934 239.357 263.68 239.718 263.674 C 240.08 263.667 240.376 263.493 240.376 263.286 C 240.376 263.08 240.629 262.911 240.939 262.911 C 241.249 262.911 241.502 262.742 241.502 262.535 C 241.502 262.329 241.857 262.16 242.291 262.16 C 243.03 262.16 245.596 261.136 246.009 260.675 C 246.113 260.56 247.169 260.144 248.357 259.75 C 249.545 259.355 250.516 258.891 250.516 258.718 C 250.516 258.545 250.854 258.404 251.268 258.404 C 251.681 258.404 252.019 258.248 252.019 258.058 C 252.019 257.868 252.526 257.601 253.146 257.465 C 253.765 257.329 254.272 257.062 254.272 256.872 C 254.272 256.681 254.61 256.526 255.023 256.526 C 255.437 256.526 255.775 256.357 255.775 256.15 C 255.775 255.944 256.024 255.775 256.328 255.775 C 257.022 255.775 261.177 253.843 261.346 253.442 C 261.415 253.279 261.763 253.146 262.119 253.146 C 262.476 253.146 263.095 252.897 263.496 252.594 C 263.897 252.291 264.521 252.037 264.883 252.031 C 265.244 252.024 265.54 251.868 265.54 251.684 C 265.54 251.5 266.005 251.241 266.573 251.109 C 267.673 250.853 270.86 249.373 271.174 248.972 C 271.277 248.841 271.911 248.614 272.582 248.468 C 273.254 248.322 273.803 248.048 273.803 247.857 C 273.803 247.667 274.023 247.512 274.291 247.512 C 274.982 247.512 276.801 246.628 276.805 246.291 C 276.806 246.136 277.113 246.009 277.487 246.009 C 277.861 246.009 278.494 245.761 278.895 245.458 C 279.296 245.155 279.92 244.901 280.282 244.895 C 280.643 244.888 280.939 244.732 280.939 244.549 C 280.939 244.365 281.531 244.104 282.254 243.968 C 282.977 243.833 283.568 243.56 283.568 243.363 C 283.568 243.166 283.788 243.005 284.057 243.005 C 284.748 243.005 286.566 242.121 286.57 241.784 C 286.571 241.629 286.828 241.502 287.139 241.502 C 287.45 241.502 288.507 241.089 289.486 240.584 C 290.466 240.079 291.859 239.42 292.582 239.12 C 293.305 238.819 294.446 238.346 295.117 238.068 C 295.789 237.79 296.338 237.454 296.338 237.321 C 296.338 237.188 296.93 236.968 297.653 236.832 C 298.376 236.697 298.967 236.466 298.967 236.319 C 298.967 236.172 299.516 235.825 300.188 235.547 C 300.859 235.269 301.941 234.805 302.592 234.516 C 303.243 234.227 303.961 233.991 304.188 233.991 C 304.415 233.991 304.601 233.822 304.601 233.615 C 304.601 233.408 304.939 233.239 305.352 233.239 C 305.765 233.239 306.103 233.07 306.103 232.864 C 306.103 232.657 306.373 232.488 306.703 232.488 C 307.366 232.488 309.599 231.336 309.797 230.892 C 309.865 230.737 310.24 230.61 310.629 230.61 C 311.304 230.61 313.972 229.524 314.366 229.088 C 314.549 228.887 315.916 228.243 318.404 227.189 C 319.075 226.904 319.624 226.543 319.624 226.387 C 319.624 226.231 319.92 226.102 320.282 226.101 C 320.643 226.1 321.423 225.846 322.015 225.538 C 322.606 225.229 323.325 224.977 323.611 224.977 C 323.897 224.977 324.131 224.847 324.131 224.69 C 324.131 224.388 326.873 223.099 327.514 223.099 C 327.719 223.099 327.887 222.93 327.887 222.723 C 327.887 222.516 328.099 222.347 328.357 222.346 C 328.615 222.345 329.587 221.965 330.516 221.501 C 331.446 221.037 332.84 220.414 333.615 220.118 C 334.39 219.821 335.023 219.441 335.023 219.273 C 335.023 219.105 335.319 218.966 335.681 218.965 C 336.042 218.964 336.822 218.71 337.414 218.401 C 338.006 218.093 338.724 217.84 339.01 217.84 C 339.296 217.84 339.531 217.711 339.531 217.553 C 339.531 217.205 342.318 215.962 343.101 215.962 C 343.41 215.962 343.662 215.835 343.662 215.679 C 343.662 215.522 344.211 215.167 344.883 214.89 C 345.554 214.612 346.636 214.148 347.287 213.859 C 347.938 213.57 348.656 213.333 348.883 213.333 C 349.11 213.333 349.296 213.164 349.296 212.958 C 349.296 212.751 349.549 212.582 349.859 212.582 C 350.169 212.582 350.423 212.413 350.423 212.207 C 350.423 212 350.837 211.831 351.344 211.831 C 351.851 211.831 352.689 211.408 353.205 210.892 C 353.722 210.376 354.321 209.953 354.537 209.953 C 354.753 209.953 354.93 209.756 354.93 209.515 C 354.93 209.274 355.033 209.18 355.16 209.307 C 355.462 209.609 359.722 205.194 360.013 204.277 C 360.137 203.887 360.396 203.568 360.589 203.568 C 360.781 203.568 360.939 203.23 360.939 202.817 C 360.939 202.404 361.108 202.066 361.315 202.066 C 361.521 202.066 361.69 201.653 361.69 201.149 C 361.69 200.645 361.833 200.144 362.008 200.035 C 362.515 199.723 362.529 194.7 362.026 193.734 C 361.147 192.046 360.939 191.556 360.939 191.171 C 360.939 189.877 354.702 182.938 353.521 182.919 C 353.263 182.914 353.052 182.753 353.052 182.561 C 353.052 182.368 352.671 182.092 352.207 181.947 C 351.742 181.801 351.277 181.579 351.174 181.452 C 350.858 181.063 348.178 179.906 347.593 179.906 C 347.29 179.906 347.042 179.737 347.042 179.531 C 347.042 179.324 346.704 179.155 346.291 179.155 C 345.878 179.155 345.54 178.986 345.54 178.779 C 345.54 178.573 345.244 178.398 344.883 178.392 C 344.521 178.385 343.897 178.132 343.496 177.828 C 343.095 177.525 342.462 177.277 342.088 177.277 C 341.714 177.277 341.408 177.108 341.408 176.901 C 341.408 176.695 341.06 176.526 340.635 176.526 C 340.203 176.526 339.967 176.356 340.1 176.141 C 340.23 175.929 340.198 175.789 340.028 175.829 C 339.392 175.977 336.901 175.303 336.901 174.982 C 336.901 174.798 336.648 174.648 336.338 174.648 C 336.028 174.648 335.775 174.479 335.775 174.272 C 335.775 174.066 335.437 173.897 335.023 173.897 C 334.61 173.897 334.272 173.741 334.272 173.551 C 334.272 173.361 333.751 173.091 333.114 172.951 C 332.476 172.811 331.052 172.221 329.949 171.641 C 328.846 171.061 327.846 170.683 327.727 170.802 C 327.609 170.92 327.512 170.82 327.512 170.579 C 327.512 170.338 327.174 170.141 326.761 170.141 C 326.347 170.141 326.009 169.992 326.009 169.81 C 326.009 169.627 324.997 169.162 323.759 168.777 C 322.521 168.391 321.507 167.948 321.506 167.793 C 321.504 167.638 321.249 167.512 320.939 167.512 C 320.629 167.512 320.376 167.343 320.376 167.136 C 320.376 166.93 320.038 166.761 319.624 166.761 C 319.211 166.761 318.873 166.592 318.873 166.385 C 318.873 166.178 318.653 166.009 318.385 166.009 C 317.694 166.009 315.875 166.893 315.871 167.23 C 315.87 167.385 315.531 167.512 315.117 167.512 C 314.704 167.512 314.366 167.667 314.366 167.857 C 314.366 168.189 312.227 168.858 311.643 168.71 C 311.488 168.671 311.362 168.808 311.362 169.014 C 311.362 169.221 311.023 169.39 310.61 169.39 C 310.197 169.39 309.859 169.545 309.859 169.735 C 309.859 169.926 309.352 170.193 308.732 170.329 C 308.113 170.465 307.606 170.732 307.606 170.922 C 307.606 171.112 307.268 171.268 306.854 171.268 C 306.441 171.268 306.103 171.437 306.103 171.643 C 306.103 171.85 305.681 172.019 305.164 172.019 C 304.648 172.019 304.225 172.18 304.225 172.377 C 304.225 172.575 303.634 172.847 302.911 172.983 C 302.188 173.118 301.596 173.379 301.596 173.563 C 301.596 173.747 301.343 173.897 301.033 173.897 C 300.723 173.897 300.469 174.066 300.469 174.272 C 300.469 174.479 300.131 174.648 299.718 174.648 C 299.305 174.648 298.967 174.809 298.967 175.006 C 298.967 175.204 298.333 175.482 297.559 175.624 C 296.784 175.766 296.066 175.994 295.962 176.129 C 295.71 176.461 291.53 178.404 291.07 178.404 C 290.869 178.404 290.704 178.573 290.704 178.779 C 290.704 178.986 290.366 179.155 289.953 179.155 C 289.54 179.155 289.202 179.296 289.202 179.468 C 289.202 179.64 288.188 180.104 286.948 180.5 C 285.709 180.896 284.695 181.329 284.695 181.462 C 284.695 181.594 284.232 181.819 283.666 181.961 C 283.1 182.103 282.55 182.333 282.445 182.471 C 282.167 182.837 279.057 184.413 278.613 184.413 C 278.133 184.413 275.554 185.606 275.305 185.943 C 275.202 186.082 274.568 186.316 273.897 186.462 C 273.225 186.607 272.676 186.882 272.676 187.072 C 272.676 187.262 272.338 187.418 271.925 187.418 C 271.512 187.418 271.174 187.587 271.174 187.793 C 271.174 188 270.929 188.169 270.63 188.169 C 270.331 188.169 269.292 188.592 268.321 189.108 C 267.349 189.624 266.326 190.047 266.047 190.047 C 265.768 190.047 265.54 190.203 265.54 190.393 C 265.54 190.583 265.043 190.848 264.436 190.981 C 263.829 191.114 262.181 191.803 260.774 192.512 C 259.367 193.221 258.005 193.801 257.746 193.802 C 257.488 193.802 257.277 193.972 257.277 194.178 C 257.277 194.385 256.939 194.554 256.526 194.554 C 256.113 194.554 255.775 194.723 255.775 194.93 C 255.775 195.136 255.526 195.305 255.222 195.305 C 254.616 195.305 250.443 197.179 250.141 197.587 C 250.038 197.726 249.404 197.959 248.732 198.105 C 248.061 198.25 247.512 198.525 247.512 198.715 C 247.512 198.905 247.287 199.061 247.012 199.061 C 246.737 199.061 245.681 199.483 244.665 199.998 C 243.648 200.514 242.511 200.937 242.137 200.937 C 241.764 200.938 241.562 201.108 241.69 201.315 C 241.818 201.521 241.574 201.69 241.149 201.69 C 240.724 201.69 240.376 201.859 240.376 202.066 C 240.376 202.272 240.08 202.442 239.718 202.444 C 239.357 202.445 238.577 202.698 237.985 203.007 C 237.394 203.316 236.675 203.568 236.389 203.568 C 236.103 203.568 235.869 203.737 235.869 203.944 C 235.869 204.15 235.521 204.319 235.095 204.319 C 234.67 204.319 234.426 204.488 234.554 204.695 C 234.682 204.901 234.47 205.07 234.085 205.07 C 233.699 205.07 233.055 205.319 232.654 205.622 C 232.253 205.925 231.629 206.179 231.268 206.185 C 230.906 206.192 230.61 206.345 230.61 206.526 C 230.61 206.832 228.513 207.486 227.887 207.374 C 227.732 207.347 227.606 207.461 227.606 207.629 C 227.606 207.797 227.014 208.167 226.291 208.451 C 225.568 208.734 224.977 209.085 224.977 209.23 C 224.977 209.375 224.385 209.605 223.662 209.74 C 222.939 209.876 222.347 210.148 222.347 210.346 C 222.347 210.543 222.113 210.704 221.827 210.704 C 221.541 210.704 220.822 210.957 220.231 211.265 C 219.639 211.574 218.869 211.827 218.52 211.829 C 218.171 211.83 217.78 212 217.653 212.207 C 217.525 212.413 217.092 212.582 216.691 212.582 C 216.29 212.582 215.962 212.751 215.962 212.958 C 215.962 213.164 215.574 213.333 215.099 213.333 C 214.623 213.333 214.061 213.507 213.849 213.719 C 213.637 213.931 212.589 214.208 211.521 214.335 C 210.452 214.461 209.577 214.71 209.577 214.888 C 209.577 215.066 209.104 215.211 208.526 215.211 C 207.947 215.211 207.263 215.423 207.005 215.681 C 206.367 216.318 187.148 216.361 186.747 215.726 C 186.599 215.493 185.803 215.208 184.977 215.092 C 182.276 214.714 178.636 213.704 177.188 212.93 C 176.829 212.739 176.206 212.582 175.802 212.582 C 175.398 212.582 174.972 212.428 174.856 212.239 C 174.739 212.051 173.97 211.782 173.146 211.643 C 172.321 211.504 171.552 211.236 171.435 211.047 C 171.319 210.859 170.895 210.704 170.494 210.704 C 170.093 210.704 169.765 210.549 169.765 210.358 C 169.765 210.168 169.258 209.901 168.638 209.765 C 168.019 209.629 167.512 209.362 167.512 209.172 C 167.512 208.982 167.242 208.826 166.912 208.826 C 166.583 208.826 165.824 208.478 165.226 208.052 C 164.628 207.626 163.545 207.182 162.82 207.064 C 162.096 206.946 161.502 206.744 161.502 206.615 C 161.502 206.486 160.953 206.149 160.282 205.866 C 159.61 205.583 157.709 204.718 156.056 203.944 C 154.404 203.169 152.502 202.304 151.831 202.021 C 151.16 201.738 150.61 201.379 150.61 201.223 C 150.61 201.067 150.315 200.938 149.953 200.937 C 149.592 200.937 148.464 200.514 147.448 199.998 C 146.432 199.483 145.376 199.061 145.101 199.061 C 144.826 199.061 144.601 198.905 144.601 198.715 C 144.601 198.525 144.094 198.258 143.474 198.122 C 142.854 197.986 142.347 197.719 142.347 197.529 C 142.347 197.339 142.009 197.183 141.596 197.183 C 141.183 197.183 140.845 197.035 140.845 196.854 C 140.845 196.548 138.748 195.894 138.122 196.006 C 137.967 196.034 137.84 195.887 137.84 195.681 C 137.84 195.474 137.502 195.305 137.089 195.305 C 136.676 195.305 136.338 195.173 136.338 195.012 C 136.338 194.851 135.493 194.391 134.46 193.991 C 133.427 193.59 132.582 193.13 132.582 192.969 C 132.582 192.808 132.244 192.676 131.831 192.676 C 131.418 192.676 131.08 192.507 131.08 192.3 C 131.08 192.094 130.846 191.925 130.559 191.925 C 130.273 191.925 129.555 191.672 128.963 191.364 C 128.371 191.055 127.592 190.802 127.23 190.8 C 126.869 190.799 126.573 190.629 126.573 190.423 C 126.573 190.216 126.408 190.047 126.208 190.047 C 126.007 190.047 124.19 189.273 122.17 188.326 C 120.15 187.38 117.399 186.093 116.056 185.466 C 114.714 184.839 113.322 184.177 112.963 183.994 C 112.604 183.811 112.055 183.662 111.742 183.662 C 111.43 183.662 111.174 183.493 111.174 183.286 C 111.174 183.08 110.92 182.911 110.61 182.911 C 110.3 182.911 110.047 182.761 110.047 182.577 C 110.047 182.393 109.455 182.132 108.732 181.997 C 108.009 181.861 107.418 181.589 107.418 181.391 C 107.418 181.194 107.08 181.033 106.667 181.033 C 106.254 181.033 105.915 180.866 105.915 180.662 C 105.915 180.458 105.239 180.182 104.413 180.05 C 103.587 179.918 102.911 179.663 102.911 179.483 C 102.911 179.302 102.573 179.155 102.16 179.155 C 101.746 179.155 101.408 178.986 101.408 178.779 C 101.408 178.573 101.239 178.404 101.031 178.404 C 100.823 178.404 99.778 177.981 98.707 177.465 C 97.637 176.948 96.529 176.526 96.246 176.526 C 95.962 176.526 95.823 176.375 95.937 176.191 C 96.051 176.007 95.512 175.738 94.739 175.594 C 93.967 175.449 93.25 175.21 93.146 175.064 C 92.854 174.652 88.686 172.77 88.065 172.77 C 87.761 172.77 87.512 172.601 87.512 172.394 C 87.512 172.188 87.174 172.019 86.761 172.019 C 86.347 172.019 86.009 171.869 86.009 171.687 C 86.009 171.505 85.629 171.231 85.164 171.08 C 84.7 170.929 84.235 170.775 84.131 170.739 C 84.028 170.702 82.791 170.13 81.382 169.468 C 79.973 168.805 78.593 168.263 78.315 168.263 C 78.037 168.263 77.753 168.136 77.684 167.981 C 77.535 167.647 74.405 165.989 74.049 166.056 C 73.914 166.081 73.423 166.29 72.958 166.52 M 71.771 249.246 C 70.861 249.769 69.816 250.219 69.45 250.247 C 69.084 250.274 68.867 250.431 68.968 250.594 C 69.07 250.758 68.89 250.892 68.569 250.892 C 67.77 250.892 64.977 252.129 64.977 252.483 C 64.977 252.641 64.671 252.77 64.297 252.77 C 63.923 252.77 63.29 253.018 62.889 253.321 C 62.488 253.625 61.864 253.878 61.502 253.885 C 61.141 253.891 60.845 254.066 60.845 254.272 C 60.845 254.479 60.618 254.648 60.339 254.648 C 60.061 254.648 59.343 254.88 58.743 255.164 C 58.143 255.449 57.103 255.912 56.432 256.195 C 55.761 256.478 55.211 256.818 55.211 256.951 C 55.211 257.084 54.62 257.304 53.897 257.44 C 53.174 257.576 52.582 257.848 52.582 258.045 C 52.582 258.242 52.4 258.404 52.177 258.404 C 51.955 258.404 50.542 258.995 49.039 259.718 C 47.536 260.441 46.113 261.033 45.876 261.033 C 45.64 261.033 45.446 261.184 45.446 261.368 C 45.446 261.552 45.005 261.813 44.466 261.949 C 43.352 262.228 40.096 263.69 39.812 264.038 C 39.709 264.164 39.064 264.495 38.38 264.772 C 37.053 265.309 31.452 270.62 31.227 271.555 C 31.154 271.862 31.005 272.743 30.897 273.513 C 30.79 274.284 30.58 274.839 30.433 274.748 C 30.285 274.657 30.13 275.659 30.087 276.976 C 30.043 278.328 30.181 279.475 30.404 279.613 C 30.621 279.747 30.798 280.35 30.798 280.954 C 30.798 282.371 31.873 285.089 32.738 285.86 C 33.11 286.191 33.319 286.555 33.204 286.671 C 32.779 287.096 40.249 294.115 41.363 294.338 C 41.965 294.459 42.548 294.704 42.659 294.884 C 42.77 295.064 43.189 295.211 43.59 295.211 C 43.991 295.211 44.319 295.38 44.319 295.587 C 44.319 295.793 44.488 295.962 44.695 295.962 C 44.901 295.962 46.464 296.638 48.167 297.465 C 49.871 298.291 51.547 298.967 51.892 298.967 C 52.237 298.967 52.576 299.101 52.645 299.264 C 52.787 299.602 56.918 301.596 57.475 301.596 C 57.676 301.596 57.84 301.765 57.84 301.972 C 57.84 302.178 58.075 302.347 58.361 302.347 C 58.647 302.347 59.365 302.6 59.957 302.908 C 60.549 303.217 61.315 303.471 61.659 303.472 C 62.003 303.473 62.341 303.601 62.41 303.756 C 62.479 303.911 63.549 304.517 64.789 305.104 C 66.028 305.69 67.336 306.324 67.694 306.512 C 68.053 306.7 68.602 306.854 68.915 306.854 C 69.228 306.854 69.484 307.016 69.484 307.213 C 69.484 307.41 70.075 307.683 70.798 307.818 C 71.521 307.954 72.113 308.215 72.113 308.399 C 72.113 308.582 72.366 308.732 72.676 308.732 C 72.986 308.732 73.239 308.874 73.239 309.047 C 73.239 309.22 74.211 309.684 75.399 310.078 C 76.587 310.472 77.643 310.889 77.746 311.004 C 77.85 311.119 78.61 311.511 79.437 311.876 C 81.765 312.904 82.8 313.409 83.005 313.618 C 83.108 313.723 84.122 314.132 85.258 314.526 C 86.394 314.921 87.408 315.344 87.512 315.466 C 87.705 315.695 91.476 317.53 93.146 318.208 C 93.662 318.418 94.533 318.822 95.081 319.107 C 95.63 319.391 96.334 319.624 96.646 319.624 C 96.959 319.624 97.271 319.758 97.34 319.921 C 97.509 320.322 101.664 322.254 102.358 322.254 C 102.662 322.254 102.911 322.423 102.911 322.629 C 102.911 322.836 103.249 323.005 103.662 323.005 C 104.075 323.005 104.413 323.16 104.413 323.35 C 104.413 323.541 104.962 323.815 105.634 323.961 C 106.305 324.107 106.939 324.341 107.042 324.481 C 107.271 324.792 110.255 326.178 111.549 326.574 C 112.066 326.732 112.573 326.975 112.676 327.112 C 112.937 327.461 115.517 328.638 116.019 328.638 C 116.246 328.638 116.432 328.808 116.432 329.014 C 116.432 329.221 116.688 329.39 117 329.39 C 117.572 329.39 117.883 329.518 120.058 330.651 C 120.71 330.99 121.512 331.268 121.842 331.268 C 122.172 331.268 122.441 331.405 122.441 331.573 C 122.441 331.741 123.067 332.121 123.831 332.418 C 124.595 332.715 125.976 333.338 126.899 333.803 C 127.823 334.268 128.803 334.648 129.078 334.648 C 129.353 334.648 129.577 334.817 129.577 335.023 C 129.577 335.23 129.779 335.399 130.024 335.399 C 130.399 335.399 133.527 336.786 136.051 338.072 C 136.41 338.254 136.959 338.404 137.272 338.404 C 137.585 338.404 137.84 338.533 137.84 338.691 C 137.84 338.992 140.582 340.282 141.223 340.282 C 141.428 340.282 141.596 340.451 141.596 340.657 C 141.596 340.864 141.852 341.033 142.165 341.033 C 142.737 341.033 143.047 341.161 145.222 342.294 C 145.874 342.633 146.677 342.911 147.006 342.911 C 147.336 342.911 147.606 343.08 147.606 343.286 C 147.606 343.493 147.775 343.662 147.983 343.662 C 148.191 343.662 149.236 344.085 150.307 344.601 C 151.377 345.117 152.475 345.54 152.746 345.54 C 153.018 345.54 153.239 345.709 153.239 345.915 C 153.239 346.122 153.479 346.291 153.772 346.291 C 154.399 346.291 156.751 347.479 156.933 347.887 C 157.002 348.042 157.278 348.169 157.547 348.169 C 157.816 348.169 158.52 348.421 159.112 348.73 C 159.704 349.039 160.484 349.292 160.845 349.293 C 161.207 349.295 161.502 349.465 161.502 349.671 C 161.502 349.878 161.84 350.047 162.254 350.047 C 162.667 350.047 163.005 350.216 163.005 350.423 C 163.005 350.629 163.169 350.798 163.37 350.798 C 163.831 350.798 168.01 352.741 168.263 353.073 C 168.366 353.208 169.085 353.435 169.859 353.578 C 170.634 353.72 171.268 353.998 171.268 354.195 C 171.268 354.393 171.606 354.554 172.019 354.554 C 172.432 354.554 172.77 354.723 172.77 354.93 C 172.77 355.136 172.94 355.305 173.147 355.305 C 173.355 355.305 174.401 355.728 175.471 356.244 C 176.542 356.761 177.639 357.183 177.911 357.183 C 178.182 357.183 178.404 357.333 178.404 357.517 C 178.404 357.7 178.995 357.962 179.718 358.097 C 180.441 358.233 181.033 358.505 181.033 358.702 C 181.033 358.9 181.373 359.061 181.789 359.061 C 182.556 359.061 184.044 359.754 184.446 360.298 C 184.567 360.463 185.882 360.699 187.369 360.823 C 188.855 360.948 190.16 361.194 190.269 361.37 C 190.527 361.788 201.585 361.788 201.844 361.37 C 201.952 361.194 203.187 360.943 204.587 360.812 C 205.987 360.681 207.19 360.403 207.26 360.193 C 207.329 359.984 207.795 359.812 208.294 359.812 C 208.793 359.812 209.202 359.643 209.202 359.437 C 209.202 359.23 209.624 359.061 210.141 359.061 C 210.657 359.061 211.08 358.892 211.08 358.685 C 211.08 358.479 211.376 358.309 211.737 358.308 C 212.099 358.306 212.878 358.053 213.47 357.744 C 214.062 357.436 214.78 357.183 215.066 357.183 C 215.353 357.183 215.587 357.014 215.587 356.808 C 215.587 356.601 215.893 356.432 216.266 356.432 C 216.64 356.432 217.274 356.184 217.675 355.88 C 218.076 355.577 218.7 355.324 219.061 355.317 C 219.423 355.311 219.718 355.136 219.718 354.93 C 219.718 354.723 219.972 354.554 220.282 354.554 C 220.592 354.554 220.845 354.385 220.845 354.178 C 220.845 353.972 221.116 353.803 221.446 353.803 C 221.777 353.803 223.47 353.127 225.209 352.3 C 226.948 351.474 228.622 350.798 228.927 350.798 C 229.233 350.798 229.484 350.629 229.484 350.423 C 229.484 350.216 229.737 350.047 230.047 350.047 C 230.357 350.047 230.61 349.878 230.61 349.671 C 230.61 349.465 230.889 349.296 231.23 349.296 C 231.821 349.296 233.817 348.446 237.934 346.442 C 238.967 345.94 240.023 345.531 240.282 345.534 C 240.54 345.537 240.751 345.384 240.751 345.194 C 240.751 345.004 241.256 344.737 241.874 344.602 C 242.491 344.466 243.093 344.199 243.21 344.009 C 243.328 343.818 243.753 343.662 244.154 343.662 C 244.555 343.662 244.883 343.53 244.883 343.369 C 244.883 343.208 245.728 342.748 246.761 342.347 C 247.793 341.947 248.638 341.487 248.638 341.326 C 248.638 341.165 248.873 341.033 249.159 341.033 C 249.445 341.033 250.164 340.78 250.755 340.472 C 251.347 340.163 252.127 339.91 252.488 339.908 C 252.85 339.907 253.146 339.769 253.146 339.601 C 253.146 339.433 253.737 339.063 254.46 338.779 C 255.183 338.496 255.775 338.134 255.775 337.975 C 255.775 337.816 256.366 337.576 257.089 337.44 C 257.812 337.304 258.404 337.043 258.404 336.86 C 258.404 336.676 258.627 336.526 258.9 336.526 C 259.173 336.526 260.059 336.203 260.87 335.809 C 261.68 335.415 262.471 335.171 262.627 335.268 C 262.783 335.364 262.911 335.264 262.911 335.046 C 262.911 334.827 263.164 334.648 263.474 334.648 C 263.784 334.648 264.038 334.479 264.038 334.272 C 264.038 334.066 264.376 333.897 264.789 333.897 C 265.202 333.897 265.54 333.746 265.54 333.562 C 265.54 333.378 265.976 333.117 266.509 332.984 C 267.043 332.85 268.745 332.155 270.293 331.441 C 271.84 330.726 273.263 330.141 273.455 330.141 C 273.646 330.141 273.803 329.972 273.803 329.765 C 273.803 329.559 274.03 329.39 274.308 329.39 C 274.587 329.39 275.305 329.157 275.905 328.873 C 276.505 328.589 277.545 328.125 278.216 327.842 C 278.887 327.56 279.437 327.201 279.437 327.044 C 279.437 326.888 279.732 326.76 280.094 326.758 C 280.455 326.757 281.235 326.503 281.827 326.195 C 282.419 325.886 283.137 325.634 283.423 325.634 C 283.709 325.634 283.944 325.465 283.944 325.258 C 283.944 325.052 284.282 324.883 284.695 324.883 C 285.108 324.883 285.446 324.714 285.446 324.507 C 285.446 324.3 285.701 324.131 286.012 324.131 C 286.324 324.131 287.38 323.734 288.36 323.248 C 294.266 320.318 296.629 319.249 297.198 319.249 C 297.551 319.249 297.84 319.08 297.84 318.873 C 297.84 318.667 298.094 318.498 298.404 318.498 C 298.714 318.498 298.967 318.329 298.967 318.122 C 298.967 317.915 299.221 317.746 299.532 317.746 C 299.843 317.746 300.973 317.324 302.044 316.808 C 303.114 316.291 304.212 315.869 304.483 315.869 C 304.755 315.869 304.977 315.713 304.977 315.523 C 304.977 315.333 305.484 315.066 306.103 314.93 C 306.723 314.793 307.23 314.527 307.23 314.336 C 307.23 314.146 307.568 313.991 307.981 313.991 C 308.394 313.991 308.732 313.822 308.732 313.615 C 308.732 313.408 309.155 313.239 309.671 313.239 C 310.188 313.239 310.61 313.07 310.61 312.864 C 310.61 312.657 310.778 312.488 310.983 312.488 C 311.625 312.488 314.366 311.199 314.366 310.897 C 314.366 310.739 314.676 310.61 315.054 310.61 C 315.432 310.61 316.573 310.189 317.589 309.673 C 318.605 309.157 319.648 308.735 319.906 308.734 C 320.164 308.733 320.376 308.571 320.376 308.374 C 320.376 308.177 320.967 307.904 321.69 307.769 C 322.413 307.633 323.005 307.372 323.005 307.188 C 323.005 307.005 323.258 306.854 323.568 306.854 C 323.878 306.854 324.131 306.685 324.131 306.479 C 324.131 306.272 324.427 306.102 324.789 306.101 C 325.15 306.1 326.798 305.425 328.451 304.601 C 330.103 303.777 331.667 303.102 331.925 303.101 C 332.183 303.1 332.394 302.93 332.394 302.723 C 332.394 302.516 332.817 302.347 333.333 302.347 C 333.85 302.347 334.272 302.178 334.272 301.972 C 334.272 301.765 334.481 301.596 334.736 301.596 C 335.241 301.596 339.225 299.688 339.531 299.3 C 339.634 299.169 340.268 298.942 340.939 298.797 C 341.61 298.651 342.16 298.376 342.16 298.186 C 342.16 297.996 342.582 297.84 343.099 297.84 C 343.615 297.84 344.038 297.671 344.038 297.465 C 344.038 297.258 344.246 297.089 344.502 297.089 C 345.08 297.089 349.064 295.121 349.229 294.754 C 349.296 294.605 349.923 294.376 350.623 294.245 C 351.323 294.114 352.407 293.517 353.033 292.919 C 353.659 292.32 354.337 291.831 354.539 291.831 C 355.134 291.831 359.691 287.17 359.977 286.27 C 360.121 285.817 360.396 285.446 360.589 285.446 C 360.781 285.446 360.939 285.269 360.939 285.052 C 360.939 284.836 361.245 284.026 361.618 283.253 C 362.867 280.668 362.18 273.792 360.561 272.676 C 360.412 272.573 360.17 272.108 360.025 271.643 C 359.88 271.178 359.604 270.798 359.411 270.798 C 359.219 270.798 359.061 270.45 359.061 270.025 C 359.061 269.599 358.923 269.337 358.754 269.441 C 358.585 269.546 358.205 269.289 357.909 268.871 C 357.021 267.616 354.919 265.54 354.536 265.54 C 354.339 265.54 354.178 265.389 354.178 265.205 C 354.178 265.021 353.756 264.764 353.239 264.634 C 352.723 264.505 352.3 264.233 352.3 264.03 C 352.3 263.828 352.076 263.662 351.801 263.662 C 351.526 263.662 350.47 263.24 349.453 262.725 C 348.437 262.209 347.408 261.786 347.167 261.786 C 346.926 261.785 346.673 261.657 346.604 261.502 C 346.433 261.116 343.765 259.906 343.086 259.906 C 342.783 259.906 342.535 259.737 342.535 259.531 C 342.535 259.324 342.197 259.155 341.784 259.155 C 341.371 259.155 341.033 258.986 341.033 258.779 C 341.033 258.573 340.695 258.404 340.282 258.404 C 339.869 258.404 339.531 258.235 339.531 258.028 C 339.531 257.822 339.319 257.652 339.061 257.651 C 338.803 257.65 337.767 257.231 336.76 256.72 C 335.752 256.209 334.358 255.684 333.661 255.553 C 332.964 255.422 332.394 255.165 332.394 254.982 C 332.394 254.798 332.141 254.648 331.831 254.648 C 331.521 254.648 331.268 254.479 331.268 254.272 C 331.268 254.066 330.93 253.897 330.516 253.897 C 330.103 253.897 329.765 253.741 329.765 253.551 C 329.765 253.361 329.26 253.094 328.643 252.959 C 328.025 252.823 327.424 252.556 327.306 252.365 C 327.188 252.175 326.764 252.019 326.363 252.019 C 325.962 252.019 325.634 251.869 325.634 251.685 C 325.634 251.501 325.042 251.24 324.319 251.105 C 323.596 250.969 323.005 250.697 323.005 250.499 C 323.005 250.302 322.667 250.141 322.254 250.141 C 321.84 250.141 321.502 250.012 321.502 249.854 C 321.502 249.696 320.795 249.261 319.931 248.886 C 318.338 248.196 315.869 248.284 315.869 249.031 C 315.869 249.228 315.705 249.39 315.504 249.39 C 315.304 249.39 314.216 249.812 313.087 250.329 C 311.958 250.845 310.854 251.268 310.634 251.268 C 310.415 251.268 310.235 251.437 310.235 251.643 C 310.235 251.85 309.897 252.019 309.484 252.019 C 309.07 252.019 308.732 252.161 308.732 252.335 C 308.732 252.509 307.718 252.958 306.479 253.333 C 305.239 253.709 304.225 254.158 304.225 254.332 C 304.225 254.506 303.972 254.648 303.662 254.648 C 303.352 254.648 303.099 254.798 303.099 254.982 C 303.099 255.165 302.507 255.426 301.784 255.562 C 301.061 255.698 300.468 255.928 300.467 256.073 C 300.463 256.364 298.656 257.277 298.085 257.277 C 297.547 257.277 293.54 259.271 293.396 259.611 C 293.327 259.773 293.013 259.906 292.698 259.906 C 292.194 259.906 288.269 261.578 286.484 262.554 C 286.125 262.75 285.566 262.911 285.241 262.911 C 284.916 262.911 284.755 263.08 284.883 263.286 C 285.01 263.493 284.767 263.662 284.341 263.662 C 283.916 263.662 283.568 263.812 283.568 263.996 C 283.568 264.179 282.94 264.447 282.172 264.591 C 281.405 264.735 280.322 265.177 279.767 265.572 C 279.212 265.968 278.572 266.291 278.346 266.291 C 278.119 266.291 277.934 266.46 277.934 266.667 C 277.934 266.873 277.808 267.015 277.653 266.981 C 277.092 266.858 275.305 267.507 275.305 267.834 C 275.305 268.018 275.049 268.169 274.737 268.169 C 274.165 268.169 273.854 268.297 271.679 269.43 C 271.028 269.769 270.225 270.047 269.895 270.047 C 269.565 270.047 269.296 270.216 269.296 270.423 C 269.296 270.629 269.042 270.798 268.732 270.798 C 268.423 270.798 268.169 270.948 268.169 271.132 C 268.169 271.315 267.577 271.577 266.854 271.712 C 266.131 271.848 265.54 272.12 265.54 272.317 C 265.54 272.515 265.131 272.676 264.632 272.676 C 264.133 272.676 263.668 272.803 263.599 272.958 C 263.428 273.344 260.76 274.554 260.081 274.554 C 259.778 274.554 259.531 274.723 259.531 274.93 C 259.531 275.136 259.277 275.305 258.967 275.305 C 258.657 275.305 258.404 275.461 258.404 275.651 C 258.404 275.841 257.854 276.115 257.183 276.26 C 256.512 276.405 255.203 276.926 254.275 277.417 C 253.347 277.908 252.291 278.31 251.928 278.31 C 251.565 278.31 251.268 278.479 251.268 278.685 C 251.268 278.892 251.014 279.061 250.704 279.061 C 250.394 279.061 250.141 279.23 250.141 279.437 C 250.141 279.643 249.885 279.812 249.572 279.812 C 248.999 279.812 248.728 279.921 246.448 281.063 C 245.76 281.408 244.958 281.69 244.664 281.69 C 244.371 281.69 244.131 281.859 244.131 282.066 C 244.131 282.272 243.964 282.441 243.758 282.441 C 243.117 282.441 240.376 283.731 240.376 284.032 C 240.376 284.19 240.12 284.319 239.807 284.319 C 239.235 284.319 238.925 284.447 236.75 285.58 C 236.098 285.92 235.295 286.197 234.966 286.197 C 234.636 286.197 234.366 286.353 234.366 286.543 C 234.366 286.733 233.859 287 233.239 287.136 C 232.62 287.272 232.113 287.539 232.113 287.729 C 232.113 287.92 231.944 288.075 231.739 288.075 C 231.533 288.075 230.084 288.667 228.519 289.39 C 226.954 290.113 225.516 290.704 225.325 290.704 C 225.133 290.704 224.977 290.873 224.977 291.08 C 224.977 291.286 224.648 291.455 224.248 291.455 C 223.847 291.455 223.426 291.605 223.313 291.788 C 223.2 291.972 222.513 292.233 221.788 292.369 C 221.063 292.505 220.469 292.778 220.469 292.975 C 220.469 293.172 220.131 293.333 219.718 293.333 C 219.305 293.333 218.967 293.495 218.967 293.692 C 218.967 293.889 218.374 294.162 217.648 294.298 C 216.923 294.434 216.237 294.695 216.124 294.878 C 216.011 295.061 215.59 295.211 215.189 295.211 C 214.788 295.211 214.46 295.38 214.46 295.587 C 214.46 295.793 213.953 295.962 213.333 295.962 C 212.714 295.962 212.207 296.119 212.207 296.311 C 212.207 296.503 211.275 296.776 210.136 296.918 C 208.997 297.061 207.973 297.326 207.86 297.509 C 207.747 297.691 206.83 297.84 205.822 297.84 C 204.813 297.84 203.884 298.009 203.756 298.216 C 203.462 298.692 190.337 298.725 189.84 298.251 C 189.644 298.063 188.638 297.823 187.606 297.717 C 185.147 297.464 181.168 296.601 180.813 296.244 C 180.658 296.089 180.053 295.962 179.468 295.962 C 178.883 295.962 178.404 295.836 178.404 295.681 C 178.404 295.526 177.347 295.081 176.056 294.692 C 174.765 294.303 172.847 293.584 171.794 293.096 C 170.74 292.607 169.613 292.207 169.29 292.207 C 168.966 292.207 168.645 292.08 168.576 291.925 C 168.507 291.77 167.437 291.163 166.197 290.577 C 164.958 289.99 163.65 289.357 163.291 289.168 C 162.933 288.98 162.383 288.826 162.071 288.826 C 161.758 288.826 161.502 288.697 161.502 288.539 C 161.502 288.238 158.761 286.948 158.119 286.948 C 157.914 286.948 157.746 286.779 157.746 286.573 C 157.746 286.366 157.512 286.197 157.226 286.197 C 156.94 286.197 156.221 285.945 155.63 285.636 C 155.038 285.328 154.258 285.074 153.897 285.073 C 153.535 285.071 153.239 284.901 153.239 284.695 C 153.239 284.488 152.901 284.319 152.488 284.319 C 152.075 284.319 151.737 284.19 151.737 284.032 C 151.737 283.731 148.996 282.441 148.354 282.441 C 148.149 282.441 147.981 282.272 147.981 282.066 C 147.981 281.859 147.653 281.69 147.252 281.69 C 146.851 281.69 146.431 281.54 146.317 281.357 C 146.204 281.174 145.518 280.913 144.793 280.777 C 144.068 280.641 143.474 280.4 143.474 280.241 C 143.474 280.082 142.883 279.72 142.16 279.437 C 141.437 279.153 140.845 278.783 140.845 278.615 C 140.845 278.447 140.718 278.332 140.563 278.36 C 139.938 278.472 137.84 277.818 137.84 277.512 C 137.84 277.331 137.502 277.183 137.089 277.183 C 136.676 277.183 136.338 277.028 136.338 276.837 C 136.338 276.647 135.789 276.372 135.117 276.227 C 134.446 276.081 133.812 275.854 133.709 275.722 C 133.395 275.322 130.208 273.842 129.108 273.586 C 128.54 273.454 128.075 273.195 128.075 273.011 C 128.075 272.827 127.737 272.676 127.324 272.676 C 126.911 272.676 126.573 272.507 126.573 272.3 C 126.573 272.094 126.362 271.924 126.103 271.924 C 125.845 271.923 124.501 271.352 123.116 270.654 C 121.731 269.957 120.127 269.268 119.551 269.123 C 118.976 268.979 118.419 268.739 118.314 268.59 C 118.019 268.174 113.854 266.291 113.229 266.291 C 112.925 266.291 112.676 266.122 112.676 265.915 C 112.676 265.709 112.338 265.54 111.925 265.54 C 111.512 265.54 111.174 265.384 111.174 265.194 C 111.174 265.004 110.624 264.729 109.953 264.584 C 109.282 264.438 108.648 264.204 108.545 264.065 C 108.339 263.787 105.505 262.385 105.102 262.362 C 104.964 262.354 104.725 262.221 104.57 262.066 C 104.415 261.911 103.978 261.784 103.599 261.784 C 103.221 261.784 102.911 261.615 102.911 261.408 C 102.911 261.202 102.573 261.033 102.16 261.033 C 101.746 261.033 101.408 260.864 101.408 260.657 C 101.408 260.451 101.197 260.281 100.939 260.281 C 100.681 260.28 99.318 259.699 97.911 258.991 C 96.504 258.282 94.856 257.593 94.249 257.46 C 93.642 257.326 93.146 257.062 93.146 256.872 C 93.146 256.681 92.808 256.526 92.394 256.526 C 91.981 256.526 91.643 256.37 91.643 256.18 C 91.643 255.99 91.138 255.723 90.521 255.588 C 89.903 255.452 89.302 255.185 89.184 254.995 C 89.066 254.804 88.642 254.648 88.241 254.648 C 87.84 254.648 87.512 254.479 87.512 254.272 C 87.512 254.066 87.216 253.891 86.854 253.885 C 86.493 253.878 85.869 253.625 85.468 253.321 C 85.067 253.018 84.433 252.77 84.06 252.77 C 83.686 252.77 83.38 252.641 83.38 252.483 C 83.38 252.134 80.592 250.892 79.81 250.892 C 79.501 250.892 79.249 250.723 79.249 250.516 C 79.249 250.31 78.911 250.141 78.498 250.141 C 78.085 250.141 77.746 249.972 77.746 249.765 C 77.746 249.559 77.451 249.384 77.089 249.378 C 76.728 249.371 76.104 249.118 75.703 248.814 C 74.678 248.039 73.682 248.148 71.771 249.246" stroke-linecap="round"/>
</g>
<g transform="matrix(1 0 0 1 540.45 455.5)">
<path style="stroke: none; stroke-width: 1; stroke-dasharray: none; stroke-linecap: butt; stroke-dashoffset: 0; stroke-linejoin: miter; stroke-miterlimit: 4; fill: rgb(52,76,108); fill-rule: evenodd; opacity: 1;" vector-effect="non-scaling-stroke" transform=" translate(-196.82, -110.05)" d="M 191.925 27.793 C 191.925 28 191.192 28.169 190.297 28.169 C 189.402 28.169 188.545 28.294 188.393 28.446 C 188.241 28.598 187.917 28.743 187.673 28.768 C 186.746 28.861 185.54 29.397 185.54 29.715 C 185.54 29.898 185.117 30.047 184.601 30.047 C 184.085 30.047 183.662 30.197 183.662 30.381 C 183.662 30.564 183.07 30.825 182.347 30.961 C 181.624 31.097 181.033 31.369 181.033 31.566 C 181.033 31.764 180.709 31.925 180.313 31.925 C 179.917 31.925 179.537 32.052 179.468 32.207 C 179.287 32.615 176.934 33.803 176.308 33.803 C 176.014 33.803 175.775 33.972 175.775 34.178 C 175.775 34.385 175.352 34.554 174.836 34.554 C 174.319 34.554 173.897 34.715 173.897 34.913 C 173.897 35.11 173.305 35.382 172.582 35.518 C 171.859 35.653 171.268 35.915 171.268 36.098 C 171.268 36.282 171.014 36.432 170.704 36.432 C 170.394 36.432 170.141 36.601 170.141 36.808 C 170.141 37.014 169.803 37.183 169.39 37.183 C 168.977 37.183 168.638 37.35 168.638 37.554 C 168.638 37.758 167.962 38.034 167.136 38.166 C 166.31 38.298 165.634 38.553 165.634 38.733 C 165.634 38.914 165.296 39.061 164.883 39.061 C 164.469 39.061 164.131 39.23 164.131 39.437 C 164.131 39.643 163.964 39.812 163.758 39.812 C 163.117 39.812 160.376 41.102 160.376 41.403 C 160.376 41.561 160.038 41.69 159.624 41.69 C 159.211 41.69 158.873 41.838 158.873 42.018 C 158.873 42.198 158.197 42.453 157.371 42.586 C 156.545 42.718 155.869 42.993 155.869 43.197 C 155.869 43.401 155.531 43.568 155.117 43.568 C 154.704 43.568 154.366 43.724 154.366 43.914 C 154.366 44.104 153.859 44.371 153.239 44.507 C 152.62 44.643 152.113 44.91 152.113 45.1 C 152.113 45.29 151.775 45.446 151.362 45.446 C 150.948 45.446 150.61 45.615 150.61 45.822 C 150.61 46.028 150.188 46.197 149.671 46.197 C 149.155 46.197 148.732 46.359 148.732 46.556 C 148.732 46.753 148.141 47.025 147.418 47.161 C 146.695 47.297 146.103 47.558 146.103 47.741 C 146.103 47.925 145.85 48.075 145.54 48.075 C 145.23 48.075 144.977 48.225 144.977 48.409 C 144.977 48.592 144.385 48.854 143.662 48.989 C 142.939 49.125 142.347 49.397 142.347 49.594 C 142.347 49.792 141.925 49.953 141.408 49.953 C 140.892 49.953 140.469 50.122 140.469 50.329 C 140.469 50.535 140.131 50.704 139.718 50.704 C 139.305 50.704 138.967 50.866 138.967 51.063 C 138.967 51.26 138.376 51.532 137.653 51.668 C 136.93 51.804 136.338 52.065 136.338 52.248 C 136.338 52.432 136.085 52.582 135.775 52.582 C 135.465 52.582 135.211 52.751 135.211 52.958 C 135.211 53.164 134.915 53.334 134.554 53.336 C 134.192 53.337 133.413 53.59 132.821 53.899 C 132.229 54.208 131.511 54.46 131.225 54.46 C 130.938 54.46 130.704 54.629 130.704 54.836 C 130.704 55.042 130.366 55.211 129.953 55.211 C 129.54 55.211 129.202 55.367 129.202 55.557 C 129.202 55.747 128.695 56.014 128.075 56.15 C 127.455 56.286 126.948 56.553 126.948 56.743 C 126.948 56.934 126.61 57.089 126.197 57.089 C 125.784 57.089 125.446 57.258 125.446 57.465 C 125.446 57.671 125.212 57.84 124.926 57.84 C 124.639 57.84 123.921 58.093 123.329 58.401 C 122.738 58.71 121.958 58.964 121.596 58.965 C 121.235 58.966 120.939 59.136 120.939 59.343 C 120.939 59.549 120.685 59.718 120.376 59.718 C 120.066 59.718 119.812 59.869 119.812 60.052 C 119.812 60.236 119.221 60.497 118.498 60.632 C 117.775 60.768 117.183 61.04 117.183 61.238 C 117.183 61.435 116.845 61.596 116.432 61.596 C 116.019 61.596 115.681 61.765 115.681 61.972 C 115.681 62.178 115.258 62.347 114.742 62.347 C 114.225 62.347 113.803 62.509 113.803 62.706 C 113.803 62.903 113.211 63.176 112.488 63.311 C 111.765 63.447 111.174 63.708 111.174 63.892 C 111.174 64.075 110.92 64.225 110.61 64.225 C 110.3 64.225 110.047 64.376 110.047 64.559 C 110.047 64.743 109.455 65.004 108.732 65.14 C 108.009 65.275 107.418 65.548 107.418 65.745 C 107.418 65.942 106.995 66.103 106.479 66.103 C 105.962 66.103 105.54 66.272 105.54 66.479 C 105.54 66.685 105.202 66.854 104.789 66.854 C 104.376 66.854 104.038 67.01 104.038 67.2 C 104.038 67.39 103.531 67.657 102.911 67.793 C 102.291 67.93 101.784 68.196 101.784 68.387 C 101.784 68.577 101.446 68.732 101.033 68.732 C 100.62 68.732 100.282 68.894 100.282 69.091 C 100.282 69.288 99.688 69.561 98.963 69.697 C 98.238 69.833 97.552 70.094 97.438 70.277 C 97.325 70.46 96.905 70.61 96.504 70.61 C 96.103 70.61 95.775 70.779 95.775 70.986 C 95.775 71.192 95.521 71.362 95.211 71.362 C 94.901 71.362 94.648 71.512 94.648 71.695 C 94.648 71.879 94.056 72.14 93.333 72.276 C 92.61 72.411 92.019 72.684 92.019 72.881 C 92.019 73.078 91.681 73.239 91.268 73.239 C 90.854 73.239 90.516 73.408 90.516 73.615 C 90.516 73.822 90.126 73.991 89.649 73.991 C 89.172 73.991 88.454 74.239 88.053 74.542 C 87.652 74.845 87.028 75.099 86.667 75.105 C 86.305 75.112 86.009 75.286 86.009 75.493 C 86.009 75.7 85.756 75.869 85.446 75.869 C 85.136 75.869 84.883 76.019 84.883 76.202 C 84.883 76.386 84.291 76.647 83.568 76.783 C 82.845 76.918 82.254 77.191 82.254 77.388 C 82.254 77.585 81.831 77.746 81.315 77.746 C 80.798 77.746 80.376 77.878 80.376 78.039 C 80.376 78.2 79.531 78.66 78.498 79.061 C 77.465 79.462 76.62 79.922 76.62 80.083 C 76.62 80.244 76.282 80.376 75.869 80.376 C 75.455 80.376 75.117 80.537 75.117 80.734 C 75.117 80.931 74.524 81.204 73.799 81.34 C 73.073 81.476 72.387 81.737 72.274 81.921 C 72.161 82.104 71.74 82.254 71.339 82.254 C 70.938 82.254 70.61 82.423 70.61 82.629 C 70.61 82.836 70.357 83.005 70.047 83.005 C 69.737 83.005 69.484 83.155 69.484 83.338 C 69.484 83.522 68.892 83.783 68.169 83.919 C 67.446 84.055 66.854 84.327 66.854 84.524 C 66.854 84.721 66.516 84.883 66.103 84.883 C 65.69 84.883 65.352 85.037 65.352 85.225 C 65.352 85.414 64.676 85.682 63.85 85.822 C 63.023 85.961 62.347 86.23 62.347 86.418 C 62.347 86.606 62.009 86.761 61.596 86.761 C 61.183 86.761 60.845 86.93 60.845 87.136 C 60.845 87.343 60.592 87.512 60.282 87.512 C 59.972 87.512 59.718 87.662 59.718 87.846 C 59.718 88.029 59.127 88.29 58.404 88.426 C 57.681 88.562 57.089 88.834 57.089 89.031 C 57.089 89.228 56.855 89.39 56.569 89.39 C 56.283 89.39 55.564 89.642 54.973 89.951 C 54.381 90.259 53.601 90.513 53.239 90.514 C 52.878 90.515 52.582 90.685 52.582 90.892 C 52.582 91.099 52.329 91.268 52.019 91.268 C 51.709 91.268 51.455 91.437 51.455 91.643 C 51.455 91.85 51.117 92.019 50.704 92.019 C 50.291 92.019 49.953 92.18 49.953 92.377 C 49.953 92.575 49.362 92.847 48.638 92.983 C 47.915 93.118 47.324 93.379 47.324 93.563 C 47.324 93.747 46.901 93.897 46.385 93.897 C 45.869 93.897 45.446 94.066 45.446 94.272 C 45.446 94.479 45.278 94.648 45.073 94.648 C 44.432 94.648 41.69 95.937 41.69 96.239 C 41.69 96.397 41.37 96.526 40.979 96.526 C 40.588 96.526 40.171 96.779 40.052 97.089 C 39.933 97.399 39.59 97.653 39.29 97.653 C 38.99 97.653 38.013 98.408 37.119 99.331 C 36.225 100.254 35.284 101.226 35.028 101.491 C 34.772 101.755 34.232 102.288 33.827 102.674 C 33.423 103.06 32.985 103.863 32.854 104.458 C 32.723 105.053 32.461 105.54 32.271 105.54 C 32.08 105.54 31.925 105.779 31.925 106.072 C 31.925 106.365 31.719 106.673 31.468 106.756 C 30.81 106.976 30.798 116.118 31.455 116.338 C 31.714 116.424 31.925 116.841 31.925 117.265 C 31.925 117.911 33.062 119.282 35.978 122.151 C 36.245 122.414 36.907 123.094 37.449 123.662 C 37.991 124.23 38.726 124.695 39.083 124.695 C 39.44 124.695 39.822 124.93 39.932 125.217 C 40.169 125.833 41.971 126.785 43.564 127.135 C 44.186 127.272 44.695 127.539 44.695 127.729 C 44.695 127.92 45.033 128.075 45.446 128.075 C 45.859 128.075 46.197 128.204 46.197 128.362 C 46.197 128.664 48.939 129.953 49.58 129.953 C 49.785 129.953 49.953 130.122 49.953 130.329 C 49.953 130.535 50.376 130.704 50.892 130.704 C 51.408 130.704 51.831 130.854 51.831 131.038 C 51.831 131.222 52.423 131.483 53.146 131.618 C 53.869 131.754 54.46 132.026 54.46 132.224 C 54.46 132.421 54.798 132.582 55.211 132.582 C 55.624 132.582 55.962 132.711 55.962 132.869 C 55.962 133.261 58.795 134.46 59.721 134.46 C 60.133 134.46 60.469 134.629 60.469 134.836 C 60.469 135.042 60.723 135.211 61.033 135.211 C 61.343 135.211 61.596 135.361 61.596 135.545 C 61.596 135.729 62.175 135.988 62.883 136.12 C 63.591 136.253 64.225 136.491 64.292 136.649 C 64.443 137.008 67.561 138.472 68.879 138.803 C 69.418 138.938 69.859 139.199 69.859 139.383 C 69.859 139.568 70.197 139.718 70.61 139.718 C 71.023 139.718 71.362 139.88 71.362 140.077 C 71.362 140.274 71.953 140.546 72.676 140.682 C 73.399 140.818 73.991 141.079 73.991 141.262 C 73.991 141.446 74.244 141.596 74.554 141.596 C 74.864 141.596 75.117 141.765 75.117 141.972 C 75.117 142.178 75.54 142.347 76.056 142.347 C 76.573 142.347 76.995 142.498 76.995 142.681 C 76.995 142.865 77.587 143.126 78.31 143.262 C 79.033 143.397 79.624 143.67 79.624 143.867 C 79.624 144.064 79.962 144.225 80.376 144.225 C 80.789 144.225 81.127 144.387 81.127 144.584 C 81.127 144.781 81.718 145.053 82.441 145.189 C 83.164 145.325 83.756 145.586 83.756 145.769 C 83.756 145.953 84.178 146.103 84.695 146.103 C 85.211 146.103 85.634 146.272 85.634 146.479 C 85.634 146.685 85.887 146.854 86.197 146.854 C 86.507 146.854 86.761 147.005 86.761 147.188 C 86.761 147.372 87.352 147.633 88.075 147.769 C 88.798 147.904 89.39 148.137 89.39 148.285 C 89.39 148.664 92.244 149.859 93.148 149.859 C 93.56 149.859 93.897 150.028 93.897 150.235 C 93.897 150.441 94.15 150.61 94.46 150.61 C 94.77 150.61 95.023 150.779 95.023 150.986 C 95.023 151.192 95.362 151.362 95.775 151.362 C 96.188 151.362 96.526 151.523 96.526 151.72 C 96.526 151.917 97.117 152.19 97.84 152.325 C 98.563 152.461 99.155 152.722 99.155 152.906 C 99.155 153.089 99.408 153.239 99.718 153.239 C 100.028 153.239 100.282 153.408 100.282 153.615 C 100.282 153.822 100.694 153.991 101.198 153.991 C 101.703 153.991 102.212 154.147 102.33 154.337 C 102.447 154.528 103.049 154.795 103.666 154.931 C 104.284 155.066 104.789 155.333 104.789 155.523 C 104.789 155.713 105.127 155.869 105.54 155.869 C 105.953 155.869 106.291 156.024 106.291 156.214 C 106.291 156.404 106.796 156.671 107.414 156.807 C 108.031 156.942 108.632 157.209 108.75 157.4 C 108.868 157.59 109.377 157.746 109.881 157.746 C 110.386 157.746 110.798 157.915 110.798 158.122 C 110.798 158.329 111.052 158.498 111.362 158.498 C 111.671 158.498 111.925 158.653 111.925 158.843 C 111.925 159.034 112.474 159.308 113.146 159.454 C 113.817 159.6 114.451 159.833 114.554 159.973 C 114.792 160.295 117.372 161.502 117.822 161.502 C 118.396 161.502 120.182 162.425 120.185 162.723 C 120.186 162.878 120.526 163.005 120.939 163.005 C 121.352 163.005 121.69 163.166 121.69 163.363 C 121.69 163.56 122.282 163.833 123.005 163.968 C 123.728 164.104 124.319 164.365 124.319 164.549 C 124.319 164.732 124.573 164.883 124.883 164.883 C 125.192 164.883 125.446 165.032 125.446 165.216 C 125.446 165.399 126.207 165.663 127.136 165.802 C 128.066 165.941 128.826 166.214 128.826 166.408 C 128.826 166.602 129.08 166.761 129.39 166.761 C 129.7 166.761 129.953 166.93 129.953 167.136 C 129.953 167.343 130.291 167.512 130.704 167.512 C 131.117 167.512 131.455 167.681 131.455 167.887 C 131.455 168.094 131.635 168.263 131.855 168.263 C 132.075 168.263 133.169 168.681 134.286 169.192 C 135.404 169.703 136.745 170.229 137.267 170.36 C 137.789 170.491 138.216 170.749 138.216 170.933 C 138.216 171.117 138.554 171.268 138.967 171.268 C 139.38 171.268 139.718 171.397 139.718 171.555 C 139.718 171.858 142.461 173.146 143.106 173.146 C 143.521 173.146 145.054 173.946 145.352 174.319 C 145.455 174.448 146.089 174.673 146.761 174.818 C 147.432 174.964 147.981 175.239 147.981 175.429 C 147.981 175.619 148.319 175.775 148.732 175.775 C 149.146 175.775 149.484 175.904 149.484 176.062 C 149.484 176.453 152.316 177.653 153.242 177.653 C 153.654 177.653 153.991 177.822 153.991 178.028 C 153.991 178.235 154.244 178.404 154.554 178.404 C 154.864 178.404 155.117 178.573 155.117 178.779 C 155.117 178.986 155.455 179.155 155.869 179.155 C 156.282 179.155 156.62 179.324 156.62 179.531 C 156.62 179.737 156.8 179.906 157.019 179.906 C 157.239 179.906 158.333 180.324 159.451 180.835 C 160.568 181.347 161.909 181.872 162.431 182.003 C 162.953 182.134 163.38 182.392 163.38 182.576 C 163.38 182.76 163.718 182.911 164.131 182.911 C 164.545 182.911 164.883 183.04 164.883 183.198 C 164.883 183.547 167.671 184.789 168.453 184.789 C 168.762 184.789 169.014 184.958 169.014 185.164 C 169.014 185.371 169.352 185.54 169.765 185.54 C 170.178 185.54 170.516 185.69 170.516 185.874 C 170.516 186.057 171.108 186.318 171.831 186.454 C 172.554 186.59 173.146 186.862 173.146 187.059 C 173.146 187.256 173.484 187.418 173.897 187.418 C 174.31 187.418 174.648 187.547 174.648 187.705 C 174.648 188.136 177.524 189.296 178.594 189.296 C 179.109 189.296 179.531 189.465 179.531 189.671 C 179.531 189.878 180.023 190.047 180.626 190.047 C 181.228 190.047 181.778 190.218 181.848 190.427 C 181.918 190.636 183.369 190.915 185.072 191.046 C 186.775 191.178 188.169 191.429 188.169 191.605 C 188.169 191.781 189.606 191.925 191.362 191.925 C 193.239 191.925 194.554 192.08 194.554 192.3 C 194.554 192.517 195.743 192.676 197.371 192.676 C 198.998 192.676 200.188 192.517 200.188 192.3 C 200.188 192.08 201.495 191.925 203.358 191.925 C 205.102 191.925 206.617 191.781 206.726 191.605 C 206.834 191.43 208.231 191.176 209.83 191.04 C 211.428 190.905 212.904 190.626 213.11 190.421 C 213.315 190.215 213.947 190.047 214.513 190.047 C 215.079 190.047 215.639 189.891 215.757 189.7 C 215.875 189.51 216.476 189.243 217.094 189.107 C 217.711 188.971 218.216 188.705 218.216 188.515 C 218.216 188.325 218.638 188.169 219.155 188.169 C 219.671 188.169 220.094 188 220.094 187.793 C 220.094 187.587 220.432 187.418 220.845 187.418 C 221.258 187.418 221.596 187.256 221.596 187.059 C 221.596 186.862 222.188 186.59 222.911 186.454 C 223.634 186.318 224.225 186.057 224.225 185.874 C 224.225 185.69 224.479 185.54 224.789 185.54 C 225.099 185.54 225.352 185.39 225.352 185.206 C 225.352 185.023 225.944 184.761 226.667 184.626 C 227.39 184.49 227.981 184.218 227.981 184.021 C 227.981 183.823 228.319 183.662 228.732 183.662 C 229.146 183.662 229.484 183.493 229.484 183.286 C 229.484 183.08 229.711 182.911 229.989 182.911 C 230.267 182.911 230.986 182.678 231.585 182.394 C 232.185 182.11 233.225 181.646 233.897 181.364 C 234.568 181.081 235.117 180.741 235.117 180.607 C 235.117 180.474 235.709 180.254 236.432 180.119 C 237.155 179.983 237.746 179.711 237.746 179.513 C 237.746 179.316 238 179.155 238.31 179.155 C 238.62 179.155 238.873 178.986 238.873 178.779 C 238.873 178.573 239.211 178.404 239.624 178.404 C 240.038 178.404 240.376 178.256 240.376 178.076 C 240.376 177.896 241.052 177.64 241.878 177.508 C 242.704 177.376 243.38 177.101 243.38 176.897 C 243.38 176.693 243.718 176.526 244.131 176.526 C 244.545 176.526 244.883 176.357 244.883 176.15 C 244.883 175.944 245.136 175.775 245.446 175.775 C 245.756 175.775 246.009 175.624 246.009 175.441 C 246.009 175.257 246.601 174.996 247.324 174.86 C 248.047 174.725 248.638 174.452 248.638 174.255 C 248.638 174.058 248.977 173.897 249.39 173.897 C 249.803 173.897 250.141 173.746 250.141 173.562 C 250.141 173.378 250.582 173.116 251.121 172.981 C 252.298 172.686 255.51 171.226 255.775 170.866 C 255.878 170.726 256.512 170.492 257.183 170.346 C 257.854 170.2 258.404 169.926 258.404 169.735 C 258.404 169.545 258.657 169.39 258.967 169.39 C 259.277 169.39 259.531 169.239 259.531 169.056 C 259.531 168.872 260.122 168.611 260.845 168.475 C 261.568 168.34 262.16 168.068 262.16 167.87 C 262.16 167.673 262.498 167.512 262.911 167.512 C 263.324 167.512 263.662 167.343 263.662 167.136 C 263.662 166.93 264.085 166.761 264.601 166.761 C 265.117 166.761 265.54 166.599 265.54 166.402 C 265.54 166.205 266.131 165.932 266.854 165.797 C 267.577 165.661 268.169 165.4 268.169 165.216 C 268.169 165.033 268.423 164.883 268.732 164.883 C 269.042 164.883 269.296 164.732 269.296 164.549 C 269.296 164.365 269.887 164.104 270.61 163.968 C 271.333 163.833 271.925 163.56 271.925 163.363 C 271.925 163.166 272.178 163.005 272.488 163.005 C 272.798 163.005 273.052 162.836 273.052 162.629 C 273.052 162.423 273.39 162.254 273.803 162.254 C 274.216 162.254 274.554 162.106 274.554 161.926 C 274.554 161.746 275.23 161.49 276.056 161.358 C 276.883 161.226 277.559 160.951 277.559 160.747 C 277.559 160.543 277.897 160.376 278.31 160.376 C 278.723 160.376 279.061 160.207 279.061 160 C 279.061 159.793 279.229 159.624 279.434 159.624 C 280.075 159.624 282.817 158.335 282.817 158.033 C 282.817 157.876 283.155 157.746 283.568 157.746 C 283.981 157.746 284.319 157.585 284.319 157.388 C 284.319 157.191 284.913 156.918 285.638 156.782 C 286.363 156.646 287.049 156.385 287.162 156.202 C 287.276 156.018 287.696 155.869 288.097 155.869 C 288.498 155.869 288.826 155.7 288.826 155.493 C 288.826 155.286 288.994 155.117 289.199 155.117 C 289.841 155.117 292.582 153.828 292.582 153.526 C 292.582 153.369 292.836 153.239 293.146 153.239 C 293.455 153.239 293.709 153.089 293.709 152.906 C 293.709 152.722 294.3 152.461 295.023 152.325 C 295.746 152.19 296.338 151.917 296.338 151.72 C 296.338 151.523 296.761 151.362 297.277 151.362 C 297.793 151.362 298.216 151.192 298.216 150.986 C 298.216 150.779 298.554 150.61 298.967 150.61 C 299.38 150.61 299.718 150.449 299.718 150.252 C 299.718 150.055 300.31 149.782 301.033 149.647 C 301.756 149.511 302.347 149.25 302.347 149.066 C 302.347 148.883 302.601 148.732 302.911 148.732 C 303.221 148.732 303.474 148.582 303.474 148.399 C 303.474 148.215 304.066 147.954 304.789 147.818 C 305.512 147.683 306.103 147.41 306.103 147.213 C 306.103 147.016 306.441 146.854 306.854 146.854 C 307.268 146.854 307.606 146.685 307.606 146.479 C 307.606 146.272 307.944 146.103 308.357 146.103 C 308.77 146.103 309.108 145.934 309.108 145.728 C 309.108 145.521 309.36 145.352 309.669 145.352 C 310.431 145.352 313.239 144.114 313.239 143.778 C 313.239 143.63 313.831 143.397 314.554 143.262 C 315.277 143.126 315.869 142.865 315.869 142.681 C 315.869 142.498 316.122 142.347 316.432 142.347 C 316.742 142.347 316.995 142.178 316.995 141.972 C 316.995 141.765 317.333 141.596 317.746 141.596 C 318.16 141.596 318.498 141.429 318.498 141.225 C 318.498 141.021 319.174 140.746 320 140.614 C 320.826 140.482 321.502 140.226 321.502 140.046 C 321.502 139.866 321.84 139.718 322.254 139.718 C 322.667 139.718 323.005 139.549 323.005 139.343 C 323.005 139.136 323.173 138.967 323.378 138.967 C 324.019 138.967 326.761 137.678 326.761 137.376 C 326.761 137.218 327.014 137.089 327.324 137.089 C 327.634 137.089 327.887 136.939 327.887 136.755 C 327.887 136.572 328.479 136.311 329.202 136.175 C 329.925 136.039 330.516 135.767 330.516 135.57 C 330.516 135.373 330.939 135.211 331.455 135.211 C 331.972 135.211 332.394 135.061 332.394 134.877 C 332.394 134.694 332.986 134.433 333.709 134.297 C 334.432 134.161 335.023 133.889 335.023 133.692 C 335.023 133.495 335.362 133.333 335.775 133.333 C 336.188 133.333 336.526 133.164 336.526 132.958 C 336.526 132.751 336.779 132.582 337.089 132.582 C 337.399 132.582 337.653 132.432 337.653 132.248 C 337.653 132.065 338.244 131.804 338.967 131.668 C 339.69 131.532 340.282 131.26 340.282 131.063 C 340.282 130.866 340.62 130.704 341.033 130.704 C 341.446 130.704 341.784 130.535 341.784 130.329 C 341.784 130.122 342.063 129.953 342.404 129.953 C 343.122 129.953 347.171 128.053 347.351 127.631 C 347.418 127.475 348.052 127.239 348.76 127.106 C 349.468 126.973 350.047 126.715 350.047 126.531 C 350.047 126.347 350.3 126.197 350.61 126.197 C 350.92 126.197 351.174 126.028 351.174 125.822 C 351.174 125.615 351.512 125.446 351.925 125.446 C 352.338 125.446 352.676 125.299 352.676 125.118 C 352.676 124.938 353.352 124.683 354.178 124.551 C 355.005 124.418 355.681 124.143 355.681 123.939 C 355.681 123.735 356.019 123.568 356.432 123.568 C 356.845 123.568 357.183 123.399 357.183 123.192 C 357.183 122.986 357.411 122.817 357.689 122.817 C 358.559 122.817 359.7 121.554 359.979 120.281 C 360.127 119.61 360.361 119.06 360.499 119.058 C 360.85 119.054 361.69 117.17 361.69 116.388 C 361.69 116.034 361.901 115.673 362.159 115.587 C 362.831 115.363 362.832 104.732 362.16 104.507 C 361.901 104.421 361.69 104.064 361.69 103.714 C 361.69 103.363 361.352 102.833 360.939 102.535 C 360.526 102.237 360.188 101.807 360.188 101.579 C 360.188 101.069 358.734 99.726 357.84 99.41 C 357.479 99.283 357.183 99.004 357.183 98.791 C 357.183 98.578 356.922 98.404 356.602 98.404 C 356.282 98.404 355.629 97.981 355.15 97.465 C 354.672 96.948 354.004 96.526 353.666 96.526 C 353.328 96.526 353.052 96.357 353.052 96.15 C 353.052 95.944 352.798 95.775 352.488 95.775 C 352.178 95.775 351.925 95.613 351.925 95.416 C 351.925 95.219 351.333 94.947 350.61 94.811 C 349.887 94.675 349.296 94.414 349.296 94.231 C 349.296 94.047 349.062 93.897 348.775 93.897 C 348.489 93.897 347.771 93.644 347.179 93.336 C 346.587 93.027 345.808 92.774 345.446 92.772 C 345.085 92.771 344.789 92.601 344.789 92.394 C 344.789 92.188 344.535 92.019 344.225 92.019 C 343.915 92.019 343.662 91.85 343.662 91.643 C 343.662 91.437 343.324 91.268 342.911 91.268 C 342.498 91.268 342.16 91.106 342.16 90.909 C 342.16 90.712 341.566 90.439 340.841 90.303 C 340.116 90.167 339.43 89.906 339.316 89.723 C 339.203 89.54 338.783 89.39 338.382 89.39 C 337.981 89.39 337.653 89.228 337.653 89.031 C 337.653 88.834 337.061 88.562 336.338 88.426 C 335.615 88.29 335.023 88.029 335.023 87.846 C 335.023 87.662 334.77 87.512 334.46 87.512 C 334.15 87.512 333.897 87.343 333.897 87.136 C 333.897 86.93 333.559 86.761 333.146 86.761 C 332.732 86.761 332.394 86.594 332.394 86.389 C 332.394 86.185 331.718 85.91 330.892 85.778 C 330.066 85.646 329.39 85.39 329.39 85.21 C 329.39 85.03 329.052 84.883 328.638 84.883 C 328.225 84.883 327.887 84.727 327.887 84.537 C 327.887 84.347 327.38 84.08 326.761 83.944 C 326.141 83.808 325.634 83.541 325.634 83.35 C 325.634 83.16 325.296 83.005 324.883 83.005 C 324.469 83.005 324.131 82.856 324.131 82.673 C 324.131 82.491 323.119 82.026 321.881 81.64 C 320.643 81.255 319.629 80.812 319.628 80.657 C 319.626 80.502 319.371 80.376 319.061 80.376 C 318.751 80.376 318.498 80.207 318.498 80 C 318.498 79.793 318.202 79.619 317.84 79.612 C 317.479 79.606 316.855 79.352 316.454 79.049 C 316.053 78.746 315.419 78.498 315.046 78.498 C 314.672 78.498 314.366 78.329 314.366 78.122 C 314.366 77.915 313.944 77.746 313.427 77.746 C 312.911 77.746 312.488 77.585 312.488 77.388 C 312.488 77.191 311.897 76.918 311.174 76.783 C 310.451 76.647 309.859 76.386 309.859 76.202 C 309.859 76.019 309.606 75.869 309.296 75.869 C 308.986 75.869 308.732 75.7 308.732 75.493 C 308.732 75.286 308.437 75.112 308.075 75.105 C 307.714 75.099 307.09 74.845 306.689 74.542 C 306.288 74.239 305.569 73.991 305.093 73.991 C 304.616 73.991 304.225 73.822 304.225 73.615 C 304.225 73.408 303.887 73.239 303.474 73.239 C 303.061 73.239 302.723 73.084 302.723 72.894 C 302.723 72.704 302.216 72.437 301.596 72.3 C 300.977 72.164 300.469 71.897 300.469 71.707 C 300.469 71.517 300.131 71.362 299.718 71.362 C 299.305 71.362 298.967 71.212 298.967 71.03 C 298.967 70.848 297.954 70.383 296.717 69.997 C 295.479 69.611 294.465 69.169 294.463 69.014 C 294.462 68.859 294.207 68.732 293.897 68.732 C 293.587 68.732 293.333 68.582 293.333 68.399 C 293.333 68.215 292.742 67.954 292.019 67.818 C 291.296 67.683 290.704 67.41 290.704 67.213 C 290.704 67.016 290.366 66.854 289.953 66.854 C 289.54 66.854 289.202 66.685 289.202 66.479 C 289.202 66.272 288.822 66.098 288.357 66.091 C 287.892 66.085 287.184 65.831 286.783 65.528 C 286.382 65.225 285.748 64.977 285.374 64.977 C 285.001 64.977 284.695 64.808 284.695 64.601 C 284.695 64.394 284.441 64.225 284.131 64.225 C 283.822 64.225 283.568 64.064 283.568 63.867 C 283.568 63.67 282.977 63.397 282.254 63.262 C 281.531 63.126 280.939 62.865 280.939 62.681 C 280.939 62.498 280.611 62.347 280.21 62.347 C 279.809 62.347 279.376 62.178 279.249 61.972 C 279.121 61.765 278.689 61.596 278.288 61.596 C 277.887 61.596 277.559 61.441 277.559 61.25 C 277.559 61.06 277.052 60.793 276.432 60.657 C 275.812 60.521 275.305 60.254 275.305 60.064 C 275.305 59.874 274.967 59.718 274.554 59.718 C 274.141 59.718 273.803 59.557 273.803 59.36 C 273.803 59.163 273.211 58.89 272.488 58.755 C 271.765 58.619 271.174 58.358 271.174 58.174 C 271.174 57.991 270.751 57.84 270.235 57.84 C 269.718 57.84 269.296 57.671 269.296 57.465 C 269.296 57.258 269.042 57.089 268.732 57.089 C 268.423 57.089 268.169 56.939 268.169 56.755 C 268.169 56.572 267.577 56.311 266.854 56.175 C 266.131 56.039 265.54 55.767 265.54 55.57 C 265.54 55.373 265.202 55.211 264.789 55.211 C 264.376 55.211 264.038 55.079 264.038 54.918 C 264.038 54.521 261.756 53.682 261.353 53.931 C 261.177 54.04 261.033 53.95 261.033 53.731 C 261.033 53.512 260.695 53.333 260.282 53.333 C 259.869 53.333 259.531 53.164 259.531 52.958 C 259.531 52.751 259.277 52.582 258.967 52.582 C 258.657 52.582 258.404 52.421 258.404 52.224 C 258.404 52.026 257.812 51.754 257.089 51.618 C 256.366 51.483 255.775 51.222 255.775 51.038 C 255.775 50.854 255.437 50.704 255.023 50.704 C 254.61 50.704 254.272 50.535 254.272 50.329 C 254.272 50.122 253.85 49.953 253.333 49.953 C 252.817 49.953 252.394 49.797 252.394 49.607 C 252.394 49.417 251.887 49.15 251.268 49.014 C 250.648 48.878 250.141 48.611 250.141 48.421 C 250.141 48.231 249.803 48.075 249.39 48.075 C 248.977 48.075 248.638 47.914 248.638 47.717 C 248.638 47.519 248.047 47.247 247.324 47.111 C 246.601 46.976 246.009 46.715 246.009 46.531 C 246.009 46.347 245.587 46.197 245.07 46.197 C 244.554 46.197 244.131 46.068 244.131 45.91 C 244.131 45.609 241.39 44.319 240.749 44.319 C 240.543 44.319 240.376 44.15 240.376 43.944 C 240.376 43.737 240.038 43.568 239.624 43.568 C 239.211 43.568 238.873 43.401 238.873 43.197 C 238.873 42.993 238.197 42.718 237.371 42.586 C 236.545 42.453 235.869 42.198 235.869 42.018 C 235.869 41.838 235.531 41.69 235.117 41.69 C 234.704 41.69 234.366 41.521 234.366 41.315 C 234.366 41.108 234.113 40.939 233.803 40.939 C 233.493 40.939 233.239 40.778 233.239 40.58 C 233.239 40.383 232.648 40.111 231.925 39.975 C 231.202 39.84 230.61 39.62 230.61 39.487 C 230.61 39.153 228.794 38.378 227.321 38.084 C 226.651 37.95 226.103 37.692 226.103 37.512 C 226.103 37.331 225.85 37.183 225.54 37.183 C 225.23 37.183 224.977 37.014 224.977 36.808 C 224.977 36.601 224.638 36.432 224.225 36.432 C 223.812 36.432 223.474 36.271 223.474 36.073 C 223.474 35.876 222.883 35.604 222.16 35.468 C 221.437 35.333 220.845 35.071 220.845 34.888 C 220.845 34.704 220.423 34.554 219.906 34.554 C 219.39 34.554 218.967 34.422 218.967 34.261 C 218.967 34.1 218.122 33.64 217.089 33.239 C 216.056 32.839 215.211 32.379 215.211 32.218 C 215.211 32.057 214.873 31.925 214.46 31.925 C 214.047 31.925 213.709 31.777 213.709 31.597 C 213.709 31.417 213.033 31.162 212.207 31.029 C 211.38 30.897 210.704 30.622 210.704 30.418 C 210.704 30.214 210.282 30.047 209.765 30.047 C 209.249 30.047 208.826 29.878 208.826 29.671 C 208.826 29.465 208.329 29.296 207.722 29.296 C 207.114 29.296 206.517 29.135 206.396 28.938 C 206.274 28.741 205.165 28.465 203.932 28.326 C 202.699 28.186 201.69 27.925 201.69 27.745 C 201.69 27.565 199.493 27.418 196.808 27.418 C 193.803 27.418 191.925 27.562 191.925 27.793" stroke-linecap="round"/>
</g>
</svg>